<svg width="1780" height="667" viewBox="0 0 1780 667" fill="none" xmlns="http://www.w3.org/2000/svg">
<g opacity="0.31">
<rect x="1849.5" y="731.427" width="91.4286" height="91.4286" transform="rotate(180 1849.5 731.427)" fill="#D72C02" fill-opacity="0.2"/>
<rect opacity="0.56" x="1666.64" y="731.427" width="91.4286" height="91.4286" transform="rotate(180 1666.64 731.427)" fill="#D72C02"/>
<rect opacity="0.39" x="1392.35" y="731.427" width="91.4286" height="91.4286" transform="rotate(180 1392.35 731.427)" fill="#D72C02"/>
<rect x="1300.92" y="731.427" width="91.4286" height="91.4286" transform="rotate(180 1300.92 731.427)" fill="#D72C02" fill-opacity="0.2"/>
<rect opacity="0.34" x="1209.5" y="731.427" width="91.4286" height="91.4286" transform="rotate(180 1209.5 731.427)" fill="#D72C02"/>
<rect opacity="0.39" x="1118.07" y="731.427" width="91.4286" height="91.4286" transform="rotate(180 1118.07 731.427)" fill="#D72C02"/>
<rect opacity="0.56" x="1026.63" y="731.427" width="91.4286" height="91.4286" transform="rotate(180 1026.63 731.427)" fill="#D72C02"/>
<rect x="935.21" y="731.427" width="91.4286" height="91.4286" transform="rotate(180 935.21 731.427)" fill="#D72C02" fill-opacity="0.2"/>
<rect x="843.781" y="731.427" width="91.4286" height="91.4286" transform="rotate(180 843.781 731.427)" fill="#D72C02" fill-opacity="0.2"/>
<rect opacity="0.54" x="752.351" y="731.427" width="91.4286" height="91.4286" transform="rotate(180 752.351 731.427)" fill="#D72C02"/>
<rect opacity="0.39" x="660.921" y="731.427" width="91.4286" height="91.4286" transform="rotate(180 660.921 731.427)" fill="#D72C02" fill-opacity="0.2"/>
<rect opacity="0.34" x="386.64" y="731.427" width="91.4286" height="91.4286" transform="rotate(180 386.64 731.427)" fill="#D72C02"/>
<rect opacity="0.56" x="295.208" y="731.427" width="91.4286" height="91.4286" transform="rotate(180 295.208 731.427)" fill="#D72C02" fill-opacity="0.2"/>
<rect opacity="0.39" x="112.351" y="731.427" width="91.4286" height="91.4286" transform="rotate(180 112.351 731.427)" fill="#D72C02"/>
<rect opacity="0.56" x="20.9264" y="731.427" width="91.4286" height="91.4286" transform="rotate(180 20.9264 731.427)" fill="#D72C02"/>
<rect x="1849.5" y="639.999" width="91.4286" height="91.4286" transform="rotate(180 1849.5 639.999)" fill="#D72C02"/>
<rect x="1666.65" y="639.999" width="91.4286" height="91.4286" transform="rotate(180 1666.65 639.999)" fill="#D72C02" fill-opacity="0.2"/>
<rect opacity="0.56" x="1575.21" y="639.997" width="91.4286" height="91.4286" transform="rotate(180 1575.21 639.997)" fill="#D72C02"/>
<rect x="1483.78" y="639.999" width="91.4286" height="91.4286" transform="rotate(180 1483.78 639.999)" fill="#D72C02" fill-opacity="0.2"/>
<rect opacity="0.56" x="1392.35" y="639.997" width="91.4286" height="91.4286" transform="rotate(180 1392.35 639.997)" fill="#D72C02"/>
<rect x="1209.5" y="639.999" width="91.4286" height="91.4286" transform="rotate(180 1209.5 639.999)" fill="#D72C02" fill-opacity="0.2"/>
<rect x="1118.07" y="639.999" width="91.4286" height="91.4286" transform="rotate(180 1118.07 639.999)" fill="#D72C02"/>
<rect opacity="0.54" x="1026.63" y="639.997" width="91.4286" height="91.4286" transform="rotate(180 1026.63 639.997)" fill="#D72C02" fill-opacity="0.2"/>
<rect opacity="0.34" x="935.21" y="639.999" width="91.4286" height="91.4286" transform="rotate(180 935.21 639.999)" fill="#D72C02"/>
<rect opacity="0.54" x="843.781" y="639.999" width="91.4286" height="91.4286" transform="rotate(180 843.781 639.999)" fill="#D72C02"/>
<rect x="752.351" y="639.999" width="91.4286" height="91.4286" transform="rotate(180 752.351 639.999)" fill="#D72C02" fill-opacity="0.2"/>
<rect opacity="0.39" x="660.921" y="639.999" width="91.4286" height="91.4286" transform="rotate(180 660.921 639.999)" fill="#D72C02"/>
<rect x="478.07" y="639.997" width="91.4286" height="91.4286" transform="rotate(180 478.07 639.997)" fill="#D72C02" fill-opacity="0.2"/>
<rect opacity="0.39" x="386.64" y="639.999" width="91.4286" height="91.4286" transform="rotate(180 386.64 639.999)" fill="#D72C02"/>
<rect opacity="0.39" x="295.208" y="639.997" width="91.4286" height="91.4286" transform="rotate(180 295.208 639.997)" fill="#D72C02"/>
<rect opacity="0.34" x="203.781" y="639.999" width="91.4286" height="91.4286" transform="rotate(180 203.781 639.999)" fill="#D72C02"/>
<rect x="112.351" y="639.997" width="91.4286" height="91.4286" transform="rotate(180 112.351 639.997)" fill="#D72C02" fill-opacity="0.2"/>
<rect x="20.9264" y="639.999" width="91.4286" height="91.4286" transform="rotate(180 20.9264 639.999)" fill="#D72C02"/>
<rect x="1849.5" y="548.57" width="91.4286" height="91.4286" transform="rotate(180 1849.5 548.57)" fill="#D72C02" fill-opacity="0.2"/>
<rect opacity="0.39" x="1758.07" y="548.57" width="91.4286" height="91.4286" transform="rotate(180 1758.07 548.57)" fill="#D72C02"/>
<rect opacity="0.34" x="1666.64" y="548.57" width="91.4286" height="91.4286" transform="rotate(180 1666.64 548.57)" fill="#D72C02"/>
<rect x="1575.21" y="548.57" width="91.4286" height="91.4286" transform="rotate(180 1575.21 548.57)" fill="#D72C02" fill-opacity="0.2"/>
<rect x="1483.78" y="548.57" width="91.4286" height="91.4286" transform="rotate(180 1483.78 548.57)" fill="#D72C02"/>
<rect opacity="0.34" x="1392.35" y="548.57" width="91.4286" height="91.4286" transform="rotate(180 1392.35 548.57)" fill="#D72C02"/>
<rect opacity="0.56" x="1300.92" y="548.57" width="91.4286" height="91.4286" transform="rotate(180 1300.92 548.57)" fill="#D72C02"/>
<rect x="1209.5" y="548.57" width="91.4286" height="91.4286" transform="rotate(180 1209.5 548.57)" fill="#D72C02" fill-opacity="0.2"/>
<rect opacity="0.39" x="1026.63" y="548.57" width="91.4286" height="91.4286" transform="rotate(180 1026.63 548.57)" fill="#D72C02"/>
<rect opacity="0.54" x="935.21" y="548.57" width="91.4286" height="91.4286" transform="rotate(180 935.21 548.57)" fill="#D72C02"/>
<rect x="752.351" y="548.57" width="91.4286" height="91.4286" transform="rotate(180 752.351 548.57)" fill="#D72C02"/>
<rect opacity="0.39" x="660.921" y="548.57" width="91.4286" height="91.4286" transform="rotate(180 660.921 548.57)" fill="#D72C02"/>
<rect x="569.499" y="548.57" width="91.4286" height="91.4286" transform="rotate(180 569.499 548.57)" fill="#D72C02" fill-opacity="0.2"/>
<rect opacity="0.39" x="478.07" y="548.57" width="91.4286" height="91.4286" transform="rotate(180 478.07 548.57)" fill="#D72C02"/>
<rect opacity="0.56" x="386.64" y="548.57" width="91.4286" height="91.4286" transform="rotate(180 386.64 548.57)" fill="#D72C02"/>
<rect x="295.208" y="548.57" width="91.4286" height="91.4286" transform="rotate(180 295.208 548.57)" fill="#D72C02" fill-opacity="0.2"/>
<rect x="203.781" y="548.57" width="91.4286" height="91.4286" transform="rotate(180 203.781 548.57)" fill="#D72C02"/>
<rect opacity="0.54" x="112.351" y="548.57" width="91.4286" height="91.4286" transform="rotate(180 112.351 548.57)" fill="#D72C02"/>
<rect opacity="0.56" x="20.9264" y="548.57" width="91.4286" height="91.4286" transform="rotate(180 20.9264 548.57)" fill="#D72C02"/>
<rect opacity="0.54" x="1849.5" y="457.143" width="91.4286" height="91.4286" transform="rotate(180 1849.5 457.143)" fill="#D72C02"/>
<rect x="1758.07" y="457.143" width="91.4286" height="91.4286" transform="rotate(180 1758.07 457.143)" fill="#D72C02" fill-opacity="0.2"/>
<rect opacity="0.39" x="1666.64" y="457.143" width="91.4286" height="91.4286" transform="rotate(180 1666.64 457.143)" fill="#D72C02" fill-opacity="0.2"/>
<rect opacity="0.54" x="1575.21" y="457.143" width="91.4286" height="91.4286" transform="rotate(180 1575.21 457.143)" fill="#D72C02"/>
<rect opacity="0.56" x="1483.78" y="457.143" width="91.4286" height="91.4286" transform="rotate(180 1483.78 457.143)" fill="#D72C02"/>
<rect x="1392.35" y="457.143" width="91.4286" height="91.4286" transform="rotate(180 1392.35 457.143)" fill="#D72C02" fill-opacity="0.2"/>
<rect opacity="0.34" x="1300.92" y="457.143" width="91.4286" height="91.4286" transform="rotate(180 1300.92 457.143)" fill="#D72C02"/>
<rect opacity="0.54" x="1209.5" y="457.143" width="91.4286" height="91.4286" transform="rotate(180 1209.5 457.143)" fill="#D72C02"/>
<rect opacity="0.39" x="1118.07" y="457.143" width="91.4286" height="91.4286" transform="rotate(180 1118.07 457.143)" fill="#D72C02"/>
<rect x="1026.63" y="457.143" width="91.4286" height="91.4286" transform="rotate(180 1026.63 457.143)" fill="#D72C02" fill-opacity="0.2"/>
<rect x="935.21" y="457.143" width="91.4286" height="91.4286" transform="rotate(180 935.21 457.143)" fill="#D72C02" fill-opacity="0.2"/>
<rect opacity="0.56" x="843.781" y="457.143" width="91.4286" height="91.4286" transform="rotate(180 843.781 457.143)" fill="#D72C02"/>
<rect opacity="0.34" x="752.351" y="457.143" width="91.4286" height="91.4286" transform="rotate(180 752.351 457.143)" fill="#D72C02"/>
<rect opacity="0.54" x="660.921" y="457.143" width="91.4286" height="91.4286" transform="rotate(180 660.921 457.143)" fill="#D72C02"/>
<rect opacity="0.56" x="569.499" y="457.143" width="91.4286" height="91.4286" transform="rotate(180 569.499 457.143)" fill="#D72C02"/>
<rect x="478.07" y="457.143" width="91.4286" height="91.4286" transform="rotate(180 478.07 457.143)" fill="#D72C02" fill-opacity="0.2"/>
<rect opacity="0.39" x="386.64" y="457.143" width="91.4286" height="91.4286" transform="rotate(180 386.64 457.143)" fill="#D72C02"/>
<rect opacity="0.39" x="295.208" y="457.143" width="91.4286" height="91.4286" transform="rotate(180 295.208 457.143)" fill="#D72C02"/>
<rect x="203.781" y="457.143" width="91.4286" height="91.4286" transform="rotate(180 203.781 457.143)" fill="#D72C02" fill-opacity="0.2"/>
<rect opacity="0.39" x="112.351" y="457.143" width="91.4286" height="91.4286" transform="rotate(180 112.351 457.143)" fill="#D72C02"/>
<rect x="20.9264" y="457.143" width="91.4286" height="91.4286" transform="rotate(180 20.9264 457.143)" fill="#D72C02" fill-opacity="0.2"/>
<rect x="1849.5" y="365.716" width="91.4286" height="91.4286" transform="rotate(180 1849.5 365.716)" fill="#D72C02"/>
<rect opacity="0.56" x="1758.07" y="365.716" width="91.4286" height="91.4286" transform="rotate(180 1758.07 365.716)" fill="#D72C02"/>
<rect opacity="0.39" x="1666.64" y="365.716" width="91.4286" height="91.4286" transform="rotate(180 1666.64 365.716)" fill="#D72C02"/>
<rect opacity="0.34" x="1575.21" y="365.713" width="91.4286" height="91.4286" transform="rotate(180 1575.21 365.713)" fill="#D72C02"/>
<rect opacity="0.39" x="1483.78" y="365.716" width="91.4286" height="91.4286" transform="rotate(180 1483.78 365.716)" fill="#D72C02" fill-opacity="0.2"/>
<rect opacity="0.56" x="1392.35" y="365.716" width="91.4286" height="91.4286" transform="rotate(180 1392.35 365.716)" fill="#D72C02"/>
<rect x="1300.92" y="365.716" width="91.4286" height="91.4286" transform="rotate(180 1300.92 365.716)" fill="#D72C02"/>
<rect x="1209.5" y="365.716" width="91.4286" height="91.4286" transform="rotate(180 1209.5 365.716)" fill="#D72C02" fill-opacity="0.2"/>
<rect x="1118.07" y="365.716" width="91.4286" height="91.4286" transform="rotate(180 1118.07 365.716)" fill="#D72C02"/>
<rect x="1026.63" y="365.716" width="91.4286" height="91.4286" transform="rotate(180 1026.63 365.716)" fill="#D72C02" fill-opacity="0.2"/>
<rect opacity="0.34" x="935.21" y="365.713" width="91.4286" height="91.4286" transform="rotate(180 935.21 365.713)" fill="#D72C02"/>
<rect opacity="0.54" x="843.781" y="365.716" width="91.4286" height="91.4286" transform="rotate(180 843.781 365.716)" fill="#D72C02"/>
<rect opacity="0.39" x="752.351" y="365.716" width="91.4286" height="91.4286" transform="rotate(180 752.351 365.716)" fill="#D72C02"/>
<rect x="660.921" y="365.716" width="91.4286" height="91.4286" transform="rotate(180 660.921 365.716)" fill="#D72C02" fill-opacity="0.2"/>
<rect x="569.499" y="365.716" width="91.4286" height="91.4286" transform="rotate(180 569.499 365.716)" fill="#D72C02"/>
<rect opacity="0.34" x="478.07" y="365.716" width="91.4286" height="91.4286" transform="rotate(180 478.07 365.716)" fill="#D72C02"/>
<rect x="386.64" y="365.713" width="91.4286" height="91.4286" transform="rotate(180 386.64 365.713)" fill="#D72C02"/>
<rect opacity="0.56" x="295.208" y="365.716" width="91.4286" height="91.4286" transform="rotate(180 295.208 365.716)" fill="#D72C02"/>
<rect x="203.781" y="365.716" width="91.4286" height="91.4286" transform="rotate(180 203.781 365.716)" fill="#D72C02"/>
<rect x="112.351" y="365.716" width="91.4286" height="91.4286" transform="rotate(180 112.351 365.716)" fill="#D72C02" fill-opacity="0.2"/>
<rect x="20.9264" y="365.716" width="91.4286" height="91.4286" transform="rotate(180 20.9264 365.716)" fill="#D72C02" fill-opacity="0.2"/>
<rect opacity="0.56" x="1849.5" y="274.286" width="91.4286" height="91.4286" transform="rotate(180 1849.5 274.286)" fill="#D72C02"/>
<rect x="1758.07" y="274.286" width="91.4286" height="91.4286" transform="rotate(180 1758.07 274.286)" fill="#D72C02"/>
<rect x="1849.5" y="182.859" width="91.4286" height="91.4286" transform="rotate(180 1849.5 182.859)" fill="#D72C02"/>
<rect opacity="0.21" width="91.4286" height="91.4286" transform="matrix(1 8.74228e-08 8.74228e-08 -1 20.9263 91.429)" fill="#D72C02"/>
<rect x="1666.64" y="274.286" width="91.4286" height="91.4286" transform="rotate(180 1666.64 274.286)" fill="#D72C02" fill-opacity="0.2"/>
<rect x="1758.07" y="182.859" width="91.4286" height="91.4286" transform="rotate(180 1758.07 182.859)" fill="#D72C02" fill-opacity="0.2"/>
<rect opacity="0.21" width="91.4286" height="91.4286" transform="matrix(1 8.74228e-08 8.74228e-08 -1 112.351 91.429)" fill="#D72C02" fill-opacity="0.2"/>
<rect x="1575.21" y="274.286" width="91.4286" height="91.4286" transform="rotate(180 1575.21 274.286)" fill="#D72C02" fill-opacity="0.2"/>
<rect x="1666.64" y="182.859" width="91.4286" height="91.4286" transform="rotate(180 1666.64 182.859)" fill="#D72C02" fill-opacity="0.2"/>
<rect opacity="0.21" width="91.4286" height="91.4286" transform="matrix(1 8.74228e-08 8.74228e-08 -1 203.786 91.429)" fill="#D72C02" fill-opacity="0.2"/>
<rect x="1483.78" y="274.286" width="91.4286" height="91.4286" transform="rotate(180 1483.78 274.286)" fill="#D72C02"/>
<rect x="1575.22" y="182.859" width="91.4286" height="91.4286" transform="rotate(180 1575.22 182.859)" fill="#D72C02"/>
<rect opacity="0.21" width="91.4286" height="91.4286" transform="matrix(1 8.74228e-08 8.74228e-08 -1 295.208 91.429)" fill="#D72C02"/>
<rect opacity="0.56" x="1392.35" y="274.286" width="91.4286" height="91.4286" transform="rotate(180 1392.35 274.286)" fill="#D72C02"/>
<rect opacity="0.56" x="1483.79" y="182.859" width="91.4286" height="91.4286" transform="rotate(180 1483.79 182.859)" fill="#D72C02"/>
<rect opacity="0.39" x="1300.92" y="274.286" width="91.4286" height="91.4286" transform="rotate(180 1300.92 274.286)" fill="#D72C02"/>
<rect opacity="0.39" x="1392.36" y="182.859" width="91.4286" height="91.4286" transform="rotate(180 1392.36 182.859)" fill="#D72C02"/>
<rect x="1209.5" y="274.286" width="91.4286" height="91.4286" transform="rotate(180 1209.5 274.286)" fill="#D72C02"/>
<rect x="1300.93" y="182.859" width="91.4286" height="91.4286" transform="rotate(180 1300.93 182.859)" fill="#D72C02"/>
<rect opacity="0.21" width="91.4286" height="91.4286" transform="matrix(1 8.74228e-08 8.74228e-08 -1 569.494 91.429)" fill="#D72C02"/>
<rect opacity="0.39" x="1118.07" y="274.286" width="91.4286" height="91.4286" transform="rotate(180 1118.07 274.286)" fill="#D72C02"/>
<rect opacity="0.39" x="1209.5" y="182.859" width="91.4286" height="91.4286" transform="rotate(180 1209.5 182.859)" fill="#D72C02"/>
<rect x="1026.63" y="274.286" width="91.4286" height="91.4286" transform="rotate(180 1026.63 274.286)" fill="#D72C02"/>
<rect x="1118.07" y="182.859" width="91.4286" height="91.4286" transform="rotate(180 1118.07 182.859)" fill="#D72C02"/>
<rect opacity="0.21" width="91.4286" height="91.4286" transform="matrix(1 8.74228e-08 8.74228e-08 -1 752.354 91.429)" fill="#D72C02"/>
<rect opacity="0.56" x="935.213" y="274.286" width="91.4286" height="91.4286" transform="rotate(180 935.213 274.286)" fill="#D72C02"/>
<rect opacity="0.56" x="1026.65" y="182.859" width="91.4286" height="91.4286" transform="rotate(180 1026.65 182.859)" fill="#D72C02"/>
<rect x="843.781" y="274.286" width="91.4286" height="91.4286" transform="rotate(180 843.781 274.286)" fill="#D72C02"/>
<rect x="935.218" y="182.859" width="91.4286" height="91.4286" transform="rotate(180 935.218 182.859)" fill="#D72C02"/>
<rect opacity="0.21" width="91.4286" height="91.4286" transform="matrix(1 8.74228e-08 8.74228e-08 -1 935.21 91.429)" fill="#D72C02"/>
<rect opacity="0.56" x="752.354" y="274.286" width="91.4286" height="91.4286" transform="rotate(180 752.354 274.286)" fill="#D72C02"/>
<rect opacity="0.56" x="843.788" y="182.859" width="91.4286" height="91.4286" transform="rotate(180 843.788 182.859)" fill="#D72C02"/>
<rect x="660.921" y="274.286" width="91.4286" height="91.4286" transform="rotate(180 660.921 274.286)" fill="#D72C02"/>
<rect x="752.359" y="182.859" width="91.4286" height="91.4286" transform="rotate(180 752.359 182.859)" fill="#D72C02"/>
<rect opacity="0.21" width="91.4286" height="91.4286" transform="matrix(1 8.74228e-08 8.74228e-08 -1 1118.07 91.4292)" fill="#D72C02"/>
<rect x="569.499" y="274.286" width="91.4286" height="91.4286" transform="rotate(180 569.499 274.286)" fill="#D72C02" fill-opacity="0.2"/>
<rect x="660.932" y="182.859" width="91.4286" height="91.4286" transform="rotate(180 660.932 182.859)" fill="#D72C02" fill-opacity="0.2"/>
<rect opacity="0.21" width="91.4286" height="91.4286" transform="matrix(1 8.74228e-08 8.74228e-08 -1 1209.49 91.429)" fill="#D72C02" fill-opacity="0.2"/>
<rect x="478.07" y="274.286" width="91.4286" height="91.4286" transform="rotate(180 478.07 274.286)" fill="#D72C02"/>
<rect x="569.499" y="182.859" width="91.4286" height="91.4286" transform="rotate(180 569.499 182.859)" fill="#D72C02"/>
<rect opacity="0.21" width="91.4286" height="91.4286" transform="matrix(1 8.74228e-08 8.74228e-08 -1 1300.93 91.429)" fill="#D72C02"/>
<rect opacity="0.56" x="386.64" y="274.286" width="91.4286" height="91.4286" transform="rotate(180 386.64 274.286)" fill="#D72C02"/>
<rect opacity="0.56" x="478.07" y="182.859" width="91.4286" height="91.4286" transform="rotate(180 478.07 182.859)" fill="#D72C02"/>
<rect x="295.208" y="274.286" width="91.4286" height="91.4286" transform="rotate(180 295.208 274.286)" fill="#D72C02" fill-opacity="0.2"/>
<rect x="386.64" y="182.859" width="91.4286" height="91.4286" transform="rotate(180 386.64 182.859)" fill="#D72C02" fill-opacity="0.2"/>
<rect opacity="0.21" width="91.4286" height="91.4286" transform="matrix(1 8.74228e-08 8.74228e-08 -1 1483.79 91.429)" fill="#D72C02" fill-opacity="0.2"/>
<rect x="203.781" y="274.286" width="91.4286" height="91.4286" transform="rotate(180 203.781 274.286)" fill="#D72C02" fill-opacity="0.2"/>
<rect x="295.21" y="182.859" width="91.4286" height="91.4286" transform="rotate(180 295.21 182.859)" fill="#D72C02" fill-opacity="0.2"/>
<rect opacity="0.21" width="91.4286" height="91.4286" transform="matrix(1 8.74228e-08 8.74228e-08 -1 1575.21 91.429)" fill="#D72C02" fill-opacity="0.2"/>
<rect opacity="0.34" x="112.351" y="274.286" width="91.4286" height="91.4286" transform="rotate(180 112.351 274.286)" fill="#D72C02"/>
<rect opacity="0.34" x="203.786" y="182.859" width="91.4286" height="91.4286" transform="rotate(180 203.786 182.859)" fill="#D72C02"/>
<rect x="20.9263" y="274.286" width="91.4286" height="91.4286" transform="rotate(180 20.9263 274.286)" fill="#D72C02"/>
<rect x="112.359" y="182.859" width="91.4286" height="91.4286" transform="rotate(180 112.359 182.859)" fill="#D72C02"/>
<rect x="203.773" y="274.288" width="91.4286" height="91.4286" transform="rotate(180 203.773 274.288)" fill="#A12000"/>
<rect opacity="0.21" width="91.4286" height="91.4286" transform="matrix(1 8.74228e-08 8.74228e-08 -1 1575.2 91.429)" fill="#D72C02"/>
</g>
</svg>
