<svg width="19" height="17" viewBox="0 0 19 17" fill="none" xmlns="http://www.w3.org/2000/svg">
<path d="M6.96834 14.7851C6.96834 15.8541 6.10169 16.7252 5.03263 16.7252H3.87605C2.80699 16.7252 1.94034 15.8541 1.94034 14.7851H6.96834ZM10.0608 12.8449C11.1299 12.8449 11.9965 13.716 11.9965 14.7851H17.0244C17.0244 15.8541 16.1577 16.7252 15.0887 16.7252H13.9321C12.863 16.7252 11.9964 15.8542 11.9964 14.7851H6.96843C6.96843 13.7161 7.8351 12.8449 8.90414 12.8449H10.0608ZM1.94034 14.7851C0.871276 14.7851 0 13.9184 0 12.8493V3.87596C0 2.8069 0.871187 1.94025 1.94025 1.94025L1.94034 14.7851ZM17.0598 1.94025C18.1288 1.94025 19 2.8069 19 3.87596L19 12.8493C19 13.9184 18.1288 14.7851 17.0598 14.7851V1.94025ZM4.76679 5.41686C5.30125 5.41687 5.73454 5.85017 5.73456 6.38463V10.3406C5.73455 10.875 5.30125 11.3083 4.76679 11.3084C4.23232 11.3084 3.79903 10.8751 3.79902 10.3406V6.38463C3.79904 5.85016 4.23232 5.41686 4.76679 5.41686ZM14.1483 5.41686C14.6827 5.41686 15.116 5.85016 15.116 6.38463L15.116 10.3406C15.116 10.8751 14.6827 11.3084 14.1483 11.3084C13.6138 11.3084 13.1805 10.8751 13.1805 10.3406L13.1805 6.38463C13.1805 5.85016 13.6138 5.41686 14.1483 5.41686ZM15.0887 0C16.1577 -4.67302e-08 17.0244 0.871186 17.0244 1.94025H11.9965C11.9965 3.00926 11.1298 3.88039 10.0608 3.8804H8.90414C7.8351 3.88038 6.96843 3.00921 6.96843 1.94016H11.9964C11.9964 0.871127 12.863 5.02951e-06 13.9321 0H15.0887ZM5.03263 0C6.1017 -4.67302e-08 6.96834 0.871186 6.96834 1.94025H1.94025C1.94025 0.871186 2.80699 4.67302e-08 3.87605 0H5.03263Z" fill="#FF3604"/>
</svg>
