<svg width="854" height="802" viewBox="0 0 854 802" fill="none" xmlns="http://www.w3.org/2000/svg">
<rect x="0.166687" y="0.53125" width="53.3333" height="53.3333" stroke="#1A1A1A" stroke-width="1.33333" stroke-dasharray="4 4"/>
<rect x="0.166687" y="53.8647" width="53.3333" height="53.3333" stroke="#1A1A1A" stroke-width="1.33333" stroke-dasharray="4 4"/>
<rect x="0.166687" y="107.198" width="53.3333" height="53.3333" stroke="#1A1A1A" stroke-width="1.33333" stroke-dasharray="4 4"/>
<rect x="0.166687" y="160.531" width="53.3333" height="53.3333" stroke="#1A1A1A" stroke-width="1.33333" stroke-dasharray="4 4"/>
<rect x="0.166687" y="213.865" width="53.3333" height="53.3333" stroke="#1A1A1A" stroke-width="1.33333" stroke-dasharray="4 4"/>
<rect x="0.166687" y="267.198" width="53.3333" height="53.3333" stroke="#1A1A1A" stroke-width="1.33333" stroke-dasharray="4 4"/>
<rect x="0.166687" y="320.531" width="53.3333" height="53.3333" stroke="#1A1A1A" stroke-width="1.33333" stroke-dasharray="4 4"/>
<rect x="0.166687" y="373.865" width="53.3333" height="53.3333" stroke="#1A1A1A" stroke-width="1.33333" stroke-dasharray="4 4"/>
<rect x="0.166687" y="427.198" width="53.3333" height="53.3333" stroke="#1A1A1A" stroke-width="1.33333" stroke-dasharray="4 4"/>
<rect x="0.166687" y="480.531" width="53.3333" height="53.3333" stroke="#1A1A1A" stroke-width="1.33333" stroke-dasharray="4 4"/>
<rect x="0.166687" y="533.865" width="53.3333" height="53.3333" stroke="#1A1A1A" stroke-width="1.33333" stroke-dasharray="4 4"/>
<rect x="0.166687" y="587.198" width="53.3333" height="53.3333" stroke="#1A1A1A" stroke-width="1.33333" stroke-dasharray="4 4"/>
<rect x="0.166687" y="640.531" width="53.3333" height="53.3333" stroke="#1A1A1A" stroke-width="1.33333" stroke-dasharray="4 4"/>
<rect x="0.166687" y="693.865" width="53.3333" height="53.3333" stroke="#1A1A1A" stroke-width="1.33333" stroke-dasharray="4 4"/>
<rect x="0.166687" y="747.198" width="53.3333" height="53.3333" stroke="#1A1A1A" stroke-width="1.33333" stroke-dasharray="4 4"/>
<rect x="53.5" y="0.53125" width="53.3333" height="53.3333" stroke="#1A1A1A" stroke-width="1.33333" stroke-dasharray="4 4"/>
<rect x="53.5" y="53.8647" width="53.3333" height="53.3333" stroke="#1A1A1A" stroke-width="1.33333" stroke-dasharray="4 4"/>
<rect x="53.5" y="107.198" width="53.3333" height="53.3333" stroke="#1A1A1A" stroke-width="1.33333" stroke-dasharray="4 4"/>
<rect x="53.5" y="160.531" width="53.3333" height="53.3333" stroke="#1A1A1A" stroke-width="1.33333" stroke-dasharray="4 4"/>
<rect x="53.5" y="213.865" width="53.3333" height="53.3333" stroke="#1A1A1A" stroke-width="1.33333" stroke-dasharray="4 4"/>
<rect x="53.5" y="267.198" width="53.3333" height="53.3333" stroke="#1A1A1A" stroke-width="1.33333" stroke-dasharray="4 4"/>
<rect x="53.5" y="320.531" width="53.3333" height="53.3333" stroke="#1A1A1A" stroke-width="1.33333" stroke-dasharray="4 4"/>
<rect x="53.5" y="373.865" width="53.3333" height="53.3333" stroke="#1A1A1A" stroke-width="1.33333" stroke-dasharray="4 4"/>
<rect x="53.5" y="427.198" width="53.3333" height="53.3333" stroke="#1A1A1A" stroke-width="1.33333" stroke-dasharray="4 4"/>
<rect x="53.5" y="480.531" width="53.3333" height="53.3333" stroke="#1A1A1A" stroke-width="1.33333" stroke-dasharray="4 4"/>
<rect x="53.5" y="533.865" width="53.3333" height="53.3333" stroke="#1A1A1A" stroke-width="1.33333" stroke-dasharray="4 4"/>
<rect x="53.5" y="587.198" width="53.3333" height="53.3333" stroke="#1A1A1A" stroke-width="1.33333" stroke-dasharray="4 4"/>
<rect x="53.5" y="640.531" width="53.3333" height="53.3333" stroke="#1A1A1A" stroke-width="1.33333" stroke-dasharray="4 4"/>
<rect x="53.5" y="693.865" width="53.3333" height="53.3333" stroke="#1A1A1A" stroke-width="1.33333" stroke-dasharray="4 4"/>
<rect x="53.5" y="747.198" width="53.3333" height="53.3333" stroke="#1A1A1A" stroke-width="1.33333" stroke-dasharray="4 4"/>
<rect x="106.833" y="0.53125" width="53.3333" height="53.3333" stroke="#1A1A1A" stroke-width="1.33333" stroke-dasharray="4 4"/>
<rect x="106.833" y="53.8647" width="53.3333" height="53.3333" stroke="#1A1A1A" stroke-width="1.33333" stroke-dasharray="4 4"/>
<rect x="106.833" y="107.198" width="53.3333" height="53.3333" stroke="#1A1A1A" stroke-width="1.33333" stroke-dasharray="4 4"/>
<rect x="106.833" y="160.531" width="53.3333" height="53.3333" stroke="#1A1A1A" stroke-width="1.33333" stroke-dasharray="4 4"/>
<rect x="106.833" y="213.865" width="53.3333" height="53.3333" stroke="#1A1A1A" stroke-width="1.33333" stroke-dasharray="4 4"/>
<rect x="106.833" y="267.198" width="53.3333" height="53.3333" stroke="#1A1A1A" stroke-width="1.33333" stroke-dasharray="4 4"/>
<rect x="106.833" y="320.531" width="53.3333" height="53.3333" stroke="#1A1A1A" stroke-width="1.33333" stroke-dasharray="4 4"/>
<rect x="106.833" y="373.865" width="53.3333" height="53.3333" stroke="#1A1A1A" stroke-width="1.33333" stroke-dasharray="4 4"/>
<rect x="106.833" y="427.198" width="53.3333" height="53.3333" stroke="#1A1A1A" stroke-width="1.33333" stroke-dasharray="4 4"/>
<rect x="106.833" y="480.531" width="53.3333" height="53.3333" stroke="#1A1A1A" stroke-width="1.33333" stroke-dasharray="4 4"/>
<rect x="106.833" y="533.865" width="53.3333" height="53.3333" stroke="#1A1A1A" stroke-width="1.33333" stroke-dasharray="4 4"/>
<rect x="106.833" y="587.198" width="53.3333" height="53.3333" stroke="#1A1A1A" stroke-width="1.33333" stroke-dasharray="4 4"/>
<rect x="106.833" y="640.531" width="53.3333" height="53.3333" stroke="#1A1A1A" stroke-width="1.33333" stroke-dasharray="4 4"/>
<rect x="106.833" y="693.865" width="53.3333" height="53.3333" stroke="#1A1A1A" stroke-width="1.33333" stroke-dasharray="4 4"/>
<rect x="106.833" y="747.198" width="53.3333" height="53.3333" stroke="#1A1A1A" stroke-width="1.33333" stroke-dasharray="4 4"/>
<rect x="160.167" y="0.53125" width="53.3333" height="53.3333" stroke="#1A1A1A" stroke-width="1.33333" stroke-dasharray="4 4"/>
<rect x="160.167" y="53.8647" width="53.3333" height="53.3333" stroke="#1A1A1A" stroke-width="1.33333" stroke-dasharray="4 4"/>
<rect x="160.167" y="107.198" width="53.3333" height="53.3333" stroke="#1A1A1A" stroke-width="1.33333" stroke-dasharray="4 4"/>
<rect x="160.167" y="160.531" width="53.3333" height="53.3333" stroke="#1A1A1A" stroke-width="1.33333" stroke-dasharray="4 4"/>
<rect x="160.167" y="213.865" width="53.3333" height="53.3333" stroke="#1A1A1A" stroke-width="1.33333" stroke-dasharray="4 4"/>
<rect x="160.167" y="267.198" width="53.3333" height="53.3333" stroke="#1A1A1A" stroke-width="1.33333" stroke-dasharray="4 4"/>
<rect x="160.167" y="320.531" width="53.3333" height="53.3333" stroke="#1A1A1A" stroke-width="1.33333" stroke-dasharray="4 4"/>
<rect x="160.167" y="373.865" width="53.3333" height="53.3333" stroke="#1A1A1A" stroke-width="1.33333" stroke-dasharray="4 4"/>
<rect x="160.167" y="427.198" width="53.3333" height="53.3333" stroke="#1A1A1A" stroke-width="1.33333" stroke-dasharray="4 4"/>
<rect x="160.167" y="480.531" width="53.3333" height="53.3333" stroke="#1A1A1A" stroke-width="1.33333" stroke-dasharray="4 4"/>
<rect x="160.167" y="533.865" width="53.3333" height="53.3333" stroke="#1A1A1A" stroke-width="1.33333" stroke-dasharray="4 4"/>
<rect x="160.167" y="587.198" width="53.3333" height="53.3333" stroke="#1A1A1A" stroke-width="1.33333" stroke-dasharray="4 4"/>
<rect x="160.167" y="640.531" width="53.3333" height="53.3333" stroke="#1A1A1A" stroke-width="1.33333" stroke-dasharray="4 4"/>
<rect x="160.167" y="693.865" width="53.3333" height="53.3333" stroke="#1A1A1A" stroke-width="1.33333" stroke-dasharray="4 4"/>
<rect x="160.167" y="747.198" width="53.3333" height="53.3333" stroke="#1A1A1A" stroke-width="1.33333" stroke-dasharray="4 4"/>
<rect x="213.5" y="0.53125" width="53.3333" height="53.3333" stroke="#1A1A1A" stroke-width="1.33333" stroke-dasharray="4 4"/>
<rect x="213.5" y="53.8647" width="53.3333" height="53.3333" stroke="#1A1A1A" stroke-width="1.33333" stroke-dasharray="4 4"/>
<rect x="213.5" y="107.198" width="53.3333" height="53.3333" stroke="#1A1A1A" stroke-width="1.33333" stroke-dasharray="4 4"/>
<rect x="213.5" y="160.531" width="53.3333" height="53.3333" stroke="#1A1A1A" stroke-width="1.33333" stroke-dasharray="4 4"/>
<rect x="213.5" y="213.865" width="53.3333" height="53.3333" stroke="#1A1A1A" stroke-width="1.33333" stroke-dasharray="4 4"/>
<rect x="213.5" y="267.198" width="53.3333" height="53.3333" stroke="#1A1A1A" stroke-width="1.33333" stroke-dasharray="4 4"/>
<rect x="213.5" y="320.531" width="53.3333" height="53.3333" stroke="#1A1A1A" stroke-width="1.33333" stroke-dasharray="4 4"/>
<rect x="213.5" y="373.865" width="53.3333" height="53.3333" stroke="#1A1A1A" stroke-width="1.33333" stroke-dasharray="4 4"/>
<rect x="213.5" y="427.198" width="53.3333" height="53.3333" stroke="#1A1A1A" stroke-width="1.33333" stroke-dasharray="4 4"/>
<rect x="213.5" y="480.531" width="53.3333" height="53.3333" stroke="#1A1A1A" stroke-width="1.33333" stroke-dasharray="4 4"/>
<rect x="213.5" y="533.865" width="53.3333" height="53.3333" stroke="#1A1A1A" stroke-width="1.33333" stroke-dasharray="4 4"/>
<rect x="213.5" y="587.198" width="53.3333" height="53.3333" stroke="#1A1A1A" stroke-width="1.33333" stroke-dasharray="4 4"/>
<rect x="213.5" y="640.531" width="53.3333" height="53.3333" stroke="#1A1A1A" stroke-width="1.33333" stroke-dasharray="4 4"/>
<rect x="213.5" y="693.865" width="53.3333" height="53.3333" stroke="#1A1A1A" stroke-width="1.33333" stroke-dasharray="4 4"/>
<rect x="213.5" y="747.198" width="53.3333" height="53.3333" stroke="#1A1A1A" stroke-width="1.33333" stroke-dasharray="4 4"/>
<rect x="266.833" y="0.53125" width="53.3333" height="53.3333" stroke="#1A1A1A" stroke-width="1.33333" stroke-dasharray="4 4"/>
<rect x="266.833" y="53.8647" width="53.3333" height="53.3333" stroke="#1A1A1A" stroke-width="1.33333" stroke-dasharray="4 4"/>
<rect x="266.833" y="107.198" width="53.3333" height="53.3333" stroke="#1A1A1A" stroke-width="1.33333" stroke-dasharray="4 4"/>
<rect x="266.833" y="160.531" width="53.3333" height="53.3333" stroke="#1A1A1A" stroke-width="1.33333" stroke-dasharray="4 4"/>
<rect x="266.833" y="213.865" width="53.3333" height="53.3333" stroke="#1A1A1A" stroke-width="1.33333" stroke-dasharray="4 4"/>
<rect x="266.833" y="267.198" width="53.3333" height="53.3333" stroke="#1A1A1A" stroke-width="1.33333" stroke-dasharray="4 4"/>
<rect x="266.833" y="320.531" width="53.3333" height="53.3333" stroke="#1A1A1A" stroke-width="1.33333" stroke-dasharray="4 4"/>
<rect x="266.833" y="373.865" width="53.3333" height="53.3333" stroke="#1A1A1A" stroke-width="1.33333" stroke-dasharray="4 4"/>
<rect x="266.833" y="427.198" width="53.3333" height="53.3333" stroke="#1A1A1A" stroke-width="1.33333" stroke-dasharray="4 4"/>
<rect x="266.833" y="480.531" width="53.3333" height="53.3333" stroke="#1A1A1A" stroke-width="1.33333" stroke-dasharray="4 4"/>
<rect x="266.833" y="533.865" width="53.3333" height="53.3333" stroke="#1A1A1A" stroke-width="1.33333" stroke-dasharray="4 4"/>
<rect x="266.833" y="587.198" width="53.3333" height="53.3333" stroke="#1A1A1A" stroke-width="1.33333" stroke-dasharray="4 4"/>
<rect x="266.833" y="640.531" width="53.3333" height="53.3333" stroke="#1A1A1A" stroke-width="1.33333" stroke-dasharray="4 4"/>
<rect x="266.833" y="693.865" width="53.3333" height="53.3333" stroke="#1A1A1A" stroke-width="1.33333" stroke-dasharray="4 4"/>
<rect x="266.833" y="747.198" width="53.3333" height="53.3333" stroke="#1A1A1A" stroke-width="1.33333" stroke-dasharray="4 4"/>
<rect x="320.167" y="0.53125" width="53.3333" height="53.3333" stroke="#1A1A1A" stroke-width="1.33333" stroke-dasharray="4 4"/>
<rect x="320.167" y="53.8647" width="53.3333" height="53.3333" stroke="#1A1A1A" stroke-width="1.33333" stroke-dasharray="4 4"/>
<rect x="320.167" y="107.198" width="53.3333" height="53.3333" stroke="#1A1A1A" stroke-width="1.33333" stroke-dasharray="4 4"/>
<rect x="320.167" y="160.531" width="53.3333" height="53.3333" stroke="#1A1A1A" stroke-width="1.33333" stroke-dasharray="4 4"/>
<rect x="320.167" y="213.865" width="53.3333" height="53.3333" stroke="#1A1A1A" stroke-width="1.33333" stroke-dasharray="4 4"/>
<rect x="320.167" y="267.198" width="53.3333" height="53.3333" stroke="#1A1A1A" stroke-width="1.33333" stroke-dasharray="4 4"/>
<rect x="320.167" y="320.531" width="53.3333" height="53.3333" stroke="#1A1A1A" stroke-width="1.33333" stroke-dasharray="4 4"/>
<rect x="320.167" y="373.865" width="53.3333" height="53.3333" stroke="#1A1A1A" stroke-width="1.33333" stroke-dasharray="4 4"/>
<rect x="320.167" y="427.198" width="53.3333" height="53.3333" stroke="#1A1A1A" stroke-width="1.33333" stroke-dasharray="4 4"/>
<rect x="320.167" y="480.531" width="53.3333" height="53.3333" stroke="#1A1A1A" stroke-width="1.33333" stroke-dasharray="4 4"/>
<rect x="320.167" y="533.865" width="53.3333" height="53.3333" stroke="#1A1A1A" stroke-width="1.33333" stroke-dasharray="4 4"/>
<rect x="320.167" y="587.198" width="53.3333" height="53.3333" stroke="#1A1A1A" stroke-width="1.33333" stroke-dasharray="4 4"/>
<rect x="320.167" y="640.531" width="53.3333" height="53.3333" stroke="#1A1A1A" stroke-width="1.33333" stroke-dasharray="4 4"/>
<rect x="320.167" y="693.865" width="53.3333" height="53.3333" stroke="#1A1A1A" stroke-width="1.33333" stroke-dasharray="4 4"/>
<rect x="320.167" y="747.198" width="53.3333" height="53.3333" stroke="#1A1A1A" stroke-width="1.33333" stroke-dasharray="4 4"/>
<rect x="373.5" y="0.53125" width="53.3333" height="53.3333" stroke="#1A1A1A" stroke-width="1.33333" stroke-dasharray="4 4"/>
<rect x="373.5" y="53.8647" width="53.3333" height="53.3333" stroke="#1A1A1A" stroke-width="1.33333" stroke-dasharray="4 4"/>
<rect x="373.5" y="107.198" width="53.3333" height="53.3333" stroke="#1A1A1A" stroke-width="1.33333" stroke-dasharray="4 4"/>
<rect x="373.5" y="160.531" width="53.3333" height="53.3333" stroke="#1A1A1A" stroke-width="1.33333" stroke-dasharray="4 4"/>
<rect x="373.5" y="213.865" width="53.3333" height="53.3333" stroke="#1A1A1A" stroke-width="1.33333" stroke-dasharray="4 4"/>
<rect x="373.5" y="267.198" width="53.3333" height="53.3333" stroke="#1A1A1A" stroke-width="1.33333" stroke-dasharray="4 4"/>
<rect x="373.5" y="320.531" width="53.3333" height="53.3333" stroke="#1A1A1A" stroke-width="1.33333" stroke-dasharray="4 4"/>
<rect x="373.5" y="373.865" width="53.3333" height="53.3333" stroke="#1A1A1A" stroke-width="1.33333" stroke-dasharray="4 4"/>
<rect x="373.5" y="427.198" width="53.3333" height="53.3333" stroke="#1A1A1A" stroke-width="1.33333" stroke-dasharray="4 4"/>
<rect x="373.5" y="480.531" width="53.3333" height="53.3333" stroke="#1A1A1A" stroke-width="1.33333" stroke-dasharray="4 4"/>
<rect x="373.5" y="533.865" width="53.3333" height="53.3333" stroke="#1A1A1A" stroke-width="1.33333" stroke-dasharray="4 4"/>
<rect x="373.5" y="587.198" width="53.3333" height="53.3333" stroke="#1A1A1A" stroke-width="1.33333" stroke-dasharray="4 4"/>
<rect x="373.5" y="640.531" width="53.3333" height="53.3333" stroke="#1A1A1A" stroke-width="1.33333" stroke-dasharray="4 4"/>
<rect x="373.5" y="693.865" width="53.3333" height="53.3333" stroke="#1A1A1A" stroke-width="1.33333" stroke-dasharray="4 4"/>
<rect x="373.5" y="747.198" width="53.3333" height="53.3333" stroke="#1A1A1A" stroke-width="1.33333" stroke-dasharray="4 4"/>
<rect x="426.833" y="0.53125" width="53.3333" height="53.3333" stroke="#1A1A1A" stroke-width="1.33333" stroke-dasharray="4 4"/>
<rect x="426.833" y="53.8647" width="53.3333" height="53.3333" stroke="#1A1A1A" stroke-width="1.33333" stroke-dasharray="4 4"/>
<rect x="426.833" y="107.198" width="53.3333" height="53.3333" stroke="#1A1A1A" stroke-width="1.33333" stroke-dasharray="4 4"/>
<rect x="426.833" y="160.531" width="53.3333" height="53.3333" stroke="#1A1A1A" stroke-width="1.33333" stroke-dasharray="4 4"/>
<rect x="426.833" y="213.865" width="53.3333" height="53.3333" stroke="#1A1A1A" stroke-width="1.33333" stroke-dasharray="4 4"/>
<rect x="426.833" y="267.198" width="53.3333" height="53.3333" stroke="#1A1A1A" stroke-width="1.33333" stroke-dasharray="4 4"/>
<rect x="426.833" y="320.531" width="53.3333" height="53.3333" stroke="#1A1A1A" stroke-width="1.33333" stroke-dasharray="4 4"/>
<rect x="426.833" y="373.865" width="53.3333" height="53.3333" stroke="#1A1A1A" stroke-width="1.33333" stroke-dasharray="4 4"/>
<rect x="426.833" y="427.198" width="53.3333" height="53.3333" stroke="#1A1A1A" stroke-width="1.33333" stroke-dasharray="4 4"/>
<rect x="426.833" y="480.531" width="53.3333" height="53.3333" stroke="#1A1A1A" stroke-width="1.33333" stroke-dasharray="4 4"/>
<rect x="426.833" y="533.865" width="53.3333" height="53.3333" stroke="#1A1A1A" stroke-width="1.33333" stroke-dasharray="4 4"/>
<rect x="426.833" y="587.198" width="53.3333" height="53.3333" stroke="#1A1A1A" stroke-width="1.33333" stroke-dasharray="4 4"/>
<rect x="426.833" y="640.531" width="53.3333" height="53.3333" stroke="#1A1A1A" stroke-width="1.33333" stroke-dasharray="4 4"/>
<rect x="426.833" y="693.865" width="53.3333" height="53.3333" stroke="#1A1A1A" stroke-width="1.33333" stroke-dasharray="4 4"/>
<rect x="426.833" y="747.198" width="53.3333" height="53.3333" stroke="#1A1A1A" stroke-width="1.33333" stroke-dasharray="4 4"/>
<rect x="480.167" y="0.53125" width="53.3333" height="53.3333" stroke="#1A1A1A" stroke-width="1.33333" stroke-dasharray="4 4"/>
<rect x="480.167" y="53.8647" width="53.3333" height="53.3333" stroke="#1A1A1A" stroke-width="1.33333" stroke-dasharray="4 4"/>
<rect x="480.167" y="107.198" width="53.3333" height="53.3333" stroke="#1A1A1A" stroke-width="1.33333" stroke-dasharray="4 4"/>
<rect x="480.167" y="160.531" width="53.3333" height="53.3333" stroke="#1A1A1A" stroke-width="1.33333" stroke-dasharray="4 4"/>
<rect x="480.167" y="213.865" width="53.3333" height="53.3333" stroke="#1A1A1A" stroke-width="1.33333" stroke-dasharray="4 4"/>
<rect x="480.167" y="267.198" width="53.3333" height="53.3333" stroke="#1A1A1A" stroke-width="1.33333" stroke-dasharray="4 4"/>
<rect x="480.167" y="320.531" width="53.3333" height="53.3333" stroke="#1A1A1A" stroke-width="1.33333" stroke-dasharray="4 4"/>
<rect x="480.167" y="373.865" width="53.3333" height="53.3333" stroke="#1A1A1A" stroke-width="1.33333" stroke-dasharray="4 4"/>
<rect x="480.167" y="427.198" width="53.3333" height="53.3333" stroke="#1A1A1A" stroke-width="1.33333" stroke-dasharray="4 4"/>
<rect x="480.167" y="480.531" width="53.3333" height="53.3333" stroke="#1A1A1A" stroke-width="1.33333" stroke-dasharray="4 4"/>
<rect x="480.167" y="533.865" width="53.3333" height="53.3333" stroke="#1A1A1A" stroke-width="1.33333" stroke-dasharray="4 4"/>
<rect x="480.167" y="587.198" width="53.3333" height="53.3333" stroke="#1A1A1A" stroke-width="1.33333" stroke-dasharray="4 4"/>
<rect x="480.167" y="640.531" width="53.3333" height="53.3333" stroke="#1A1A1A" stroke-width="1.33333" stroke-dasharray="4 4"/>
<rect x="480.167" y="693.865" width="53.3333" height="53.3333" stroke="#1A1A1A" stroke-width="1.33333" stroke-dasharray="4 4"/>
<rect x="480.167" y="747.198" width="53.3333" height="53.3333" stroke="#1A1A1A" stroke-width="1.33333" stroke-dasharray="4 4"/>
<rect x="533.5" y="0.53125" width="53.3333" height="53.3333" stroke="#1A1A1A" stroke-width="1.33333" stroke-dasharray="4 4"/>
<rect x="533.5" y="53.8647" width="53.3333" height="53.3333" stroke="#1A1A1A" stroke-width="1.33333" stroke-dasharray="4 4"/>
<rect x="533.5" y="107.198" width="53.3333" height="53.3333" stroke="#1A1A1A" stroke-width="1.33333" stroke-dasharray="4 4"/>
<rect x="533.5" y="160.531" width="53.3333" height="53.3333" stroke="#1A1A1A" stroke-width="1.33333" stroke-dasharray="4 4"/>
<rect x="533.5" y="213.865" width="53.3333" height="53.3333" stroke="#1A1A1A" stroke-width="1.33333" stroke-dasharray="4 4"/>
<rect x="533.5" y="267.198" width="53.3333" height="53.3333" stroke="#1A1A1A" stroke-width="1.33333" stroke-dasharray="4 4"/>
<rect x="533.5" y="320.531" width="53.3333" height="53.3333" stroke="#1A1A1A" stroke-width="1.33333" stroke-dasharray="4 4"/>
<rect x="533.5" y="373.865" width="53.3333" height="53.3333" stroke="#1A1A1A" stroke-width="1.33333" stroke-dasharray="4 4"/>
<rect x="533.5" y="427.198" width="53.3333" height="53.3333" stroke="#1A1A1A" stroke-width="1.33333" stroke-dasharray="4 4"/>
<rect x="533.5" y="480.531" width="53.3333" height="53.3333" stroke="#1A1A1A" stroke-width="1.33333" stroke-dasharray="4 4"/>
<rect x="533.5" y="533.865" width="53.3333" height="53.3333" stroke="#1A1A1A" stroke-width="1.33333" stroke-dasharray="4 4"/>
<rect x="533.5" y="587.198" width="53.3333" height="53.3333" stroke="#1A1A1A" stroke-width="1.33333" stroke-dasharray="4 4"/>
<rect x="533.5" y="640.531" width="53.3333" height="53.3333" stroke="#1A1A1A" stroke-width="1.33333" stroke-dasharray="4 4"/>
<rect x="533.5" y="693.865" width="53.3333" height="53.3333" stroke="#1A1A1A" stroke-width="1.33333" stroke-dasharray="4 4"/>
<rect x="533.5" y="747.198" width="53.3333" height="53.3333" stroke="#1A1A1A" stroke-width="1.33333" stroke-dasharray="4 4"/>
<rect x="586.833" y="0.53125" width="53.3333" height="53.3333" stroke="#1A1A1A" stroke-width="1.33333" stroke-dasharray="4 4"/>
<rect x="586.833" y="53.8647" width="53.3333" height="53.3333" stroke="#1A1A1A" stroke-width="1.33333" stroke-dasharray="4 4"/>
<rect x="586.833" y="107.198" width="53.3333" height="53.3333" stroke="#1A1A1A" stroke-width="1.33333" stroke-dasharray="4 4"/>
<rect x="586.833" y="160.531" width="53.3333" height="53.3333" stroke="#1A1A1A" stroke-width="1.33333" stroke-dasharray="4 4"/>
<rect x="586.833" y="213.865" width="53.3333" height="53.3333" stroke="#1A1A1A" stroke-width="1.33333" stroke-dasharray="4 4"/>
<rect x="586.833" y="267.198" width="53.3333" height="53.3333" stroke="#1A1A1A" stroke-width="1.33333" stroke-dasharray="4 4"/>
<rect x="586.833" y="320.531" width="53.3333" height="53.3333" stroke="#1A1A1A" stroke-width="1.33333" stroke-dasharray="4 4"/>
<rect x="586.833" y="373.865" width="53.3333" height="53.3333" stroke="#1A1A1A" stroke-width="1.33333" stroke-dasharray="4 4"/>
<rect x="586.833" y="427.198" width="53.3333" height="53.3333" stroke="#1A1A1A" stroke-width="1.33333" stroke-dasharray="4 4"/>
<rect x="586.833" y="480.531" width="53.3333" height="53.3333" stroke="#1A1A1A" stroke-width="1.33333" stroke-dasharray="4 4"/>
<rect x="586.833" y="533.865" width="53.3333" height="53.3333" stroke="#1A1A1A" stroke-width="1.33333" stroke-dasharray="4 4"/>
<rect x="586.833" y="587.198" width="53.3333" height="53.3333" stroke="#1A1A1A" stroke-width="1.33333" stroke-dasharray="4 4"/>
<rect x="586.833" y="640.531" width="53.3333" height="53.3333" stroke="#1A1A1A" stroke-width="1.33333" stroke-dasharray="4 4"/>
<rect x="586.833" y="693.865" width="53.3333" height="53.3333" stroke="#1A1A1A" stroke-width="1.33333" stroke-dasharray="4 4"/>
<rect x="586.833" y="747.198" width="53.3333" height="53.3333" stroke="#1A1A1A" stroke-width="1.33333" stroke-dasharray="4 4"/>
<rect x="640.167" y="0.53125" width="53.3333" height="53.3333" stroke="#1A1A1A" stroke-width="1.33333" stroke-dasharray="4 4"/>
<rect x="640.167" y="53.8647" width="53.3333" height="53.3333" stroke="#1A1A1A" stroke-width="1.33333" stroke-dasharray="4 4"/>
<rect x="640.167" y="107.198" width="53.3333" height="53.3333" stroke="#1A1A1A" stroke-width="1.33333" stroke-dasharray="4 4"/>
<rect x="640.167" y="160.531" width="53.3333" height="53.3333" stroke="#1A1A1A" stroke-width="1.33333" stroke-dasharray="4 4"/>
<rect x="640.167" y="213.865" width="53.3333" height="53.3333" stroke="#1A1A1A" stroke-width="1.33333" stroke-dasharray="4 4"/>
<rect x="640.167" y="267.198" width="53.3333" height="53.3333" stroke="#1A1A1A" stroke-width="1.33333" stroke-dasharray="4 4"/>
<rect x="640.167" y="320.531" width="53.3333" height="53.3333" stroke="#1A1A1A" stroke-width="1.33333" stroke-dasharray="4 4"/>
<rect x="640.167" y="373.865" width="53.3333" height="53.3333" stroke="#1A1A1A" stroke-width="1.33333" stroke-dasharray="4 4"/>
<rect x="640.167" y="427.198" width="53.3333" height="53.3333" stroke="#1A1A1A" stroke-width="1.33333" stroke-dasharray="4 4"/>
<rect x="640.167" y="480.531" width="53.3333" height="53.3333" stroke="#1A1A1A" stroke-width="1.33333" stroke-dasharray="4 4"/>
<rect x="640.167" y="533.865" width="53.3333" height="53.3333" stroke="#1A1A1A" stroke-width="1.33333" stroke-dasharray="4 4"/>
<rect x="640.167" y="587.198" width="53.3333" height="53.3333" stroke="#1A1A1A" stroke-width="1.33333" stroke-dasharray="4 4"/>
<rect x="640.167" y="640.531" width="53.3333" height="53.3333" stroke="#1A1A1A" stroke-width="1.33333" stroke-dasharray="4 4"/>
<rect x="640.167" y="693.865" width="53.3333" height="53.3333" stroke="#1A1A1A" stroke-width="1.33333" stroke-dasharray="4 4"/>
<rect x="640.167" y="747.198" width="53.3333" height="53.3333" stroke="#1A1A1A" stroke-width="1.33333" stroke-dasharray="4 4"/>
<rect x="693.5" y="0.53125" width="53.3333" height="53.3333" stroke="#1A1A1A" stroke-width="1.33333" stroke-dasharray="4 4"/>
<rect x="693.5" y="53.8647" width="53.3333" height="53.3333" stroke="#1A1A1A" stroke-width="1.33333" stroke-dasharray="4 4"/>
<rect x="693.5" y="107.198" width="53.3333" height="53.3333" stroke="#1A1A1A" stroke-width="1.33333" stroke-dasharray="4 4"/>
<rect x="693.5" y="160.531" width="53.3333" height="53.3333" stroke="#1A1A1A" stroke-width="1.33333" stroke-dasharray="4 4"/>
<rect x="693.5" y="213.865" width="53.3333" height="53.3333" stroke="#1A1A1A" stroke-width="1.33333" stroke-dasharray="4 4"/>
<rect x="693.5" y="267.198" width="53.3333" height="53.3333" stroke="#1A1A1A" stroke-width="1.33333" stroke-dasharray="4 4"/>
<rect x="693.5" y="320.531" width="53.3333" height="53.3333" stroke="#1A1A1A" stroke-width="1.33333" stroke-dasharray="4 4"/>
<rect x="693.5" y="373.865" width="53.3333" height="53.3333" stroke="#1A1A1A" stroke-width="1.33333" stroke-dasharray="4 4"/>
<rect x="693.5" y="427.198" width="53.3333" height="53.3333" stroke="#1A1A1A" stroke-width="1.33333" stroke-dasharray="4 4"/>
<rect x="693.5" y="480.531" width="53.3333" height="53.3333" stroke="#1A1A1A" stroke-width="1.33333" stroke-dasharray="4 4"/>
<rect x="693.5" y="533.865" width="53.3333" height="53.3333" stroke="#1A1A1A" stroke-width="1.33333" stroke-dasharray="4 4"/>
<rect x="693.5" y="587.198" width="53.3333" height="53.3333" stroke="#1A1A1A" stroke-width="1.33333" stroke-dasharray="4 4"/>
<rect x="693.5" y="640.531" width="53.3333" height="53.3333" stroke="#1A1A1A" stroke-width="1.33333" stroke-dasharray="4 4"/>
<rect x="693.5" y="693.865" width="53.3333" height="53.3333" stroke="#1A1A1A" stroke-width="1.33333" stroke-dasharray="4 4"/>
<rect x="693.5" y="747.198" width="53.3333" height="53.3333" stroke="#1A1A1A" stroke-width="1.33333" stroke-dasharray="4 4"/>
<rect x="746.833" y="0.53125" width="53.3333" height="53.3333" stroke="#1A1A1A" stroke-width="1.33333" stroke-dasharray="4 4"/>
<rect x="746.833" y="53.8647" width="53.3333" height="53.3333" stroke="#1A1A1A" stroke-width="1.33333" stroke-dasharray="4 4"/>
<rect x="746.833" y="107.198" width="53.3333" height="53.3333" stroke="#1A1A1A" stroke-width="1.33333" stroke-dasharray="4 4"/>
<rect x="746.833" y="160.531" width="53.3333" height="53.3333" stroke="#1A1A1A" stroke-width="1.33333" stroke-dasharray="4 4"/>
<rect x="746.833" y="213.865" width="53.3333" height="53.3333" stroke="#1A1A1A" stroke-width="1.33333" stroke-dasharray="4 4"/>
<rect x="746.833" y="267.198" width="53.3333" height="53.3333" stroke="#1A1A1A" stroke-width="1.33333" stroke-dasharray="4 4"/>
<rect x="746.833" y="320.531" width="53.3333" height="53.3333" stroke="#1A1A1A" stroke-width="1.33333" stroke-dasharray="4 4"/>
<rect x="746.833" y="373.865" width="53.3333" height="53.3333" stroke="#1A1A1A" stroke-width="1.33333" stroke-dasharray="4 4"/>
<rect x="746.833" y="427.198" width="53.3333" height="53.3333" stroke="#1A1A1A" stroke-width="1.33333" stroke-dasharray="4 4"/>
<rect x="746.833" y="480.531" width="53.3333" height="53.3333" stroke="#1A1A1A" stroke-width="1.33333" stroke-dasharray="4 4"/>
<rect x="746.833" y="533.865" width="53.3333" height="53.3333" stroke="#1A1A1A" stroke-width="1.33333" stroke-dasharray="4 4"/>
<rect x="746.833" y="587.198" width="53.3333" height="53.3333" stroke="#1A1A1A" stroke-width="1.33333" stroke-dasharray="4 4"/>
<rect x="746.833" y="640.531" width="53.3333" height="53.3333" stroke="#1A1A1A" stroke-width="1.33333" stroke-dasharray="4 4"/>
<rect x="746.833" y="693.865" width="53.3333" height="53.3333" stroke="#1A1A1A" stroke-width="1.33333" stroke-dasharray="4 4"/>
<rect x="746.833" y="747.198" width="53.3333" height="53.3333" stroke="#1A1A1A" stroke-width="1.33333" stroke-dasharray="4 4"/>
<rect x="800.167" y="0.53125" width="53.3333" height="53.3333" stroke="#1A1A1A" stroke-width="1.33333" stroke-dasharray="4 4"/>
<rect x="800.167" y="53.8647" width="53.3333" height="53.3333" stroke="#1A1A1A" stroke-width="1.33333" stroke-dasharray="4 4"/>
<rect x="800.167" y="107.198" width="53.3333" height="53.3333" stroke="#1A1A1A" stroke-width="1.33333" stroke-dasharray="4 4"/>
<rect x="800.167" y="160.531" width="53.3333" height="53.3333" stroke="#1A1A1A" stroke-width="1.33333" stroke-dasharray="4 4"/>
<rect x="800.167" y="213.865" width="53.3333" height="53.3333" stroke="#1A1A1A" stroke-width="1.33333" stroke-dasharray="4 4"/>
<rect x="800.167" y="267.198" width="53.3333" height="53.3333" stroke="#1A1A1A" stroke-width="1.33333" stroke-dasharray="4 4"/>
<rect x="800.167" y="320.531" width="53.3333" height="53.3333" stroke="#1A1A1A" stroke-width="1.33333" stroke-dasharray="4 4"/>
<rect x="800.167" y="373.865" width="53.3333" height="53.3333" stroke="#1A1A1A" stroke-width="1.33333" stroke-dasharray="4 4"/>
<rect x="800.167" y="427.198" width="53.3333" height="53.3333" stroke="#1A1A1A" stroke-width="1.33333" stroke-dasharray="4 4"/>
<rect x="800.167" y="480.531" width="53.3333" height="53.3333" stroke="#1A1A1A" stroke-width="1.33333" stroke-dasharray="4 4"/>
<rect x="800.167" y="533.865" width="53.3333" height="53.3333" stroke="#1A1A1A" stroke-width="1.33333" stroke-dasharray="4 4"/>
<rect x="800.167" y="587.198" width="53.3333" height="53.3333" stroke="#1A1A1A" stroke-width="1.33333" stroke-dasharray="4 4"/>
<rect x="800.167" y="640.531" width="53.3333" height="53.3333" stroke="#1A1A1A" stroke-width="1.33333" stroke-dasharray="4 4"/>
<rect x="800.167" y="693.865" width="53.3333" height="53.3333" stroke="#1A1A1A" stroke-width="1.33333" stroke-dasharray="4 4"/>
<rect x="800.167" y="747.198" width="53.3333" height="53.3333" stroke="#1A1A1A" stroke-width="1.33333" stroke-dasharray="4 4"/>
</svg>
