<svg width="72" height="8172" viewBox="0 0 72 8172" fill="none" xmlns="http://www.w3.org/2000/svg">
<g clip-path="url(#clip0_80_5387)">
<mask id="path-1-inside-1_80_5387" fill="white">
<path d="M72 0H0V8172H72V0Z"/>
</mask>
<path d="M72 0H0V8172H72V0Z" fill="black"/>
<rect width="32" height="1" transform="matrix(-1 0 0 1 52.6674 20)" fill="#FF3604"/>
<rect width="32" height="1" transform="matrix(-1 0 0 1 52.6674 29)" fill="#FF3604"/>
<rect width="32" height="1" transform="matrix(-1 0 0 1 52.6674 38)" fill="#FF3604"/>
<rect width="32" height="1" transform="matrix(-1 0 0 1 52.6674 47)" fill="#1A1A1A"/>
<rect width="32" height="1" transform="matrix(-1 0 0 1 52.6674 56)" fill="#1A1A1A"/>
<rect width="32" height="1" transform="matrix(-1 0 0 1 52.6674 65)" fill="#1A1A1A"/>
<rect width="32" height="1" transform="matrix(-1 0 0 1 52.6674 74)" fill="#1A1A1A"/>
<rect width="32" height="1" transform="matrix(-1 0 0 1 52.6674 83)" fill="#1A1A1A"/>
<rect width="32" height="1" transform="matrix(-1 0 0 1 52.6674 92)" fill="#1A1A1A"/>
<rect width="32" height="1" transform="matrix(-1 0 0 1 52.6674 101)" fill="#1A1A1A"/>
<rect width="32" height="1" transform="matrix(-1 0 0 1 52.6674 110)" fill="#1A1A1A"/>
<rect width="32" height="1" transform="matrix(-1 0 0 1 52.6674 1370.33)" fill="#1A1A1A"/>
<rect width="32" height="1" transform="matrix(-1 0 0 1 52.6674 1703.67)" fill="#1A1A1A"/>
<rect width="32" height="1" transform="matrix(-1 0 0 1 52.6674 2037)" fill="#1A1A1A"/>
<rect width="32" height="1" transform="matrix(-1 0 0 1 52.6674 2370.33)" fill="#1A1A1A"/>
<rect width="32" height="1" transform="matrix(-1 0 0 1 52.6674 2703.67)" fill="#1A1A1A"/>
<rect width="32" height="1" transform="matrix(-1 0 0 1 52.6674 3037)" fill="#1A1A1A"/>
<rect width="32" height="1" transform="matrix(-1 0 0 1 52.6674 3370.33)" fill="#1A1A1A"/>
<rect width="32" height="1" transform="matrix(-1 0 0 1 52.6674 3703.67)" fill="#1A1A1A"/>
<rect width="32" height="1" transform="matrix(-1 0 0 1 52.6674 4037)" fill="#1A1A1A"/>
<rect width="32" height="1" transform="matrix(-1 0 0 1 52.6674 4370.33)" fill="#1A1A1A"/>
<rect width="32" height="1" transform="matrix(-1 0 0 1 52.6674 4703.67)" fill="#1A1A1A"/>
<rect width="32" height="1" transform="matrix(-1 0 0 1 52.6674 5037)" fill="#1A1A1A"/>
<rect width="32" height="1" transform="matrix(-1 0 0 1 52.6674 5370.33)" fill="#1A1A1A"/>
<rect width="32" height="1" transform="matrix(-1 0 0 1 52.6674 5703.67)" fill="#1A1A1A"/>
<rect width="32" height="1" transform="matrix(-1 0 0 1 52.6674 6037)" fill="#1A1A1A"/>
<rect width="32" height="1" transform="matrix(-1 0 0 1 52.6674 6370.33)" fill="#1A1A1A"/>
<rect width="32" height="1" transform="matrix(-1 0 0 1 52.6674 6703.67)" fill="#1A1A1A"/>
<rect width="32" height="1" transform="matrix(-1 0 0 1 52.6674 7037)" fill="#1A1A1A"/>
<rect width="32" height="1" transform="matrix(-1 0 0 1 52.6674 7370.33)" fill="#1A1A1A"/>
<rect width="32" height="1" transform="matrix(-1 0 0 1 52.6674 7703.67)" fill="#1A1A1A"/>
<rect width="32" height="1" transform="matrix(-1 0 0 1 52.6674 8037)" fill="#1A1A1A"/>
<rect width="32" height="1" transform="matrix(-1 0 0 1 52.6674 119)" fill="#1A1A1A"/>
<rect width="32" height="1" transform="matrix(-1 0 0 1 52.6674 1379.33)" fill="#1A1A1A"/>
<rect width="32" height="1" transform="matrix(-1 0 0 1 52.6674 1712.67)" fill="#1A1A1A"/>
<rect width="32" height="1" transform="matrix(-1 0 0 1 52.6674 2046)" fill="#1A1A1A"/>
<rect width="32" height="1" transform="matrix(-1 0 0 1 52.6674 2379.33)" fill="#1A1A1A"/>
<rect width="32" height="1" transform="matrix(-1 0 0 1 52.6674 2712.67)" fill="#1A1A1A"/>
<rect width="32" height="1" transform="matrix(-1 0 0 1 52.6674 3046)" fill="#1A1A1A"/>
<rect width="32" height="1" transform="matrix(-1 0 0 1 52.6674 3379.33)" fill="#1A1A1A"/>
<rect width="32" height="1" transform="matrix(-1 0 0 1 52.6674 3712.67)" fill="#1A1A1A"/>
<rect width="32" height="1" transform="matrix(-1 0 0 1 52.6674 4046)" fill="#1A1A1A"/>
<rect width="32" height="1" transform="matrix(-1 0 0 1 52.6674 4379.33)" fill="#1A1A1A"/>
<rect width="32" height="1" transform="matrix(-1 0 0 1 52.6674 4712.67)" fill="#1A1A1A"/>
<rect width="32" height="1" transform="matrix(-1 0 0 1 52.6674 5046)" fill="#1A1A1A"/>
<rect width="32" height="1" transform="matrix(-1 0 0 1 52.6674 5379.33)" fill="#1A1A1A"/>
<rect width="32" height="1" transform="matrix(-1 0 0 1 52.6674 5712.67)" fill="#1A1A1A"/>
<rect width="32" height="1" transform="matrix(-1 0 0 1 52.6674 6046)" fill="#1A1A1A"/>
<rect width="32" height="1" transform="matrix(-1 0 0 1 52.6674 6379.33)" fill="#1A1A1A"/>
<rect width="32" height="1" transform="matrix(-1 0 0 1 52.6674 6712.67)" fill="#1A1A1A"/>
<rect width="32" height="1" transform="matrix(-1 0 0 1 52.6674 7046)" fill="#1A1A1A"/>
<rect width="32" height="1" transform="matrix(-1 0 0 1 52.6674 7379.33)" fill="#1A1A1A"/>
<rect width="32" height="1" transform="matrix(-1 0 0 1 52.6674 7712.67)" fill="#1A1A1A"/>
<rect width="32" height="1" transform="matrix(-1 0 0 1 52.6674 8046)" fill="#1A1A1A"/>
<rect width="32" height="1" transform="matrix(-1 0 0 1 52.6674 128)" fill="#1A1A1A"/>
<rect width="32" height="1" transform="matrix(-1 0 0 1 52.6674 1388.33)" fill="#1A1A1A"/>
<rect width="32" height="1" transform="matrix(-1 0 0 1 52.6674 1721.67)" fill="#1A1A1A"/>
<rect width="32" height="1" transform="matrix(-1 0 0 1 52.6674 2055)" fill="#1A1A1A"/>
<rect width="32" height="1" transform="matrix(-1 0 0 1 52.6674 2388.33)" fill="#1A1A1A"/>
<rect width="32" height="1" transform="matrix(-1 0 0 1 52.6674 2721.67)" fill="#1A1A1A"/>
<rect width="32" height="1" transform="matrix(-1 0 0 1 52.6674 3055)" fill="#1A1A1A"/>
<rect width="32" height="1" transform="matrix(-1 0 0 1 52.6674 3388.33)" fill="#1A1A1A"/>
<rect width="32" height="1" transform="matrix(-1 0 0 1 52.6674 3721.67)" fill="#1A1A1A"/>
<rect width="32" height="1" transform="matrix(-1 0 0 1 52.6674 4055)" fill="#1A1A1A"/>
<rect width="32" height="1" transform="matrix(-1 0 0 1 52.6674 4388.33)" fill="#1A1A1A"/>
<rect width="32" height="1" transform="matrix(-1 0 0 1 52.6674 4721.67)" fill="#1A1A1A"/>
<rect width="32" height="1" transform="matrix(-1 0 0 1 52.6674 5055)" fill="#1A1A1A"/>
<rect width="32" height="1" transform="matrix(-1 0 0 1 52.6674 5388.33)" fill="#1A1A1A"/>
<rect width="32" height="1" transform="matrix(-1 0 0 1 52.6674 5721.67)" fill="#1A1A1A"/>
<rect width="32" height="1" transform="matrix(-1 0 0 1 52.6674 6055)" fill="#1A1A1A"/>
<rect width="32" height="1" transform="matrix(-1 0 0 1 52.6674 6388.33)" fill="#1A1A1A"/>
<rect width="32" height="1" transform="matrix(-1 0 0 1 52.6674 6721.67)" fill="#1A1A1A"/>
<rect width="32" height="1" transform="matrix(-1 0 0 1 52.6674 7055)" fill="#1A1A1A"/>
<rect width="32" height="1" transform="matrix(-1 0 0 1 52.6674 7388.33)" fill="#1A1A1A"/>
<rect width="32" height="1" transform="matrix(-1 0 0 1 52.6674 7721.67)" fill="#1A1A1A"/>
<rect width="32" height="1" transform="matrix(-1 0 0 1 52.6674 8055)" fill="#1A1A1A"/>
<rect width="32" height="1" transform="matrix(-1 0 0 1 52.6674 137)" fill="#1A1A1A"/>
<rect width="32" height="1" transform="matrix(-1 0 0 1 52.6674 1397.33)" fill="#1A1A1A"/>
<rect width="32" height="1" transform="matrix(-1 0 0 1 52.6674 1730.67)" fill="#1A1A1A"/>
<rect width="32" height="1" transform="matrix(-1 0 0 1 52.6674 2064)" fill="#1A1A1A"/>
<rect width="32" height="1" transform="matrix(-1 0 0 1 52.6674 2397.33)" fill="#1A1A1A"/>
<rect width="32" height="1" transform="matrix(-1 0 0 1 52.6674 2730.67)" fill="#1A1A1A"/>
<rect width="32" height="1" transform="matrix(-1 0 0 1 52.6674 3064)" fill="#1A1A1A"/>
<rect width="32" height="1" transform="matrix(-1 0 0 1 52.6674 3397.33)" fill="#1A1A1A"/>
<rect width="32" height="1" transform="matrix(-1 0 0 1 52.6674 3730.67)" fill="#1A1A1A"/>
<rect width="32" height="1" transform="matrix(-1 0 0 1 52.6674 4064)" fill="#1A1A1A"/>
<rect width="32" height="1" transform="matrix(-1 0 0 1 52.6674 4397.33)" fill="#1A1A1A"/>
<rect width="32" height="1" transform="matrix(-1 0 0 1 52.6674 4730.67)" fill="#1A1A1A"/>
<rect width="32" height="1" transform="matrix(-1 0 0 1 52.6674 5064)" fill="#1A1A1A"/>
<rect width="32" height="1" transform="matrix(-1 0 0 1 52.6674 5397.33)" fill="#1A1A1A"/>
<rect width="32" height="1" transform="matrix(-1 0 0 1 52.6674 5730.67)" fill="#1A1A1A"/>
<rect width="32" height="1" transform="matrix(-1 0 0 1 52.6674 6064)" fill="#1A1A1A"/>
<rect width="32" height="1" transform="matrix(-1 0 0 1 52.6674 6397.33)" fill="#1A1A1A"/>
<rect width="32" height="1" transform="matrix(-1 0 0 1 52.6674 6730.67)" fill="#1A1A1A"/>
<rect width="32" height="1" transform="matrix(-1 0 0 1 52.6674 7064)" fill="#1A1A1A"/>
<rect width="32" height="1" transform="matrix(-1 0 0 1 52.6674 7397.33)" fill="#1A1A1A"/>
<rect width="32" height="1" transform="matrix(-1 0 0 1 52.6674 7730.67)" fill="#1A1A1A"/>
<rect width="32" height="1" transform="matrix(-1 0 0 1 52.6674 8064)" fill="#1A1A1A"/>
<rect width="32" height="1" transform="matrix(-1 0 0 1 52.6674 146)" fill="#1A1A1A"/>
<rect width="32" height="1" transform="matrix(-1 0 0 1 52.6674 1406.33)" fill="#1A1A1A"/>
<rect width="32" height="1" transform="matrix(-1 0 0 1 52.6674 1739.67)" fill="#1A1A1A"/>
<rect width="32" height="1" transform="matrix(-1 0 0 1 52.6674 2073)" fill="#1A1A1A"/>
<rect width="32" height="1" transform="matrix(-1 0 0 1 52.6674 2406.33)" fill="#1A1A1A"/>
<rect width="32" height="1" transform="matrix(-1 0 0 1 52.6674 2739.67)" fill="#1A1A1A"/>
<rect width="32" height="1" transform="matrix(-1 0 0 1 52.6674 3073)" fill="#1A1A1A"/>
<rect width="32" height="1" transform="matrix(-1 0 0 1 52.6674 3406.33)" fill="#1A1A1A"/>
<rect width="32" height="1" transform="matrix(-1 0 0 1 52.6674 3739.67)" fill="#1A1A1A"/>
<rect width="32" height="1" transform="matrix(-1 0 0 1 52.6674 4073)" fill="#1A1A1A"/>
<rect width="32" height="1" transform="matrix(-1 0 0 1 52.6674 4406.33)" fill="#1A1A1A"/>
<rect width="32" height="1" transform="matrix(-1 0 0 1 52.6674 4739.67)" fill="#1A1A1A"/>
<rect width="32" height="1" transform="matrix(-1 0 0 1 52.6674 5073)" fill="#1A1A1A"/>
<rect width="32" height="1" transform="matrix(-1 0 0 1 52.6674 5406.33)" fill="#1A1A1A"/>
<rect width="32" height="1" transform="matrix(-1 0 0 1 52.6674 5739.67)" fill="#1A1A1A"/>
<rect width="32" height="1" transform="matrix(-1 0 0 1 52.6674 6073)" fill="#1A1A1A"/>
<rect width="32" height="1" transform="matrix(-1 0 0 1 52.6674 6406.33)" fill="#1A1A1A"/>
<rect width="32" height="1" transform="matrix(-1 0 0 1 52.6674 6739.67)" fill="#1A1A1A"/>
<rect width="32" height="1" transform="matrix(-1 0 0 1 52.6674 7073)" fill="#1A1A1A"/>
<rect width="32" height="1" transform="matrix(-1 0 0 1 52.6674 7406.33)" fill="#1A1A1A"/>
<rect width="32" height="1" transform="matrix(-1 0 0 1 52.6674 7739.67)" fill="#1A1A1A"/>
<rect width="32" height="1" transform="matrix(-1 0 0 1 52.6674 8073)" fill="#1A1A1A"/>
<rect width="32" height="1" transform="matrix(-1 0 0 1 52.6674 155)" fill="#1A1A1A"/>
<rect width="32" height="1" transform="matrix(-1 0 0 1 52.6674 1415.33)" fill="#1A1A1A"/>
<rect width="32" height="1" transform="matrix(-1 0 0 1 52.6674 1748.67)" fill="#1A1A1A"/>
<rect width="32" height="1" transform="matrix(-1 0 0 1 52.6674 2082)" fill="#1A1A1A"/>
<rect width="32" height="1" transform="matrix(-1 0 0 1 52.6674 2415.33)" fill="#1A1A1A"/>
<rect width="32" height="1" transform="matrix(-1 0 0 1 52.6674 2748.67)" fill="#1A1A1A"/>
<rect width="32" height="1" transform="matrix(-1 0 0 1 52.6674 3082)" fill="#1A1A1A"/>
<rect width="32" height="1" transform="matrix(-1 0 0 1 52.6674 3415.33)" fill="#1A1A1A"/>
<rect width="32" height="1" transform="matrix(-1 0 0 1 52.6674 3748.67)" fill="#1A1A1A"/>
<rect width="32" height="1" transform="matrix(-1 0 0 1 52.6674 4082)" fill="#1A1A1A"/>
<rect width="32" height="1" transform="matrix(-1 0 0 1 52.6674 4415.33)" fill="#1A1A1A"/>
<rect width="32" height="1" transform="matrix(-1 0 0 1 52.6674 4748.67)" fill="#1A1A1A"/>
<rect width="32" height="1" transform="matrix(-1 0 0 1 52.6674 5082)" fill="#1A1A1A"/>
<rect width="32" height="1" transform="matrix(-1 0 0 1 52.6674 5415.33)" fill="#1A1A1A"/>
<rect width="32" height="1" transform="matrix(-1 0 0 1 52.6674 5748.67)" fill="#1A1A1A"/>
<rect width="32" height="1" transform="matrix(-1 0 0 1 52.6674 6082)" fill="#1A1A1A"/>
<rect width="32" height="1" transform="matrix(-1 0 0 1 52.6674 6415.33)" fill="#1A1A1A"/>
<rect width="32" height="1" transform="matrix(-1 0 0 1 52.6674 6748.67)" fill="#1A1A1A"/>
<rect width="32" height="1" transform="matrix(-1 0 0 1 52.6674 7082)" fill="#1A1A1A"/>
<rect width="32" height="1" transform="matrix(-1 0 0 1 52.6674 7415.33)" fill="#1A1A1A"/>
<rect width="32" height="1" transform="matrix(-1 0 0 1 52.6674 7748.67)" fill="#1A1A1A"/>
<rect width="32" height="1" transform="matrix(-1 0 0 1 52.6674 8082)" fill="#1A1A1A"/>
<rect width="32" height="1" transform="matrix(-1 0 0 1 52.6674 164)" fill="#1A1A1A"/>
<rect width="32" height="1" transform="matrix(-1 0 0 1 52.6674 1424.33)" fill="#1A1A1A"/>
<rect width="32" height="1" transform="matrix(-1 0 0 1 52.6674 1757.67)" fill="#1A1A1A"/>
<rect width="32" height="1" transform="matrix(-1 0 0 1 52.6674 2091)" fill="#1A1A1A"/>
<rect width="32" height="1" transform="matrix(-1 0 0 1 52.6674 2424.33)" fill="#1A1A1A"/>
<rect width="32" height="1" transform="matrix(-1 0 0 1 52.6674 2757.67)" fill="#1A1A1A"/>
<rect width="32" height="1" transform="matrix(-1 0 0 1 52.6674 3091)" fill="#1A1A1A"/>
<rect width="32" height="1" transform="matrix(-1 0 0 1 52.6674 3424.33)" fill="#1A1A1A"/>
<rect width="32" height="1" transform="matrix(-1 0 0 1 52.6674 3757.67)" fill="#1A1A1A"/>
<rect width="32" height="1" transform="matrix(-1 0 0 1 52.6674 4091)" fill="#1A1A1A"/>
<rect width="32" height="1" transform="matrix(-1 0 0 1 52.6674 4424.33)" fill="#1A1A1A"/>
<rect width="32" height="1" transform="matrix(-1 0 0 1 52.6674 4757.67)" fill="#1A1A1A"/>
<rect width="32" height="1" transform="matrix(-1 0 0 1 52.6674 5091)" fill="#1A1A1A"/>
<rect width="32" height="1" transform="matrix(-1 0 0 1 52.6674 5424.33)" fill="#1A1A1A"/>
<rect width="32" height="1" transform="matrix(-1 0 0 1 52.6674 5757.67)" fill="#1A1A1A"/>
<rect width="32" height="1" transform="matrix(-1 0 0 1 52.6674 6091)" fill="#1A1A1A"/>
<rect width="32" height="1" transform="matrix(-1 0 0 1 52.6674 6424.33)" fill="#1A1A1A"/>
<rect width="32" height="1" transform="matrix(-1 0 0 1 52.6674 6757.67)" fill="#1A1A1A"/>
<rect width="32" height="1" transform="matrix(-1 0 0 1 52.6674 7091)" fill="#1A1A1A"/>
<rect width="32" height="1" transform="matrix(-1 0 0 1 52.6674 7424.33)" fill="#1A1A1A"/>
<rect width="32" height="1" transform="matrix(-1 0 0 1 52.6674 7757.67)" fill="#1A1A1A"/>
<rect width="32" height="1" transform="matrix(-1 0 0 1 52.6674 8091)" fill="#1A1A1A"/>
<rect width="32" height="1" transform="matrix(-1 0 0 1 52.6674 173)" fill="#1A1A1A"/>
<rect width="32" height="1" transform="matrix(-1 0 0 1 52.6674 1433.33)" fill="#1A1A1A"/>
<rect width="32" height="1" transform="matrix(-1 0 0 1 52.6674 1766.67)" fill="#1A1A1A"/>
<rect width="32" height="1" transform="matrix(-1 0 0 1 52.6674 2100)" fill="#1A1A1A"/>
<rect width="32" height="1" transform="matrix(-1 0 0 1 52.6674 2433.33)" fill="#1A1A1A"/>
<rect width="32" height="1" transform="matrix(-1 0 0 1 52.6674 2766.67)" fill="#1A1A1A"/>
<rect width="32" height="1" transform="matrix(-1 0 0 1 52.6674 3100)" fill="#1A1A1A"/>
<rect width="32" height="1" transform="matrix(-1 0 0 1 52.6674 3433.33)" fill="#1A1A1A"/>
<rect width="32" height="1" transform="matrix(-1 0 0 1 52.6674 3766.67)" fill="#1A1A1A"/>
<rect width="32" height="1" transform="matrix(-1 0 0 1 52.6674 4100)" fill="#1A1A1A"/>
<rect width="32" height="1" transform="matrix(-1 0 0 1 52.6674 4433.33)" fill="#1A1A1A"/>
<rect width="32" height="1" transform="matrix(-1 0 0 1 52.6674 4766.67)" fill="#1A1A1A"/>
<rect width="32" height="1" transform="matrix(-1 0 0 1 52.6674 5100)" fill="#1A1A1A"/>
<rect width="32" height="1" transform="matrix(-1 0 0 1 52.6674 5433.33)" fill="#1A1A1A"/>
<rect width="32" height="1" transform="matrix(-1 0 0 1 52.6674 5766.67)" fill="#1A1A1A"/>
<rect width="32" height="1" transform="matrix(-1 0 0 1 52.6674 6100)" fill="#1A1A1A"/>
<rect width="32" height="1" transform="matrix(-1 0 0 1 52.6674 6433.33)" fill="#1A1A1A"/>
<rect width="32" height="1" transform="matrix(-1 0 0 1 52.6674 6766.67)" fill="#1A1A1A"/>
<rect width="32" height="1" transform="matrix(-1 0 0 1 52.6674 7100)" fill="#1A1A1A"/>
<rect width="32" height="1" transform="matrix(-1 0 0 1 52.6674 7433.33)" fill="#1A1A1A"/>
<rect width="32" height="1" transform="matrix(-1 0 0 1 52.6674 7766.67)" fill="#1A1A1A"/>
<rect width="32" height="1" transform="matrix(-1 0 0 1 52.6674 8100)" fill="#1A1A1A"/>
<rect width="32" height="1" transform="matrix(-1 0 0 1 52.6674 182)" fill="#1A1A1A"/>
<rect width="32" height="1" transform="matrix(-1 0 0 1 52.6674 1442.33)" fill="#1A1A1A"/>
<rect width="32" height="1" transform="matrix(-1 0 0 1 52.6674 1775.67)" fill="#1A1A1A"/>
<rect width="32" height="1" transform="matrix(-1 0 0 1 52.6674 2109)" fill="#1A1A1A"/>
<rect width="32" height="1" transform="matrix(-1 0 0 1 52.6674 2442.33)" fill="#1A1A1A"/>
<rect width="32" height="1" transform="matrix(-1 0 0 1 52.6674 2775.67)" fill="#1A1A1A"/>
<rect width="32" height="1" transform="matrix(-1 0 0 1 52.6674 3109)" fill="#1A1A1A"/>
<rect width="32" height="1" transform="matrix(-1 0 0 1 52.6674 3442.33)" fill="#1A1A1A"/>
<rect width="32" height="1" transform="matrix(-1 0 0 1 52.6674 3775.67)" fill="#1A1A1A"/>
<rect width="32" height="1" transform="matrix(-1 0 0 1 52.6674 4109)" fill="#1A1A1A"/>
<rect width="32" height="1" transform="matrix(-1 0 0 1 52.6674 4442.33)" fill="#1A1A1A"/>
<rect width="32" height="1" transform="matrix(-1 0 0 1 52.6674 4775.67)" fill="#1A1A1A"/>
<rect width="32" height="1" transform="matrix(-1 0 0 1 52.6674 5109)" fill="#1A1A1A"/>
<rect width="32" height="1" transform="matrix(-1 0 0 1 52.6674 5442.33)" fill="#1A1A1A"/>
<rect width="32" height="1" transform="matrix(-1 0 0 1 52.6674 5775.67)" fill="#1A1A1A"/>
<rect width="32" height="1" transform="matrix(-1 0 0 1 52.6674 6109)" fill="#1A1A1A"/>
<rect width="32" height="1" transform="matrix(-1 0 0 1 52.6674 6442.33)" fill="#1A1A1A"/>
<rect width="32" height="1" transform="matrix(-1 0 0 1 52.6674 6775.67)" fill="#1A1A1A"/>
<rect width="32" height="1" transform="matrix(-1 0 0 1 52.6674 7109)" fill="#1A1A1A"/>
<rect width="32" height="1" transform="matrix(-1 0 0 1 52.6674 7442.33)" fill="#1A1A1A"/>
<rect width="32" height="1" transform="matrix(-1 0 0 1 52.6674 7775.67)" fill="#1A1A1A"/>
<rect width="32" height="1" transform="matrix(-1 0 0 1 52.6674 8109)" fill="#1A1A1A"/>
<rect width="32" height="1" transform="matrix(-1 0 0 1 52.6674 191)" fill="#1A1A1A"/>
<rect width="32" height="1" transform="matrix(-1 0 0 1 52.6674 1451.33)" fill="#1A1A1A"/>
<rect width="32" height="1" transform="matrix(-1 0 0 1 52.6674 1784.67)" fill="#1A1A1A"/>
<rect width="32" height="1" transform="matrix(-1 0 0 1 52.6674 2118)" fill="#1A1A1A"/>
<rect width="32" height="1" transform="matrix(-1 0 0 1 52.6674 2451.33)" fill="#1A1A1A"/>
<rect width="32" height="1" transform="matrix(-1 0 0 1 52.6674 2784.67)" fill="#1A1A1A"/>
<rect width="32" height="1" transform="matrix(-1 0 0 1 52.6674 3118)" fill="#1A1A1A"/>
<rect width="32" height="1" transform="matrix(-1 0 0 1 52.6674 3451.33)" fill="#1A1A1A"/>
<rect width="32" height="1" transform="matrix(-1 0 0 1 52.6674 3784.67)" fill="#1A1A1A"/>
<rect width="32" height="1" transform="matrix(-1 0 0 1 52.6674 4118)" fill="#1A1A1A"/>
<rect width="32" height="1" transform="matrix(-1 0 0 1 52.6674 4451.33)" fill="#1A1A1A"/>
<rect width="32" height="1" transform="matrix(-1 0 0 1 52.6674 4784.67)" fill="#1A1A1A"/>
<rect width="32" height="1" transform="matrix(-1 0 0 1 52.6674 5118)" fill="#1A1A1A"/>
<rect width="32" height="1" transform="matrix(-1 0 0 1 52.6674 5451.33)" fill="#1A1A1A"/>
<rect width="32" height="1" transform="matrix(-1 0 0 1 52.6674 5784.67)" fill="#1A1A1A"/>
<rect width="32" height="1" transform="matrix(-1 0 0 1 52.6674 6118)" fill="#1A1A1A"/>
<rect width="32" height="1" transform="matrix(-1 0 0 1 52.6674 6451.33)" fill="#1A1A1A"/>
<rect width="32" height="1" transform="matrix(-1 0 0 1 52.6674 6784.67)" fill="#1A1A1A"/>
<rect width="32" height="1" transform="matrix(-1 0 0 1 52.6674 7118)" fill="#1A1A1A"/>
<rect width="32" height="1" transform="matrix(-1 0 0 1 52.6674 7451.33)" fill="#1A1A1A"/>
<rect width="32" height="1" transform="matrix(-1 0 0 1 52.6674 7784.67)" fill="#1A1A1A"/>
<rect width="32" height="1" transform="matrix(-1 0 0 1 52.6674 8118)" fill="#1A1A1A"/>
<rect width="32" height="1" transform="matrix(-1 0 0 1 52.6674 200)" fill="#1A1A1A"/>
<rect width="32" height="1" transform="matrix(-1 0 0 1 52.6674 1460.33)" fill="#1A1A1A"/>
<rect width="32" height="1" transform="matrix(-1 0 0 1 52.6674 1793.67)" fill="#1A1A1A"/>
<rect width="32" height="1" transform="matrix(-1 0 0 1 52.6674 2127)" fill="#1A1A1A"/>
<rect width="32" height="1" transform="matrix(-1 0 0 1 52.6674 2460.33)" fill="#1A1A1A"/>
<rect width="32" height="1" transform="matrix(-1 0 0 1 52.6674 2793.67)" fill="#1A1A1A"/>
<rect width="32" height="1" transform="matrix(-1 0 0 1 52.6674 3127)" fill="#1A1A1A"/>
<rect width="32" height="1" transform="matrix(-1 0 0 1 52.6674 3460.33)" fill="#1A1A1A"/>
<rect width="32" height="1" transform="matrix(-1 0 0 1 52.6674 3793.67)" fill="#1A1A1A"/>
<rect width="32" height="1" transform="matrix(-1 0 0 1 52.6674 4127)" fill="#1A1A1A"/>
<rect width="32" height="1" transform="matrix(-1 0 0 1 52.6674 4460.33)" fill="#1A1A1A"/>
<rect width="32" height="1" transform="matrix(-1 0 0 1 52.6674 4793.67)" fill="#1A1A1A"/>
<rect width="32" height="1" transform="matrix(-1 0 0 1 52.6674 5127)" fill="#1A1A1A"/>
<rect width="32" height="1" transform="matrix(-1 0 0 1 52.6674 5460.33)" fill="#1A1A1A"/>
<rect width="32" height="1" transform="matrix(-1 0 0 1 52.6674 5793.67)" fill="#1A1A1A"/>
<rect width="32" height="1" transform="matrix(-1 0 0 1 52.6674 6127)" fill="#1A1A1A"/>
<rect width="32" height="1" transform="matrix(-1 0 0 1 52.6674 6460.33)" fill="#1A1A1A"/>
<rect width="32" height="1" transform="matrix(-1 0 0 1 52.6674 6793.67)" fill="#1A1A1A"/>
<rect width="32" height="1" transform="matrix(-1 0 0 1 52.6674 7127)" fill="#1A1A1A"/>
<rect width="32" height="1" transform="matrix(-1 0 0 1 52.6674 7460.33)" fill="#1A1A1A"/>
<rect width="32" height="1" transform="matrix(-1 0 0 1 52.6674 7793.67)" fill="#1A1A1A"/>
<rect width="32" height="1" transform="matrix(-1 0 0 1 52.6674 8127)" fill="#1A1A1A"/>
<rect width="32" height="1" transform="matrix(-1 0 0 1 52.6674 209)" fill="#1A1A1A"/>
<rect width="32" height="1" transform="matrix(-1 0 0 1 52.6674 1469.33)" fill="#1A1A1A"/>
<rect width="32" height="1" transform="matrix(-1 0 0 1 52.6674 1802.67)" fill="#1A1A1A"/>
<rect width="32" height="1" transform="matrix(-1 0 0 1 52.6674 2136)" fill="#1A1A1A"/>
<rect width="32" height="1" transform="matrix(-1 0 0 1 52.6674 2469.33)" fill="#1A1A1A"/>
<rect width="32" height="1" transform="matrix(-1 0 0 1 52.6674 2802.67)" fill="#1A1A1A"/>
<rect width="32" height="1" transform="matrix(-1 0 0 1 52.6674 3136)" fill="#1A1A1A"/>
<rect width="32" height="1" transform="matrix(-1 0 0 1 52.6674 3469.33)" fill="#1A1A1A"/>
<rect width="32" height="1" transform="matrix(-1 0 0 1 52.6674 3802.67)" fill="#1A1A1A"/>
<rect width="32" height="1" transform="matrix(-1 0 0 1 52.6674 4136)" fill="#1A1A1A"/>
<rect width="32" height="1" transform="matrix(-1 0 0 1 52.6674 4469.33)" fill="#1A1A1A"/>
<rect width="32" height="1" transform="matrix(-1 0 0 1 52.6674 4802.67)" fill="#1A1A1A"/>
<rect width="32" height="1" transform="matrix(-1 0 0 1 52.6674 5136)" fill="#1A1A1A"/>
<rect width="32" height="1" transform="matrix(-1 0 0 1 52.6674 5469.33)" fill="#1A1A1A"/>
<rect width="32" height="1" transform="matrix(-1 0 0 1 52.6674 5802.67)" fill="#1A1A1A"/>
<rect width="32" height="1" transform="matrix(-1 0 0 1 52.6674 6136)" fill="#1A1A1A"/>
<rect width="32" height="1" transform="matrix(-1 0 0 1 52.6674 6469.33)" fill="#1A1A1A"/>
<rect width="32" height="1" transform="matrix(-1 0 0 1 52.6674 6802.67)" fill="#1A1A1A"/>
<rect width="32" height="1" transform="matrix(-1 0 0 1 52.6674 7136)" fill="#1A1A1A"/>
<rect width="32" height="1" transform="matrix(-1 0 0 1 52.6674 7469.33)" fill="#1A1A1A"/>
<rect width="32" height="1" transform="matrix(-1 0 0 1 52.6674 7802.67)" fill="#1A1A1A"/>
<rect width="32" height="1" transform="matrix(-1 0 0 1 52.6674 8136)" fill="#1A1A1A"/>
<rect width="32" height="1" transform="matrix(-1 0 0 1 52.6674 218)" fill="#1A1A1A"/>
<rect width="32" height="1" transform="matrix(-1 0 0 1 52.6674 1478.33)" fill="#1A1A1A"/>
<rect width="32" height="1" transform="matrix(-1 0 0 1 52.6674 1811.67)" fill="#1A1A1A"/>
<rect width="32" height="1" transform="matrix(-1 0 0 1 52.6674 2145)" fill="#1A1A1A"/>
<rect width="32" height="1" transform="matrix(-1 0 0 1 52.6674 2478.33)" fill="#1A1A1A"/>
<rect width="32" height="1" transform="matrix(-1 0 0 1 52.6674 2811.67)" fill="#1A1A1A"/>
<rect width="32" height="1" transform="matrix(-1 0 0 1 52.6674 3145)" fill="#1A1A1A"/>
<rect width="32" height="1" transform="matrix(-1 0 0 1 52.6674 3478.33)" fill="#1A1A1A"/>
<rect width="32" height="1" transform="matrix(-1 0 0 1 52.6674 3811.67)" fill="#1A1A1A"/>
<rect width="32" height="1" transform="matrix(-1 0 0 1 52.6674 4145)" fill="#1A1A1A"/>
<rect width="32" height="1" transform="matrix(-1 0 0 1 52.6674 4478.33)" fill="#1A1A1A"/>
<rect width="32" height="1" transform="matrix(-1 0 0 1 52.6674 4811.67)" fill="#1A1A1A"/>
<rect width="32" height="1" transform="matrix(-1 0 0 1 52.6674 5145)" fill="#1A1A1A"/>
<rect width="32" height="1" transform="matrix(-1 0 0 1 52.6674 5478.33)" fill="#1A1A1A"/>
<rect width="32" height="1" transform="matrix(-1 0 0 1 52.6674 5811.67)" fill="#1A1A1A"/>
<rect width="32" height="1" transform="matrix(-1 0 0 1 52.6674 6145)" fill="#1A1A1A"/>
<rect width="32" height="1" transform="matrix(-1 0 0 1 52.6674 6478.33)" fill="#1A1A1A"/>
<rect width="32" height="1" transform="matrix(-1 0 0 1 52.6674 6811.67)" fill="#1A1A1A"/>
<rect width="32" height="1" transform="matrix(-1 0 0 1 52.6674 7145)" fill="#1A1A1A"/>
<rect width="32" height="1" transform="matrix(-1 0 0 1 52.6674 7478.33)" fill="#1A1A1A"/>
<rect width="32" height="1" transform="matrix(-1 0 0 1 52.6674 7811.67)" fill="#1A1A1A"/>
<rect width="32" height="1" transform="matrix(-1 0 0 1 52.6674 8145)" fill="#1A1A1A"/>
<rect width="32" height="1" transform="matrix(-1 0 0 1 52.6674 227)" fill="#1A1A1A"/>
<rect width="32" height="1" transform="matrix(-1 0 0 1 52.6674 1487.33)" fill="#1A1A1A"/>
<rect width="32" height="1" transform="matrix(-1 0 0 1 52.6674 1820.67)" fill="#1A1A1A"/>
<rect width="32" height="1" transform="matrix(-1 0 0 1 52.6674 2154)" fill="#1A1A1A"/>
<rect width="32" height="1" transform="matrix(-1 0 0 1 52.6674 2487.33)" fill="#1A1A1A"/>
<rect width="32" height="1" transform="matrix(-1 0 0 1 52.6674 2820.67)" fill="#1A1A1A"/>
<rect width="32" height="1" transform="matrix(-1 0 0 1 52.6674 3154)" fill="#1A1A1A"/>
<rect width="32" height="1" transform="matrix(-1 0 0 1 52.6674 3487.33)" fill="#1A1A1A"/>
<rect width="32" height="1" transform="matrix(-1 0 0 1 52.6674 3820.67)" fill="#1A1A1A"/>
<rect width="32" height="1" transform="matrix(-1 0 0 1 52.6674 4154)" fill="#1A1A1A"/>
<rect width="32" height="1" transform="matrix(-1 0 0 1 52.6674 4487.33)" fill="#1A1A1A"/>
<rect width="32" height="1" transform="matrix(-1 0 0 1 52.6674 4820.67)" fill="#1A1A1A"/>
<rect width="32" height="1" transform="matrix(-1 0 0 1 52.6674 5154)" fill="#1A1A1A"/>
<rect width="32" height="1" transform="matrix(-1 0 0 1 52.6674 5487.33)" fill="#1A1A1A"/>
<rect width="32" height="1" transform="matrix(-1 0 0 1 52.6674 5820.67)" fill="#1A1A1A"/>
<rect width="32" height="1" transform="matrix(-1 0 0 1 52.6674 6154)" fill="#1A1A1A"/>
<rect width="32" height="1" transform="matrix(-1 0 0 1 52.6674 6487.33)" fill="#1A1A1A"/>
<rect width="32" height="1" transform="matrix(-1 0 0 1 52.6674 6820.67)" fill="#1A1A1A"/>
<rect width="32" height="1" transform="matrix(-1 0 0 1 52.6674 7154)" fill="#1A1A1A"/>
<rect width="32" height="1" transform="matrix(-1 0 0 1 52.6674 7487.33)" fill="#1A1A1A"/>
<rect width="32" height="1" transform="matrix(-1 0 0 1 52.6674 7820.67)" fill="#1A1A1A"/>
<rect width="32" height="1" transform="matrix(-1 0 0 1 52.6674 8154)" fill="#1A1A1A"/>
<rect width="32" height="1" transform="matrix(-1 0 0 1 52.6674 236)" fill="#1A1A1A"/>
<rect width="32" height="1" transform="matrix(-1 0 0 1 52.6674 1496.33)" fill="#1A1A1A"/>
<rect width="32" height="1" transform="matrix(-1 0 0 1 52.6674 1829.67)" fill="#1A1A1A"/>
<rect width="32" height="1" transform="matrix(-1 0 0 1 52.6674 2163)" fill="#1A1A1A"/>
<rect width="32" height="1" transform="matrix(-1 0 0 1 52.6674 2496.33)" fill="#1A1A1A"/>
<rect width="32" height="1" transform="matrix(-1 0 0 1 52.6674 2829.67)" fill="#1A1A1A"/>
<rect width="32" height="1" transform="matrix(-1 0 0 1 52.6674 3163)" fill="#1A1A1A"/>
<rect width="32" height="1" transform="matrix(-1 0 0 1 52.6674 3496.33)" fill="#1A1A1A"/>
<rect width="32" height="1" transform="matrix(-1 0 0 1 52.6674 3829.67)" fill="#1A1A1A"/>
<rect width="32" height="1" transform="matrix(-1 0 0 1 52.6674 4163)" fill="#1A1A1A"/>
<rect width="32" height="1" transform="matrix(-1 0 0 1 52.6674 4496.33)" fill="#1A1A1A"/>
<rect width="32" height="1" transform="matrix(-1 0 0 1 52.6674 4829.67)" fill="#1A1A1A"/>
<rect width="32" height="1" transform="matrix(-1 0 0 1 52.6674 5163)" fill="#1A1A1A"/>
<rect width="32" height="1" transform="matrix(-1 0 0 1 52.6674 5496.33)" fill="#1A1A1A"/>
<rect width="32" height="1" transform="matrix(-1 0 0 1 52.6674 5829.67)" fill="#1A1A1A"/>
<rect width="32" height="1" transform="matrix(-1 0 0 1 52.6674 6163)" fill="#1A1A1A"/>
<rect width="32" height="1" transform="matrix(-1 0 0 1 52.6674 6496.33)" fill="#1A1A1A"/>
<rect width="32" height="1" transform="matrix(-1 0 0 1 52.6674 6829.67)" fill="#1A1A1A"/>
<rect width="32" height="1" transform="matrix(-1 0 0 1 52.6674 7163)" fill="#1A1A1A"/>
<rect width="32" height="1" transform="matrix(-1 0 0 1 52.6674 7496.33)" fill="#1A1A1A"/>
<rect width="32" height="1" transform="matrix(-1 0 0 1 52.6674 7829.67)" fill="#1A1A1A"/>
<rect width="32" height="1" transform="matrix(-1 0 0 1 52.6674 8163)" fill="#1A1A1A"/>
<rect width="32" height="1" transform="matrix(-1 0 0 1 52.6674 245)" fill="#1A1A1A"/>
<rect width="32" height="1" transform="matrix(-1 0 0 1 52.6674 1505.33)" fill="#1A1A1A"/>
<rect width="32" height="1" transform="matrix(-1 0 0 1 52.6674 1838.67)" fill="#1A1A1A"/>
<rect width="32" height="1" transform="matrix(-1 0 0 1 52.6674 2172)" fill="#1A1A1A"/>
<rect width="32" height="1" transform="matrix(-1 0 0 1 52.6674 2505.33)" fill="#1A1A1A"/>
<rect width="32" height="1" transform="matrix(-1 0 0 1 52.6674 2838.67)" fill="#1A1A1A"/>
<rect width="32" height="1" transform="matrix(-1 0 0 1 52.6674 3172)" fill="#1A1A1A"/>
<rect width="32" height="1" transform="matrix(-1 0 0 1 52.6674 3505.33)" fill="#1A1A1A"/>
<rect width="32" height="1" transform="matrix(-1 0 0 1 52.6674 3838.67)" fill="#1A1A1A"/>
<rect width="32" height="1" transform="matrix(-1 0 0 1 52.6674 4172)" fill="#1A1A1A"/>
<rect width="32" height="1" transform="matrix(-1 0 0 1 52.6674 4505.33)" fill="#1A1A1A"/>
<rect width="32" height="1" transform="matrix(-1 0 0 1 52.6674 4838.67)" fill="#1A1A1A"/>
<rect width="32" height="1" transform="matrix(-1 0 0 1 52.6674 5172)" fill="#1A1A1A"/>
<rect width="32" height="1" transform="matrix(-1 0 0 1 52.6674 5505.33)" fill="#1A1A1A"/>
<rect width="32" height="1" transform="matrix(-1 0 0 1 52.6674 5838.67)" fill="#1A1A1A"/>
<rect width="32" height="1" transform="matrix(-1 0 0 1 52.6674 6172)" fill="#1A1A1A"/>
<rect width="32" height="1" transform="matrix(-1 0 0 1 52.6674 6505.33)" fill="#1A1A1A"/>
<rect width="32" height="1" transform="matrix(-1 0 0 1 52.6674 6838.67)" fill="#1A1A1A"/>
<rect width="32" height="1" transform="matrix(-1 0 0 1 52.6674 7172)" fill="#1A1A1A"/>
<rect width="32" height="1" transform="matrix(-1 0 0 1 52.6674 7505.33)" fill="#1A1A1A"/>
<rect width="32" height="1" transform="matrix(-1 0 0 1 52.6674 7838.67)" fill="#1A1A1A"/>
<rect width="32" height="1" transform="matrix(-1 0 0 1 52.6674 254)" fill="#1A1A1A"/>
<rect width="32" height="1" transform="matrix(-1 0 0 1 52.6674 1514.33)" fill="#1A1A1A"/>
<rect width="32" height="1" transform="matrix(-1 0 0 1 52.6674 1847.67)" fill="#1A1A1A"/>
<rect width="32" height="1" transform="matrix(-1 0 0 1 52.6674 2181)" fill="#1A1A1A"/>
<rect width="32" height="1" transform="matrix(-1 0 0 1 52.6674 2514.33)" fill="#1A1A1A"/>
<rect width="32" height="1" transform="matrix(-1 0 0 1 52.6674 2847.67)" fill="#1A1A1A"/>
<rect width="32" height="1" transform="matrix(-1 0 0 1 52.6674 3181)" fill="#1A1A1A"/>
<rect width="32" height="1" transform="matrix(-1 0 0 1 52.6674 3514.33)" fill="#1A1A1A"/>
<rect width="32" height="1" transform="matrix(-1 0 0 1 52.6674 3847.67)" fill="#1A1A1A"/>
<rect width="32" height="1" transform="matrix(-1 0 0 1 52.6674 4181)" fill="#1A1A1A"/>
<rect width="32" height="1" transform="matrix(-1 0 0 1 52.6674 4514.33)" fill="#1A1A1A"/>
<rect width="32" height="1" transform="matrix(-1 0 0 1 52.6674 4847.67)" fill="#1A1A1A"/>
<rect width="32" height="1" transform="matrix(-1 0 0 1 52.6674 5181)" fill="#1A1A1A"/>
<rect width="32" height="1" transform="matrix(-1 0 0 1 52.6674 5514.33)" fill="#1A1A1A"/>
<rect width="32" height="1" transform="matrix(-1 0 0 1 52.6674 5847.67)" fill="#1A1A1A"/>
<rect width="32" height="1" transform="matrix(-1 0 0 1 52.6674 6181)" fill="#1A1A1A"/>
<rect width="32" height="1" transform="matrix(-1 0 0 1 52.6674 6514.33)" fill="#1A1A1A"/>
<rect width="32" height="1" transform="matrix(-1 0 0 1 52.6674 6847.67)" fill="#1A1A1A"/>
<rect width="32" height="1" transform="matrix(-1 0 0 1 52.6674 7181)" fill="#1A1A1A"/>
<rect width="32" height="1" transform="matrix(-1 0 0 1 52.6674 7514.33)" fill="#1A1A1A"/>
<rect width="32" height="1" transform="matrix(-1 0 0 1 52.6674 7847.67)" fill="#1A1A1A"/>
<rect width="32" height="1" transform="matrix(-1 0 0 1 52.6674 263)" fill="#1A1A1A"/>
<rect width="32" height="1" transform="matrix(-1 0 0 1 52.6674 1523.33)" fill="#1A1A1A"/>
<rect width="32" height="1" transform="matrix(-1 0 0 1 52.6674 1856.67)" fill="#1A1A1A"/>
<rect width="32" height="1" transform="matrix(-1 0 0 1 52.6674 2190)" fill="#1A1A1A"/>
<rect width="32" height="1" transform="matrix(-1 0 0 1 52.6674 2523.33)" fill="#1A1A1A"/>
<rect width="32" height="1" transform="matrix(-1 0 0 1 52.6674 2856.67)" fill="#1A1A1A"/>
<rect width="32" height="1" transform="matrix(-1 0 0 1 52.6674 3190)" fill="#1A1A1A"/>
<rect width="32" height="1" transform="matrix(-1 0 0 1 52.6674 3523.33)" fill="#1A1A1A"/>
<rect width="32" height="1" transform="matrix(-1 0 0 1 52.6674 3856.67)" fill="#1A1A1A"/>
<rect width="32" height="1" transform="matrix(-1 0 0 1 52.6674 4190)" fill="#1A1A1A"/>
<rect width="32" height="1" transform="matrix(-1 0 0 1 52.6674 4523.33)" fill="#1A1A1A"/>
<rect width="32" height="1" transform="matrix(-1 0 0 1 52.6674 4856.67)" fill="#1A1A1A"/>
<rect width="32" height="1" transform="matrix(-1 0 0 1 52.6674 5190)" fill="#1A1A1A"/>
<rect width="32" height="1" transform="matrix(-1 0 0 1 52.6674 5523.33)" fill="#1A1A1A"/>
<rect width="32" height="1" transform="matrix(-1 0 0 1 52.6674 5856.67)" fill="#1A1A1A"/>
<rect width="32" height="1" transform="matrix(-1 0 0 1 52.6674 6190)" fill="#1A1A1A"/>
<rect width="32" height="1" transform="matrix(-1 0 0 1 52.6674 6523.33)" fill="#1A1A1A"/>
<rect width="32" height="1" transform="matrix(-1 0 0 1 52.6674 6856.67)" fill="#1A1A1A"/>
<rect width="32" height="1" transform="matrix(-1 0 0 1 52.6674 7190)" fill="#1A1A1A"/>
<rect width="32" height="1" transform="matrix(-1 0 0 1 52.6674 7523.33)" fill="#1A1A1A"/>
<rect width="32" height="1" transform="matrix(-1 0 0 1 52.6674 7856.67)" fill="#1A1A1A"/>
<rect width="32" height="1" transform="matrix(-1 0 0 1 52.6674 272)" fill="#1A1A1A"/>
<rect width="32" height="1" transform="matrix(-1 0 0 1 52.6674 1532.33)" fill="#1A1A1A"/>
<rect width="32" height="1" transform="matrix(-1 0 0 1 52.6674 1865.67)" fill="#1A1A1A"/>
<rect width="32" height="1" transform="matrix(-1 0 0 1 52.6674 2199)" fill="#1A1A1A"/>
<rect width="32" height="1" transform="matrix(-1 0 0 1 52.6674 2532.33)" fill="#1A1A1A"/>
<rect width="32" height="1" transform="matrix(-1 0 0 1 52.6674 2865.67)" fill="#1A1A1A"/>
<rect width="32" height="1" transform="matrix(-1 0 0 1 52.6674 3199)" fill="#1A1A1A"/>
<rect width="32" height="1" transform="matrix(-1 0 0 1 52.6674 3532.33)" fill="#1A1A1A"/>
<rect width="32" height="1" transform="matrix(-1 0 0 1 52.6674 3865.67)" fill="#1A1A1A"/>
<rect width="32" height="1" transform="matrix(-1 0 0 1 52.6674 4199)" fill="#1A1A1A"/>
<rect width="32" height="1" transform="matrix(-1 0 0 1 52.6674 4532.33)" fill="#1A1A1A"/>
<rect width="32" height="1" transform="matrix(-1 0 0 1 52.6674 4865.67)" fill="#1A1A1A"/>
<rect width="32" height="1" transform="matrix(-1 0 0 1 52.6674 5199)" fill="#1A1A1A"/>
<rect width="32" height="1" transform="matrix(-1 0 0 1 52.6674 5532.33)" fill="#1A1A1A"/>
<rect width="32" height="1" transform="matrix(-1 0 0 1 52.6674 5865.67)" fill="#1A1A1A"/>
<rect width="32" height="1" transform="matrix(-1 0 0 1 52.6674 6199)" fill="#1A1A1A"/>
<rect width="32" height="1" transform="matrix(-1 0 0 1 52.6674 6532.33)" fill="#1A1A1A"/>
<rect width="32" height="1" transform="matrix(-1 0 0 1 52.6674 6865.67)" fill="#1A1A1A"/>
<rect width="32" height="1" transform="matrix(-1 0 0 1 52.6674 7199)" fill="#1A1A1A"/>
<rect width="32" height="1" transform="matrix(-1 0 0 1 52.6674 7532.33)" fill="#1A1A1A"/>
<rect width="32" height="1" transform="matrix(-1 0 0 1 52.6674 7865.67)" fill="#1A1A1A"/>
<rect width="32" height="1" transform="matrix(-1 0 0 1 52.6674 281)" fill="#1A1A1A"/>
<rect width="32" height="1" transform="matrix(-1 0 0 1 52.6674 1541.33)" fill="#1A1A1A"/>
<rect width="32" height="1" transform="matrix(-1 0 0 1 52.6674 1874.67)" fill="#1A1A1A"/>
<rect width="32" height="1" transform="matrix(-1 0 0 1 52.6674 2208)" fill="#1A1A1A"/>
<rect width="32" height="1" transform="matrix(-1 0 0 1 52.6674 2541.33)" fill="#1A1A1A"/>
<rect width="32" height="1" transform="matrix(-1 0 0 1 52.6674 2874.67)" fill="#1A1A1A"/>
<rect width="32" height="1" transform="matrix(-1 0 0 1 52.6674 3208)" fill="#1A1A1A"/>
<rect width="32" height="1" transform="matrix(-1 0 0 1 52.6674 3541.33)" fill="#1A1A1A"/>
<rect width="32" height="1" transform="matrix(-1 0 0 1 52.6674 3874.67)" fill="#1A1A1A"/>
<rect width="32" height="1" transform="matrix(-1 0 0 1 52.6674 4208)" fill="#1A1A1A"/>
<rect width="32" height="1" transform="matrix(-1 0 0 1 52.6674 4541.33)" fill="#1A1A1A"/>
<rect width="32" height="1" transform="matrix(-1 0 0 1 52.6674 4874.67)" fill="#1A1A1A"/>
<rect width="32" height="1" transform="matrix(-1 0 0 1 52.6674 5208)" fill="#1A1A1A"/>
<rect width="32" height="1" transform="matrix(-1 0 0 1 52.6674 5541.33)" fill="#1A1A1A"/>
<rect width="32" height="1" transform="matrix(-1 0 0 1 52.6674 5874.67)" fill="#1A1A1A"/>
<rect width="32" height="1" transform="matrix(-1 0 0 1 52.6674 6208)" fill="#1A1A1A"/>
<rect width="32" height="1" transform="matrix(-1 0 0 1 52.6674 6541.33)" fill="#1A1A1A"/>
<rect width="32" height="1" transform="matrix(-1 0 0 1 52.6674 6874.67)" fill="#1A1A1A"/>
<rect width="32" height="1" transform="matrix(-1 0 0 1 52.6674 7208)" fill="#1A1A1A"/>
<rect width="32" height="1" transform="matrix(-1 0 0 1 52.6674 7541.33)" fill="#1A1A1A"/>
<rect width="32" height="1" transform="matrix(-1 0 0 1 52.6674 7874.67)" fill="#1A1A1A"/>
<rect width="32" height="1" transform="matrix(-1 0 0 1 52.6674 290)" fill="#1A1A1A"/>
<rect width="32" height="1" transform="matrix(-1 0 0 1 52.6674 1550.33)" fill="#1A1A1A"/>
<rect width="32" height="1" transform="matrix(-1 0 0 1 52.6674 1883.67)" fill="#1A1A1A"/>
<rect width="32" height="1" transform="matrix(-1 0 0 1 52.6674 2217)" fill="#1A1A1A"/>
<rect width="32" height="1" transform="matrix(-1 0 0 1 52.6674 2550.33)" fill="#1A1A1A"/>
<rect width="32" height="1" transform="matrix(-1 0 0 1 52.6674 2883.67)" fill="#1A1A1A"/>
<rect width="32" height="1" transform="matrix(-1 0 0 1 52.6674 3217)" fill="#1A1A1A"/>
<rect width="32" height="1" transform="matrix(-1 0 0 1 52.6674 3550.33)" fill="#1A1A1A"/>
<rect width="32" height="1" transform="matrix(-1 0 0 1 52.6674 3883.67)" fill="#1A1A1A"/>
<rect width="32" height="1" transform="matrix(-1 0 0 1 52.6674 4217)" fill="#1A1A1A"/>
<rect width="32" height="1" transform="matrix(-1 0 0 1 52.6674 4550.33)" fill="#1A1A1A"/>
<rect width="32" height="1" transform="matrix(-1 0 0 1 52.6674 4883.67)" fill="#1A1A1A"/>
<rect width="32" height="1" transform="matrix(-1 0 0 1 52.6674 5217)" fill="#1A1A1A"/>
<rect width="32" height="1" transform="matrix(-1 0 0 1 52.6674 5550.33)" fill="#1A1A1A"/>
<rect width="32" height="1" transform="matrix(-1 0 0 1 52.6674 5883.67)" fill="#1A1A1A"/>
<rect width="32" height="1" transform="matrix(-1 0 0 1 52.6674 6217)" fill="#1A1A1A"/>
<rect width="32" height="1" transform="matrix(-1 0 0 1 52.6674 6550.33)" fill="#1A1A1A"/>
<rect width="32" height="1" transform="matrix(-1 0 0 1 52.6674 6883.67)" fill="#1A1A1A"/>
<rect width="32" height="1" transform="matrix(-1 0 0 1 52.6674 7217)" fill="#1A1A1A"/>
<rect width="32" height="1" transform="matrix(-1 0 0 1 52.6674 7550.33)" fill="#1A1A1A"/>
<rect width="32" height="1" transform="matrix(-1 0 0 1 52.6674 7883.67)" fill="#1A1A1A"/>
<rect width="32" height="1" transform="matrix(-1 0 0 1 52.6674 299)" fill="#1A1A1A"/>
<rect width="32" height="1" transform="matrix(-1 0 0 1 52.6674 1559.33)" fill="#1A1A1A"/>
<rect width="32" height="1" transform="matrix(-1 0 0 1 52.6674 1892.67)" fill="#1A1A1A"/>
<rect width="32" height="1" transform="matrix(-1 0 0 1 52.6674 2226)" fill="#1A1A1A"/>
<rect width="32" height="1" transform="matrix(-1 0 0 1 52.6674 2559.33)" fill="#1A1A1A"/>
<rect width="32" height="1" transform="matrix(-1 0 0 1 52.6674 2892.67)" fill="#1A1A1A"/>
<rect width="32" height="1" transform="matrix(-1 0 0 1 52.6674 3226)" fill="#1A1A1A"/>
<rect width="32" height="1" transform="matrix(-1 0 0 1 52.6674 3559.33)" fill="#1A1A1A"/>
<rect width="32" height="1" transform="matrix(-1 0 0 1 52.6674 3892.67)" fill="#1A1A1A"/>
<rect width="32" height="1" transform="matrix(-1 0 0 1 52.6674 4226)" fill="#1A1A1A"/>
<rect width="32" height="1" transform="matrix(-1 0 0 1 52.6674 4559.33)" fill="#1A1A1A"/>
<rect width="32" height="1" transform="matrix(-1 0 0 1 52.6674 4892.67)" fill="#1A1A1A"/>
<rect width="32" height="1" transform="matrix(-1 0 0 1 52.6674 5226)" fill="#1A1A1A"/>
<rect width="32" height="1" transform="matrix(-1 0 0 1 52.6674 5559.33)" fill="#1A1A1A"/>
<rect width="32" height="1" transform="matrix(-1 0 0 1 52.6674 5892.67)" fill="#1A1A1A"/>
<rect width="32" height="1" transform="matrix(-1 0 0 1 52.6674 6226)" fill="#1A1A1A"/>
<rect width="32" height="1" transform="matrix(-1 0 0 1 52.6674 6559.33)" fill="#1A1A1A"/>
<rect width="32" height="1" transform="matrix(-1 0 0 1 52.6674 6892.67)" fill="#1A1A1A"/>
<rect width="32" height="1" transform="matrix(-1 0 0 1 52.6674 7226)" fill="#1A1A1A"/>
<rect width="32" height="1" transform="matrix(-1 0 0 1 52.6674 7559.33)" fill="#1A1A1A"/>
<rect width="32" height="1" transform="matrix(-1 0 0 1 52.6674 7892.67)" fill="#1A1A1A"/>
<rect width="32" height="1" transform="matrix(-1 0 0 1 52.6674 308)" fill="#1A1A1A"/>
<rect width="32" height="1" transform="matrix(-1 0 0 1 52.6674 1568.33)" fill="#1A1A1A"/>
<rect width="32" height="1" transform="matrix(-1 0 0 1 52.6674 1901.67)" fill="#1A1A1A"/>
<rect width="32" height="1" transform="matrix(-1 0 0 1 52.6674 2235)" fill="#1A1A1A"/>
<rect width="32" height="1" transform="matrix(-1 0 0 1 52.6674 2568.33)" fill="#1A1A1A"/>
<rect width="32" height="1" transform="matrix(-1 0 0 1 52.6674 2901.67)" fill="#1A1A1A"/>
<rect width="32" height="1" transform="matrix(-1 0 0 1 52.6674 3235)" fill="#1A1A1A"/>
<rect width="32" height="1" transform="matrix(-1 0 0 1 52.6674 3568.33)" fill="#1A1A1A"/>
<rect width="32" height="1" transform="matrix(-1 0 0 1 52.6674 3901.67)" fill="#1A1A1A"/>
<rect width="32" height="1" transform="matrix(-1 0 0 1 52.6674 4235)" fill="#1A1A1A"/>
<rect width="32" height="1" transform="matrix(-1 0 0 1 52.6674 4568.33)" fill="#1A1A1A"/>
<rect width="32" height="1" transform="matrix(-1 0 0 1 52.6674 4901.67)" fill="#1A1A1A"/>
<rect width="32" height="1" transform="matrix(-1 0 0 1 52.6674 5235)" fill="#1A1A1A"/>
<rect width="32" height="1" transform="matrix(-1 0 0 1 52.6674 5568.33)" fill="#1A1A1A"/>
<rect width="32" height="1" transform="matrix(-1 0 0 1 52.6674 5901.67)" fill="#1A1A1A"/>
<rect width="32" height="1" transform="matrix(-1 0 0 1 52.6674 6235)" fill="#1A1A1A"/>
<rect width="32" height="1" transform="matrix(-1 0 0 1 52.6674 6568.33)" fill="#1A1A1A"/>
<rect width="32" height="1" transform="matrix(-1 0 0 1 52.6674 6901.67)" fill="#1A1A1A"/>
<rect width="32" height="1" transform="matrix(-1 0 0 1 52.6674 7235)" fill="#1A1A1A"/>
<rect width="32" height="1" transform="matrix(-1 0 0 1 52.6674 7568.33)" fill="#1A1A1A"/>
<rect width="32" height="1" transform="matrix(-1 0 0 1 52.6674 7901.67)" fill="#1A1A1A"/>
<rect width="32" height="1" transform="matrix(-1 0 0 1 52.6674 317)" fill="#1A1A1A"/>
<rect width="32" height="1" transform="matrix(-1 0 0 1 52.6674 1577.33)" fill="#1A1A1A"/>
<rect width="32" height="1" transform="matrix(-1 0 0 1 52.6674 1910.67)" fill="#1A1A1A"/>
<rect width="32" height="1" transform="matrix(-1 0 0 1 52.6674 2244)" fill="#1A1A1A"/>
<rect width="32" height="1" transform="matrix(-1 0 0 1 52.6674 2577.33)" fill="#1A1A1A"/>
<rect width="32" height="1" transform="matrix(-1 0 0 1 52.6674 2910.67)" fill="#1A1A1A"/>
<rect width="32" height="1" transform="matrix(-1 0 0 1 52.6674 3244)" fill="#1A1A1A"/>
<rect width="32" height="1" transform="matrix(-1 0 0 1 52.6674 3577.33)" fill="#1A1A1A"/>
<rect width="32" height="1" transform="matrix(-1 0 0 1 52.6674 3910.67)" fill="#1A1A1A"/>
<rect width="32" height="1" transform="matrix(-1 0 0 1 52.6674 4244)" fill="#1A1A1A"/>
<rect width="32" height="1" transform="matrix(-1 0 0 1 52.6674 4577.33)" fill="#1A1A1A"/>
<rect width="32" height="1" transform="matrix(-1 0 0 1 52.6674 4910.67)" fill="#1A1A1A"/>
<rect width="32" height="1" transform="matrix(-1 0 0 1 52.6674 5244)" fill="#1A1A1A"/>
<rect width="32" height="1" transform="matrix(-1 0 0 1 52.6674 5577.33)" fill="#1A1A1A"/>
<rect width="32" height="1" transform="matrix(-1 0 0 1 52.6674 5910.67)" fill="#1A1A1A"/>
<rect width="32" height="1" transform="matrix(-1 0 0 1 52.6674 6244)" fill="#1A1A1A"/>
<rect width="32" height="1" transform="matrix(-1 0 0 1 52.6674 6577.33)" fill="#1A1A1A"/>
<rect width="32" height="1" transform="matrix(-1 0 0 1 52.6674 6910.67)" fill="#1A1A1A"/>
<rect width="32" height="1" transform="matrix(-1 0 0 1 52.6674 7244)" fill="#1A1A1A"/>
<rect width="32" height="1" transform="matrix(-1 0 0 1 52.6674 7577.33)" fill="#1A1A1A"/>
<rect width="32" height="1" transform="matrix(-1 0 0 1 52.6674 7910.67)" fill="#1A1A1A"/>
<rect width="32" height="1" transform="matrix(-1 0 0 1 52.6674 326)" fill="#1A1A1A"/>
<rect width="32" height="1" transform="matrix(-1 0 0 1 52.6674 1586.33)" fill="#1A1A1A"/>
<rect width="32" height="1" transform="matrix(-1 0 0 1 52.6674 1919.67)" fill="#1A1A1A"/>
<rect width="32" height="1" transform="matrix(-1 0 0 1 52.6674 2253)" fill="#1A1A1A"/>
<rect width="32" height="1" transform="matrix(-1 0 0 1 52.6674 2586.33)" fill="#1A1A1A"/>
<rect width="32" height="1" transform="matrix(-1 0 0 1 52.6674 2919.67)" fill="#1A1A1A"/>
<rect width="32" height="1" transform="matrix(-1 0 0 1 52.6674 3253)" fill="#1A1A1A"/>
<rect width="32" height="1" transform="matrix(-1 0 0 1 52.6674 3586.33)" fill="#1A1A1A"/>
<rect width="32" height="1" transform="matrix(-1 0 0 1 52.6674 3919.67)" fill="#1A1A1A"/>
<rect width="32" height="1" transform="matrix(-1 0 0 1 52.6674 4253)" fill="#1A1A1A"/>
<rect width="32" height="1" transform="matrix(-1 0 0 1 52.6674 4586.33)" fill="#1A1A1A"/>
<rect width="32" height="1" transform="matrix(-1 0 0 1 52.6674 4919.67)" fill="#1A1A1A"/>
<rect width="32" height="1" transform="matrix(-1 0 0 1 52.6674 5253)" fill="#1A1A1A"/>
<rect width="32" height="1" transform="matrix(-1 0 0 1 52.6674 5586.33)" fill="#1A1A1A"/>
<rect width="32" height="1" transform="matrix(-1 0 0 1 52.6674 5919.67)" fill="#1A1A1A"/>
<rect width="32" height="1" transform="matrix(-1 0 0 1 52.6674 6253)" fill="#1A1A1A"/>
<rect width="32" height="1" transform="matrix(-1 0 0 1 52.6674 6586.33)" fill="#1A1A1A"/>
<rect width="32" height="1" transform="matrix(-1 0 0 1 52.6674 6919.67)" fill="#1A1A1A"/>
<rect width="32" height="1" transform="matrix(-1 0 0 1 52.6674 7253)" fill="#1A1A1A"/>
<rect width="32" height="1" transform="matrix(-1 0 0 1 52.6674 7586.33)" fill="#1A1A1A"/>
<rect width="32" height="1" transform="matrix(-1 0 0 1 52.6674 7919.67)" fill="#1A1A1A"/>
<rect width="32" height="1" transform="matrix(-1 0 0 1 52.6674 335)" fill="#1A1A1A"/>
<rect width="32" height="1" transform="matrix(-1 0 0 1 52.6674 1595.33)" fill="#1A1A1A"/>
<rect width="32" height="1" transform="matrix(-1 0 0 1 52.6674 1928.67)" fill="#1A1A1A"/>
<rect width="32" height="1" transform="matrix(-1 0 0 1 52.6674 2262)" fill="#1A1A1A"/>
<rect width="32" height="1" transform="matrix(-1 0 0 1 52.6674 2595.33)" fill="#1A1A1A"/>
<rect width="32" height="1" transform="matrix(-1 0 0 1 52.6674 2928.67)" fill="#1A1A1A"/>
<rect width="32" height="1" transform="matrix(-1 0 0 1 52.6674 3262)" fill="#1A1A1A"/>
<rect width="32" height="1" transform="matrix(-1 0 0 1 52.6674 3595.33)" fill="#1A1A1A"/>
<rect width="32" height="1" transform="matrix(-1 0 0 1 52.6674 3928.67)" fill="#1A1A1A"/>
<rect width="32" height="1" transform="matrix(-1 0 0 1 52.6674 4262)" fill="#1A1A1A"/>
<rect width="32" height="1" transform="matrix(-1 0 0 1 52.6674 4595.33)" fill="#1A1A1A"/>
<rect width="32" height="1" transform="matrix(-1 0 0 1 52.6674 4928.67)" fill="#1A1A1A"/>
<rect width="32" height="1" transform="matrix(-1 0 0 1 52.6674 5262)" fill="#1A1A1A"/>
<rect width="32" height="1" transform="matrix(-1 0 0 1 52.6674 5595.33)" fill="#1A1A1A"/>
<rect width="32" height="1" transform="matrix(-1 0 0 1 52.6674 5928.67)" fill="#1A1A1A"/>
<rect width="32" height="1" transform="matrix(-1 0 0 1 52.6674 6262)" fill="#1A1A1A"/>
<rect width="32" height="1" transform="matrix(-1 0 0 1 52.6674 6595.33)" fill="#1A1A1A"/>
<rect width="32" height="1" transform="matrix(-1 0 0 1 52.6674 6928.67)" fill="#1A1A1A"/>
<rect width="32" height="1" transform="matrix(-1 0 0 1 52.6674 7262)" fill="#1A1A1A"/>
<rect width="32" height="1" transform="matrix(-1 0 0 1 52.6674 7595.33)" fill="#1A1A1A"/>
<rect width="32" height="1" transform="matrix(-1 0 0 1 52.6674 7928.67)" fill="#1A1A1A"/>
<rect width="32" height="1" transform="matrix(-1 0 0 1 52.6674 344)" fill="#1A1A1A"/>
<rect width="32" height="1" transform="matrix(-1 0 0 1 52.6674 1604.33)" fill="#1A1A1A"/>
<rect width="32" height="1" transform="matrix(-1 0 0 1 52.6674 1937.67)" fill="#1A1A1A"/>
<rect width="32" height="1" transform="matrix(-1 0 0 1 52.6674 2271)" fill="#1A1A1A"/>
<rect width="32" height="1" transform="matrix(-1 0 0 1 52.6674 2604.33)" fill="#1A1A1A"/>
<rect width="32" height="1" transform="matrix(-1 0 0 1 52.6674 2937.67)" fill="#1A1A1A"/>
<rect width="32" height="1" transform="matrix(-1 0 0 1 52.6674 3271)" fill="#1A1A1A"/>
<rect width="32" height="1" transform="matrix(-1 0 0 1 52.6674 3604.33)" fill="#1A1A1A"/>
<rect width="32" height="1" transform="matrix(-1 0 0 1 52.6674 3937.67)" fill="#1A1A1A"/>
<rect width="32" height="1" transform="matrix(-1 0 0 1 52.6674 4271)" fill="#1A1A1A"/>
<rect width="32" height="1" transform="matrix(-1 0 0 1 52.6674 4604.33)" fill="#1A1A1A"/>
<rect width="32" height="1" transform="matrix(-1 0 0 1 52.6674 4937.67)" fill="#1A1A1A"/>
<rect width="32" height="1" transform="matrix(-1 0 0 1 52.6674 5271)" fill="#1A1A1A"/>
<rect width="32" height="1" transform="matrix(-1 0 0 1 52.6674 5604.33)" fill="#1A1A1A"/>
<rect width="32" height="1" transform="matrix(-1 0 0 1 52.6674 5937.67)" fill="#1A1A1A"/>
<rect width="32" height="1" transform="matrix(-1 0 0 1 52.6674 6271)" fill="#1A1A1A"/>
<rect width="32" height="1" transform="matrix(-1 0 0 1 52.6674 6604.33)" fill="#1A1A1A"/>
<rect width="32" height="1" transform="matrix(-1 0 0 1 52.6674 6937.67)" fill="#1A1A1A"/>
<rect width="32" height="1" transform="matrix(-1 0 0 1 52.6674 7271)" fill="#1A1A1A"/>
<rect width="32" height="1" transform="matrix(-1 0 0 1 52.6674 7604.33)" fill="#1A1A1A"/>
<rect width="32" height="1" transform="matrix(-1 0 0 1 52.6674 7937.67)" fill="#1A1A1A"/>
<rect width="32" height="1" transform="matrix(-1 0 0 1 52.6674 353)" fill="#1A1A1A"/>
<rect width="32" height="1" transform="matrix(-1 0 0 1 52.6674 1613.33)" fill="#1A1A1A"/>
<rect width="32" height="1" transform="matrix(-1 0 0 1 52.6674 1946.67)" fill="#1A1A1A"/>
<rect width="32" height="1" transform="matrix(-1 0 0 1 52.6674 2280)" fill="#1A1A1A"/>
<rect width="32" height="1" transform="matrix(-1 0 0 1 52.6674 2613.33)" fill="#1A1A1A"/>
<rect width="32" height="1" transform="matrix(-1 0 0 1 52.6674 2946.67)" fill="#1A1A1A"/>
<rect width="32" height="1" transform="matrix(-1 0 0 1 52.6674 3280)" fill="#1A1A1A"/>
<rect width="32" height="1" transform="matrix(-1 0 0 1 52.6674 3613.33)" fill="#1A1A1A"/>
<rect width="32" height="1" transform="matrix(-1 0 0 1 52.6674 3946.67)" fill="#1A1A1A"/>
<rect width="32" height="1" transform="matrix(-1 0 0 1 52.6674 4280)" fill="#1A1A1A"/>
<rect width="32" height="1" transform="matrix(-1 0 0 1 52.6674 4613.33)" fill="#1A1A1A"/>
<rect width="32" height="1" transform="matrix(-1 0 0 1 52.6674 4946.67)" fill="#1A1A1A"/>
<rect width="32" height="1" transform="matrix(-1 0 0 1 52.6674 5280)" fill="#1A1A1A"/>
<rect width="32" height="1" transform="matrix(-1 0 0 1 52.6674 5613.33)" fill="#1A1A1A"/>
<rect width="32" height="1" transform="matrix(-1 0 0 1 52.6674 5946.67)" fill="#1A1A1A"/>
<rect width="32" height="1" transform="matrix(-1 0 0 1 52.6674 6280)" fill="#1A1A1A"/>
<rect width="32" height="1" transform="matrix(-1 0 0 1 52.6674 6613.33)" fill="#1A1A1A"/>
<rect width="32" height="1" transform="matrix(-1 0 0 1 52.6674 6946.67)" fill="#1A1A1A"/>
<rect width="32" height="1" transform="matrix(-1 0 0 1 52.6674 7280)" fill="#1A1A1A"/>
<rect width="32" height="1" transform="matrix(-1 0 0 1 52.6674 7613.33)" fill="#1A1A1A"/>
<rect width="32" height="1" transform="matrix(-1 0 0 1 52.6674 7946.67)" fill="#1A1A1A"/>
<rect width="32" height="1" transform="matrix(-1 0 0 1 52.6674 362)" fill="#1A1A1A"/>
<rect width="32" height="1" transform="matrix(-1 0 0 1 52.6674 1622.33)" fill="#1A1A1A"/>
<rect width="32" height="1" transform="matrix(-1 0 0 1 52.6674 1955.67)" fill="#1A1A1A"/>
<rect width="32" height="1" transform="matrix(-1 0 0 1 52.6674 2289)" fill="#1A1A1A"/>
<rect width="32" height="1" transform="matrix(-1 0 0 1 52.6674 2622.33)" fill="#1A1A1A"/>
<rect width="32" height="1" transform="matrix(-1 0 0 1 52.6674 2955.67)" fill="#1A1A1A"/>
<rect width="32" height="1" transform="matrix(-1 0 0 1 52.6674 3289)" fill="#1A1A1A"/>
<rect width="32" height="1" transform="matrix(-1 0 0 1 52.6674 3622.33)" fill="#1A1A1A"/>
<rect width="32" height="1" transform="matrix(-1 0 0 1 52.6674 3955.67)" fill="#1A1A1A"/>
<rect width="32" height="1" transform="matrix(-1 0 0 1 52.6674 4289)" fill="#1A1A1A"/>
<rect width="32" height="1" transform="matrix(-1 0 0 1 52.6674 4622.33)" fill="#1A1A1A"/>
<rect width="32" height="1" transform="matrix(-1 0 0 1 52.6674 4955.67)" fill="#1A1A1A"/>
<rect width="32" height="1" transform="matrix(-1 0 0 1 52.6674 5289)" fill="#1A1A1A"/>
<rect width="32" height="1" transform="matrix(-1 0 0 1 52.6674 5622.33)" fill="#1A1A1A"/>
<rect width="32" height="1" transform="matrix(-1 0 0 1 52.6674 5955.67)" fill="#1A1A1A"/>
<rect width="32" height="1" transform="matrix(-1 0 0 1 52.6674 6289)" fill="#1A1A1A"/>
<rect width="32" height="1" transform="matrix(-1 0 0 1 52.6674 6622.33)" fill="#1A1A1A"/>
<rect width="32" height="1" transform="matrix(-1 0 0 1 52.6674 6955.67)" fill="#1A1A1A"/>
<rect width="32" height="1" transform="matrix(-1 0 0 1 52.6674 7289)" fill="#1A1A1A"/>
<rect width="32" height="1" transform="matrix(-1 0 0 1 52.6674 7622.33)" fill="#1A1A1A"/>
<rect width="32" height="1" transform="matrix(-1 0 0 1 52.6674 7955.67)" fill="#1A1A1A"/>
<rect width="32" height="1" transform="matrix(-1 0 0 1 52.6674 371)" fill="#1A1A1A"/>
<rect width="32" height="1" transform="matrix(-1 0 0 1 52.6674 1631.33)" fill="#1A1A1A"/>
<rect width="32" height="1" transform="matrix(-1 0 0 1 52.6674 1964.67)" fill="#1A1A1A"/>
<rect width="32" height="1" transform="matrix(-1 0 0 1 52.6674 2298)" fill="#1A1A1A"/>
<rect width="32" height="1" transform="matrix(-1 0 0 1 52.6674 2631.33)" fill="#1A1A1A"/>
<rect width="32" height="1" transform="matrix(-1 0 0 1 52.6674 2964.67)" fill="#1A1A1A"/>
<rect width="32" height="1" transform="matrix(-1 0 0 1 52.6674 3298)" fill="#1A1A1A"/>
<rect width="32" height="1" transform="matrix(-1 0 0 1 52.6674 3631.33)" fill="#1A1A1A"/>
<rect width="32" height="1" transform="matrix(-1 0 0 1 52.6674 3964.67)" fill="#1A1A1A"/>
<rect width="32" height="1" transform="matrix(-1 0 0 1 52.6674 4298)" fill="#1A1A1A"/>
<rect width="32" height="1" transform="matrix(-1 0 0 1 52.6674 4631.33)" fill="#1A1A1A"/>
<rect width="32" height="1" transform="matrix(-1 0 0 1 52.6674 4964.67)" fill="#1A1A1A"/>
<rect width="32" height="1" transform="matrix(-1 0 0 1 52.6674 5298)" fill="#1A1A1A"/>
<rect width="32" height="1" transform="matrix(-1 0 0 1 52.6674 5631.33)" fill="#1A1A1A"/>
<rect width="32" height="1" transform="matrix(-1 0 0 1 52.6674 5964.67)" fill="#1A1A1A"/>
<rect width="32" height="1" transform="matrix(-1 0 0 1 52.6674 6298)" fill="#1A1A1A"/>
<rect width="32" height="1" transform="matrix(-1 0 0 1 52.6674 6631.33)" fill="#1A1A1A"/>
<rect width="32" height="1" transform="matrix(-1 0 0 1 52.6674 6964.67)" fill="#1A1A1A"/>
<rect width="32" height="1" transform="matrix(-1 0 0 1 52.6674 7298)" fill="#1A1A1A"/>
<rect width="32" height="1" transform="matrix(-1 0 0 1 52.6674 7631.33)" fill="#1A1A1A"/>
<rect width="32" height="1" transform="matrix(-1 0 0 1 52.6674 7964.67)" fill="#1A1A1A"/>
<rect width="32" height="1" transform="matrix(-1 0 0 1 52.6674 380)" fill="#1A1A1A"/>
<rect width="32" height="1" transform="matrix(-1 0 0 1 52.6674 1640.33)" fill="#1A1A1A"/>
<rect width="32" height="1" transform="matrix(-1 0 0 1 52.6674 1973.67)" fill="#1A1A1A"/>
<rect width="32" height="1" transform="matrix(-1 0 0 1 52.6674 2307)" fill="#1A1A1A"/>
<rect width="32" height="1" transform="matrix(-1 0 0 1 52.6674 2640.33)" fill="#1A1A1A"/>
<rect width="32" height="1" transform="matrix(-1 0 0 1 52.6674 2973.67)" fill="#1A1A1A"/>
<rect width="32" height="1" transform="matrix(-1 0 0 1 52.6674 3307)" fill="#1A1A1A"/>
<rect width="32" height="1" transform="matrix(-1 0 0 1 52.6674 3640.33)" fill="#1A1A1A"/>
<rect width="32" height="1" transform="matrix(-1 0 0 1 52.6674 3973.67)" fill="#1A1A1A"/>
<rect width="32" height="1" transform="matrix(-1 0 0 1 52.6674 4307)" fill="#1A1A1A"/>
<rect width="32" height="1" transform="matrix(-1 0 0 1 52.6674 4640.33)" fill="#1A1A1A"/>
<rect width="32" height="1" transform="matrix(-1 0 0 1 52.6674 4973.67)" fill="#1A1A1A"/>
<rect width="32" height="1" transform="matrix(-1 0 0 1 52.6674 5307)" fill="#1A1A1A"/>
<rect width="32" height="1" transform="matrix(-1 0 0 1 52.6674 5640.33)" fill="#1A1A1A"/>
<rect width="32" height="1" transform="matrix(-1 0 0 1 52.6674 5973.67)" fill="#1A1A1A"/>
<rect width="32" height="1" transform="matrix(-1 0 0 1 52.6674 6307)" fill="#1A1A1A"/>
<rect width="32" height="1" transform="matrix(-1 0 0 1 52.6674 6640.33)" fill="#1A1A1A"/>
<rect width="32" height="1" transform="matrix(-1 0 0 1 52.6674 6973.67)" fill="#1A1A1A"/>
<rect width="32" height="1" transform="matrix(-1 0 0 1 52.6674 7307)" fill="#1A1A1A"/>
<rect width="32" height="1" transform="matrix(-1 0 0 1 52.6674 7640.33)" fill="#1A1A1A"/>
<rect width="32" height="1" transform="matrix(-1 0 0 1 52.6674 7973.67)" fill="#1A1A1A"/>
<rect width="32" height="1" transform="matrix(-1 0 0 1 52.6674 389)" fill="#1A1A1A"/>
<rect width="32" height="1" transform="matrix(-1 0 0 1 52.6674 1649.33)" fill="#1A1A1A"/>
<rect width="32" height="1" transform="matrix(-1 0 0 1 52.6674 1982.67)" fill="#1A1A1A"/>
<rect width="32" height="1" transform="matrix(-1 0 0 1 52.6674 2316)" fill="#1A1A1A"/>
<rect width="32" height="1" transform="matrix(-1 0 0 1 52.6674 2649.33)" fill="#1A1A1A"/>
<rect width="32" height="1" transform="matrix(-1 0 0 1 52.6674 2982.67)" fill="#1A1A1A"/>
<rect width="32" height="1" transform="matrix(-1 0 0 1 52.6674 3316)" fill="#1A1A1A"/>
<rect width="32" height="1" transform="matrix(-1 0 0 1 52.6674 3649.33)" fill="#1A1A1A"/>
<rect width="32" height="1" transform="matrix(-1 0 0 1 52.6674 3982.67)" fill="#1A1A1A"/>
<rect width="32" height="1" transform="matrix(-1 0 0 1 52.6674 4316)" fill="#1A1A1A"/>
<rect width="32" height="1" transform="matrix(-1 0 0 1 52.6674 4649.33)" fill="#1A1A1A"/>
<rect width="32" height="1" transform="matrix(-1 0 0 1 52.6674 4982.67)" fill="#1A1A1A"/>
<rect width="32" height="1" transform="matrix(-1 0 0 1 52.6674 5316)" fill="#1A1A1A"/>
<rect width="32" height="1" transform="matrix(-1 0 0 1 52.6674 5649.33)" fill="#1A1A1A"/>
<rect width="32" height="1" transform="matrix(-1 0 0 1 52.6674 5982.67)" fill="#1A1A1A"/>
<rect width="32" height="1" transform="matrix(-1 0 0 1 52.6674 6316)" fill="#1A1A1A"/>
<rect width="32" height="1" transform="matrix(-1 0 0 1 52.6674 6649.33)" fill="#1A1A1A"/>
<rect width="32" height="1" transform="matrix(-1 0 0 1 52.6674 6982.67)" fill="#1A1A1A"/>
<rect width="32" height="1" transform="matrix(-1 0 0 1 52.6674 7316)" fill="#1A1A1A"/>
<rect width="32" height="1" transform="matrix(-1 0 0 1 52.6674 7649.33)" fill="#1A1A1A"/>
<rect width="32" height="1" transform="matrix(-1 0 0 1 52.6674 7982.67)" fill="#1A1A1A"/>
<rect width="32" height="1" transform="matrix(-1 0 0 1 52.6674 398)" fill="#1A1A1A"/>
<rect width="32" height="1" transform="matrix(-1 0 0 1 52.6674 1658.33)" fill="#1A1A1A"/>
<rect width="32" height="1" transform="matrix(-1 0 0 1 52.6674 1991.67)" fill="#1A1A1A"/>
<rect width="32" height="1" transform="matrix(-1 0 0 1 52.6674 2325)" fill="#1A1A1A"/>
<rect width="32" height="1" transform="matrix(-1 0 0 1 52.6674 2658.33)" fill="#1A1A1A"/>
<rect width="32" height="1" transform="matrix(-1 0 0 1 52.6674 2991.67)" fill="#1A1A1A"/>
<rect width="32" height="1" transform="matrix(-1 0 0 1 52.6674 3325)" fill="#1A1A1A"/>
<rect width="32" height="1" transform="matrix(-1 0 0 1 52.6674 3658.33)" fill="#1A1A1A"/>
<rect width="32" height="1" transform="matrix(-1 0 0 1 52.6674 3991.67)" fill="#1A1A1A"/>
<rect width="32" height="1" transform="matrix(-1 0 0 1 52.6674 4325)" fill="#1A1A1A"/>
<rect width="32" height="1" transform="matrix(-1 0 0 1 52.6674 4658.33)" fill="#1A1A1A"/>
<rect width="32" height="1" transform="matrix(-1 0 0 1 52.6674 4991.67)" fill="#1A1A1A"/>
<rect width="32" height="1" transform="matrix(-1 0 0 1 52.6674 5325)" fill="#1A1A1A"/>
<rect width="32" height="1" transform="matrix(-1 0 0 1 52.6674 5658.33)" fill="#1A1A1A"/>
<rect width="32" height="1" transform="matrix(-1 0 0 1 52.6674 5991.67)" fill="#1A1A1A"/>
<rect width="32" height="1" transform="matrix(-1 0 0 1 52.6674 6325)" fill="#1A1A1A"/>
<rect width="32" height="1" transform="matrix(-1 0 0 1 52.6674 6658.33)" fill="#1A1A1A"/>
<rect width="32" height="1" transform="matrix(-1 0 0 1 52.6674 6991.67)" fill="#1A1A1A"/>
<rect width="32" height="1" transform="matrix(-1 0 0 1 52.6674 7325)" fill="#1A1A1A"/>
<rect width="32" height="1" transform="matrix(-1 0 0 1 52.6674 7658.33)" fill="#1A1A1A"/>
<rect width="32" height="1" transform="matrix(-1 0 0 1 52.6674 7991.67)" fill="#1A1A1A"/>
<rect width="32" height="1" transform="matrix(-1 0 0 1 52.6674 407)" fill="#1A1A1A"/>
<rect width="32" height="1" transform="matrix(-1 0 0 1 52.6674 1667.33)" fill="#1A1A1A"/>
<rect width="32" height="1" transform="matrix(-1 0 0 1 52.6674 2000.67)" fill="#1A1A1A"/>
<rect width="32" height="1" transform="matrix(-1 0 0 1 52.6674 2334)" fill="#1A1A1A"/>
<rect width="32" height="1" transform="matrix(-1 0 0 1 52.6674 2667.33)" fill="#1A1A1A"/>
<rect width="32" height="1" transform="matrix(-1 0 0 1 52.6674 3000.67)" fill="#1A1A1A"/>
<rect width="32" height="1" transform="matrix(-1 0 0 1 52.6674 3334)" fill="#1A1A1A"/>
<rect width="32" height="1" transform="matrix(-1 0 0 1 52.6674 3667.33)" fill="#1A1A1A"/>
<rect width="32" height="1" transform="matrix(-1 0 0 1 52.6674 4000.67)" fill="#1A1A1A"/>
<rect width="32" height="1" transform="matrix(-1 0 0 1 52.6674 4334)" fill="#1A1A1A"/>
<rect width="32" height="1" transform="matrix(-1 0 0 1 52.6674 4667.33)" fill="#1A1A1A"/>
<rect width="32" height="1" transform="matrix(-1 0 0 1 52.6674 5000.67)" fill="#1A1A1A"/>
<rect width="32" height="1" transform="matrix(-1 0 0 1 52.6674 5334)" fill="#1A1A1A"/>
<rect width="32" height="1" transform="matrix(-1 0 0 1 52.6674 5667.33)" fill="#1A1A1A"/>
<rect width="32" height="1" transform="matrix(-1 0 0 1 52.6674 6000.67)" fill="#1A1A1A"/>
<rect width="32" height="1" transform="matrix(-1 0 0 1 52.6674 6334)" fill="#1A1A1A"/>
<rect width="32" height="1" transform="matrix(-1 0 0 1 52.6674 6667.33)" fill="#1A1A1A"/>
<rect width="32" height="1" transform="matrix(-1 0 0 1 52.6674 7000.67)" fill="#1A1A1A"/>
<rect width="32" height="1" transform="matrix(-1 0 0 1 52.6674 7334)" fill="#1A1A1A"/>
<rect width="32" height="1" transform="matrix(-1 0 0 1 52.6674 7667.33)" fill="#1A1A1A"/>
<rect width="32" height="1" transform="matrix(-1 0 0 1 52.6674 8000.67)" fill="#1A1A1A"/>
<rect width="32" height="1" transform="matrix(-1 0 0 1 52.6674 416)" fill="#1A1A1A"/>
<rect width="32" height="1" transform="matrix(-1 0 0 1 52.6674 1676.33)" fill="#1A1A1A"/>
<rect width="32" height="1" transform="matrix(-1 0 0 1 52.6674 2009.67)" fill="#1A1A1A"/>
<rect width="32" height="1" transform="matrix(-1 0 0 1 52.6674 2343)" fill="#1A1A1A"/>
<rect width="32" height="1" transform="matrix(-1 0 0 1 52.6674 2676.33)" fill="#1A1A1A"/>
<rect width="32" height="1" transform="matrix(-1 0 0 1 52.6674 3009.67)" fill="#1A1A1A"/>
<rect width="32" height="1" transform="matrix(-1 0 0 1 52.6674 3343)" fill="#1A1A1A"/>
<rect width="32" height="1" transform="matrix(-1 0 0 1 52.6674 3676.33)" fill="#1A1A1A"/>
<rect width="32" height="1" transform="matrix(-1 0 0 1 52.6674 4009.67)" fill="#1A1A1A"/>
<rect width="32" height="1" transform="matrix(-1 0 0 1 52.6674 4343)" fill="#1A1A1A"/>
<rect width="32" height="1" transform="matrix(-1 0 0 1 52.6674 4676.33)" fill="#1A1A1A"/>
<rect width="32" height="1" transform="matrix(-1 0 0 1 52.6674 5009.67)" fill="#1A1A1A"/>
<rect width="32" height="1" transform="matrix(-1 0 0 1 52.6674 5343)" fill="#1A1A1A"/>
<rect width="32" height="1" transform="matrix(-1 0 0 1 52.6674 5676.33)" fill="#1A1A1A"/>
<rect width="32" height="1" transform="matrix(-1 0 0 1 52.6674 6009.67)" fill="#1A1A1A"/>
<rect width="32" height="1" transform="matrix(-1 0 0 1 52.6674 6343)" fill="#1A1A1A"/>
<rect width="32" height="1" transform="matrix(-1 0 0 1 52.6674 6676.33)" fill="#1A1A1A"/>
<rect width="32" height="1" transform="matrix(-1 0 0 1 52.6674 7009.67)" fill="#1A1A1A"/>
<rect width="32" height="1" transform="matrix(-1 0 0 1 52.6674 7343)" fill="#1A1A1A"/>
<rect width="32" height="1" transform="matrix(-1 0 0 1 52.6674 7676.33)" fill="#1A1A1A"/>
<rect width="32" height="1" transform="matrix(-1 0 0 1 52.6674 8009.67)" fill="#1A1A1A"/>
<rect width="32" height="1" transform="matrix(-1 0 0 1 52.6674 425)" fill="#1A1A1A"/>
<rect width="32" height="1" transform="matrix(-1 0 0 1 52.6674 1685.33)" fill="#1A1A1A"/>
<rect width="32" height="1" transform="matrix(-1 0 0 1 52.6674 2018.67)" fill="#1A1A1A"/>
<rect width="32" height="1" transform="matrix(-1 0 0 1 52.6674 2352)" fill="#1A1A1A"/>
<rect width="32" height="1" transform="matrix(-1 0 0 1 52.6674 2685.33)" fill="#1A1A1A"/>
<rect width="32" height="1" transform="matrix(-1 0 0 1 52.6674 3018.67)" fill="#1A1A1A"/>
<rect width="32" height="1" transform="matrix(-1 0 0 1 52.6674 3352)" fill="#1A1A1A"/>
<rect width="32" height="1" transform="matrix(-1 0 0 1 52.6674 3685.33)" fill="#1A1A1A"/>
<rect width="32" height="1" transform="matrix(-1 0 0 1 52.6674 4018.67)" fill="#1A1A1A"/>
<rect width="32" height="1" transform="matrix(-1 0 0 1 52.6674 4352)" fill="#1A1A1A"/>
<rect width="32" height="1" transform="matrix(-1 0 0 1 52.6674 4685.33)" fill="#1A1A1A"/>
<rect width="32" height="1" transform="matrix(-1 0 0 1 52.6674 5018.67)" fill="#1A1A1A"/>
<rect width="32" height="1" transform="matrix(-1 0 0 1 52.6674 5352)" fill="#1A1A1A"/>
<rect width="32" height="1" transform="matrix(-1 0 0 1 52.6674 5685.33)" fill="#1A1A1A"/>
<rect width="32" height="1" transform="matrix(-1 0 0 1 52.6674 6018.67)" fill="#1A1A1A"/>
<rect width="32" height="1" transform="matrix(-1 0 0 1 52.6674 6352)" fill="#1A1A1A"/>
<rect width="32" height="1" transform="matrix(-1 0 0 1 52.6674 6685.33)" fill="#1A1A1A"/>
<rect width="32" height="1" transform="matrix(-1 0 0 1 52.6674 7018.67)" fill="#1A1A1A"/>
<rect width="32" height="1" transform="matrix(-1 0 0 1 52.6674 7352)" fill="#1A1A1A"/>
<rect width="32" height="1" transform="matrix(-1 0 0 1 52.6674 7685.33)" fill="#1A1A1A"/>
<rect width="32" height="1" transform="matrix(-1 0 0 1 52.6674 8018.67)" fill="#1A1A1A"/>
<rect width="32" height="1" transform="matrix(-1 0 0 1 52.6674 434)" fill="#1A1A1A"/>
<rect width="32" height="1" transform="matrix(-1 0 0 1 52.6674 1694.33)" fill="#1A1A1A"/>
<rect width="32" height="1" transform="matrix(-1 0 0 1 52.6674 2027.67)" fill="#1A1A1A"/>
<rect width="32" height="1" transform="matrix(-1 0 0 1 52.6674 2361)" fill="#1A1A1A"/>
<rect width="32" height="1" transform="matrix(-1 0 0 1 52.6674 2694.33)" fill="#1A1A1A"/>
<rect width="32" height="1" transform="matrix(-1 0 0 1 52.6674 3027.67)" fill="#1A1A1A"/>
<rect width="32" height="1" transform="matrix(-1 0 0 1 52.6674 3361)" fill="#1A1A1A"/>
<rect width="32" height="1" transform="matrix(-1 0 0 1 52.6674 3694.33)" fill="#1A1A1A"/>
<rect width="32" height="1" transform="matrix(-1 0 0 1 52.6674 4027.67)" fill="#1A1A1A"/>
<rect width="32" height="1" transform="matrix(-1 0 0 1 52.6674 4361)" fill="#1A1A1A"/>
<rect width="32" height="1" transform="matrix(-1 0 0 1 52.6674 4694.33)" fill="#1A1A1A"/>
<rect width="32" height="1" transform="matrix(-1 0 0 1 52.6674 5027.67)" fill="#1A1A1A"/>
<rect width="32" height="1" transform="matrix(-1 0 0 1 52.6674 5361)" fill="#1A1A1A"/>
<rect width="32" height="1" transform="matrix(-1 0 0 1 52.6674 5694.33)" fill="#1A1A1A"/>
<rect width="32" height="1" transform="matrix(-1 0 0 1 52.6674 6027.67)" fill="#1A1A1A"/>
<rect width="32" height="1" transform="matrix(-1 0 0 1 52.6674 6361)" fill="#1A1A1A"/>
<rect width="32" height="1" transform="matrix(-1 0 0 1 52.6674 6694.33)" fill="#1A1A1A"/>
<rect width="32" height="1" transform="matrix(-1 0 0 1 52.6674 7027.67)" fill="#1A1A1A"/>
<rect width="32" height="1" transform="matrix(-1 0 0 1 52.6674 7361)" fill="#1A1A1A"/>
<rect width="32" height="1" transform="matrix(-1 0 0 1 52.6674 7694.33)" fill="#1A1A1A"/>
<rect width="32" height="1" transform="matrix(-1 0 0 1 52.6674 8027.67)" fill="#1A1A1A"/>
<rect width="32" height="1" transform="matrix(-1 0 0 1 52.6674 443)" fill="#1A1A1A"/>
<rect width="32" height="1" transform="matrix(-1 0 0 1 52.6674 452)" fill="#1A1A1A"/>
<rect width="32" height="1" transform="matrix(-1 0 0 1 52.6674 461)" fill="#1A1A1A"/>
<rect width="32" height="1" transform="matrix(-1 0 0 1 52.6674 470)" fill="#1A1A1A"/>
<rect width="32" height="1" transform="matrix(-1 0 0 1 52.6674 479)" fill="#1A1A1A"/>
<rect width="32" height="1" transform="matrix(-1 0 0 1 52.6674 488)" fill="#1A1A1A"/>
<rect width="32" height="1" transform="matrix(-1 0 0 1 52.6674 497)" fill="#1A1A1A"/>
<rect width="32" height="1" transform="matrix(-1 0 0 1 52.6674 506)" fill="#1A1A1A"/>
<rect width="32" height="1" transform="matrix(-1 0 0 1 52.6674 515)" fill="#1A1A1A"/>
<rect width="32" height="1" transform="matrix(-1 0 0 1 52.6674 524)" fill="#1A1A1A"/>
<rect width="32" height="1" transform="matrix(-1 0 0 1 52.6674 533)" fill="#1A1A1A"/>
<rect width="32" height="1" transform="matrix(-1 0 0 1 52.6674 542)" fill="#1A1A1A"/>
<rect width="32" height="1" transform="matrix(-1 0 0 1 52.6674 551)" fill="#1A1A1A"/>
<rect width="32" height="1" transform="matrix(-1 0 0 1 52.6674 560)" fill="#1A1A1A"/>
<rect width="32" height="1" transform="matrix(-1 0 0 1 52.6674 569)" fill="#1A1A1A"/>
<rect width="32" height="1" transform="matrix(-1 0 0 1 52.6674 578)" fill="#1A1A1A"/>
<rect width="32" height="1" transform="matrix(-1 0 0 1 52.6674 587)" fill="#1A1A1A"/>
<rect width="32" height="1" transform="matrix(-1 0 0 1 52.6674 596)" fill="#1A1A1A"/>
<rect width="32" height="1" transform="matrix(-1 0 0 1 52.6674 605)" fill="#1A1A1A"/>
<rect width="32" height="1" transform="matrix(-1 0 0 1 52.6674 614)" fill="#1A1A1A"/>
<rect width="32" height="1" transform="matrix(-1 0 0 1 52.6674 623)" fill="#1A1A1A"/>
<rect width="32" height="1" transform="matrix(-1 0 0 1 52.6674 632)" fill="#1A1A1A"/>
<rect width="32" height="1" transform="matrix(-1 0 0 1 52.6674 641)" fill="#1A1A1A"/>
<rect width="32" height="1" transform="matrix(-1 0 0 1 52.6674 650)" fill="#1A1A1A"/>
<rect width="32" height="1" transform="matrix(-1 0 0 1 52.6674 920)" fill="#1A1A1A"/>
<rect width="32" height="1" transform="matrix(-1 0 0 1 52.6674 1190)" fill="#1A1A1A"/>
<rect width="32" height="1" transform="matrix(-1 0 0 1 52.6674 659)" fill="#1A1A1A"/>
<rect width="32" height="1" transform="matrix(-1 0 0 1 52.6674 929)" fill="#1A1A1A"/>
<rect width="32" height="1" transform="matrix(-1 0 0 1 52.6674 1199)" fill="#1A1A1A"/>
<rect width="32" height="1" transform="matrix(-1 0 0 1 52.6674 668)" fill="#1A1A1A"/>
<rect width="32" height="1" transform="matrix(-1 0 0 1 52.6674 938)" fill="#1A1A1A"/>
<rect width="32" height="1" transform="matrix(-1 0 0 1 52.6674 1208)" fill="#1A1A1A"/>
<rect width="32" height="1" transform="matrix(-1 0 0 1 52.6674 677)" fill="#1A1A1A"/>
<rect width="32" height="1" transform="matrix(-1 0 0 1 52.6674 947)" fill="#1A1A1A"/>
<rect width="32" height="1" transform="matrix(-1 0 0 1 52.6674 1217)" fill="#1A1A1A"/>
<rect width="32" height="1" transform="matrix(-1 0 0 1 52.6674 686)" fill="#1A1A1A"/>
<rect width="32" height="1" transform="matrix(-1 0 0 1 52.6674 956)" fill="#1A1A1A"/>
<rect width="32" height="1" transform="matrix(-1 0 0 1 52.6674 1226)" fill="#1A1A1A"/>
<rect width="32" height="1" transform="matrix(-1 0 0 1 52.6674 695)" fill="#1A1A1A"/>
<rect width="32" height="1" transform="matrix(-1 0 0 1 52.6674 965)" fill="#1A1A1A"/>
<rect width="32" height="1" transform="matrix(-1 0 0 1 52.6674 1235)" fill="#1A1A1A"/>
<rect width="32" height="1" transform="matrix(-1 0 0 1 52.6674 704)" fill="#1A1A1A"/>
<rect width="32" height="1" transform="matrix(-1 0 0 1 52.6674 974)" fill="#1A1A1A"/>
<rect width="32" height="1" transform="matrix(-1 0 0 1 52.6674 1244)" fill="#1A1A1A"/>
<rect width="32" height="1" transform="matrix(-1 0 0 1 52.6674 713)" fill="#1A1A1A"/>
<rect width="32" height="1" transform="matrix(-1 0 0 1 52.6674 983)" fill="#1A1A1A"/>
<rect width="32" height="1" transform="matrix(-1 0 0 1 52.6674 1253)" fill="#1A1A1A"/>
<rect width="32" height="1" transform="matrix(-1 0 0 1 52.6674 722)" fill="#1A1A1A"/>
<rect width="32" height="1" transform="matrix(-1 0 0 1 52.6674 992)" fill="#1A1A1A"/>
<rect width="32" height="1" transform="matrix(-1 0 0 1 52.6674 1262)" fill="#1A1A1A"/>
<rect width="32" height="1" transform="matrix(-1 0 0 1 52.6674 731)" fill="#1A1A1A"/>
<rect width="32" height="1" transform="matrix(-1 0 0 1 52.6674 1001)" fill="#1A1A1A"/>
<rect width="32" height="1" transform="matrix(-1 0 0 1 52.6674 1271)" fill="#1A1A1A"/>
<rect width="32" height="1" transform="matrix(-1 0 0 1 52.6674 740)" fill="#1A1A1A"/>
<rect width="32" height="1" transform="matrix(-1 0 0 1 52.6674 1010)" fill="#1A1A1A"/>
<rect width="32" height="1" transform="matrix(-1 0 0 1 52.6674 1280)" fill="#1A1A1A"/>
<rect width="32" height="1" transform="matrix(-1 0 0 1 52.6674 749)" fill="#1A1A1A"/>
<rect width="32" height="1" transform="matrix(-1 0 0 1 52.6674 1019)" fill="#1A1A1A"/>
<rect width="32" height="1" transform="matrix(-1 0 0 1 52.6674 1289)" fill="#1A1A1A"/>
<rect width="32" height="1" transform="matrix(-1 0 0 1 52.6674 758)" fill="#1A1A1A"/>
<rect width="32" height="1" transform="matrix(-1 0 0 1 52.6674 1028)" fill="#1A1A1A"/>
<rect width="32" height="1" transform="matrix(-1 0 0 1 52.6674 1298)" fill="#1A1A1A"/>
<rect width="32" height="1" transform="matrix(-1 0 0 1 52.6674 767)" fill="#1A1A1A"/>
<rect width="32" height="1" transform="matrix(-1 0 0 1 52.6674 1037)" fill="#1A1A1A"/>
<rect width="32" height="1" transform="matrix(-1 0 0 1 52.6674 1307)" fill="#1A1A1A"/>
<rect width="32" height="1" transform="matrix(-1 0 0 1 52.6674 776)" fill="#1A1A1A"/>
<rect width="32" height="1" transform="matrix(-1 0 0 1 52.6674 1046)" fill="#1A1A1A"/>
<rect width="32" height="1" transform="matrix(-1 0 0 1 52.6674 1316)" fill="#1A1A1A"/>
<rect width="32" height="1" transform="matrix(-1 0 0 1 52.6674 785)" fill="#1A1A1A"/>
<rect width="32" height="1" transform="matrix(-1 0 0 1 52.6674 1055)" fill="#1A1A1A"/>
<rect width="32" height="1" transform="matrix(-1 0 0 1 52.6674 1325)" fill="#1A1A1A"/>
<rect width="32" height="1" transform="matrix(-1 0 0 1 52.6674 794)" fill="#1A1A1A"/>
<rect width="32" height="1" transform="matrix(-1 0 0 1 52.6674 1064)" fill="#1A1A1A"/>
<rect width="32" height="1" transform="matrix(-1 0 0 1 52.6674 1334)" fill="#1A1A1A"/>
<rect width="32" height="1" transform="matrix(-1 0 0 1 52.6674 803)" fill="#1A1A1A"/>
<rect width="32" height="1" transform="matrix(-1 0 0 1 52.6674 1073)" fill="#1A1A1A"/>
<rect width="32" height="1" transform="matrix(-1 0 0 1 52.6674 1343)" fill="#1A1A1A"/>
<rect width="32" height="1" transform="matrix(-1 0 0 1 52.6674 812)" fill="#1A1A1A"/>
<rect width="32" height="1" transform="matrix(-1 0 0 1 52.6674 1082)" fill="#1A1A1A"/>
<rect width="32" height="1" transform="matrix(-1 0 0 1 52.6674 1352)" fill="#1A1A1A"/>
<rect width="32" height="1" transform="matrix(-1 0 0 1 52.6674 821)" fill="#1A1A1A"/>
<rect width="32" height="1" transform="matrix(-1 0 0 1 52.6674 1091)" fill="#1A1A1A"/>
<rect width="32" height="1" transform="matrix(-1 0 0 1 52.6674 1361)" fill="#1A1A1A"/>
<rect width="32" height="1" transform="matrix(-1 0 0 1 52.6674 830)" fill="#1A1A1A"/>
<rect width="32" height="1" transform="matrix(-1 0 0 1 52.6674 1100)" fill="#1A1A1A"/>
<rect width="32" height="1" transform="matrix(-1 0 0 1 52.6674 839)" fill="#1A1A1A"/>
<rect width="32" height="1" transform="matrix(-1 0 0 1 52.6674 1109)" fill="#1A1A1A"/>
<rect width="32" height="1" transform="matrix(-1 0 0 1 52.6674 848)" fill="#1A1A1A"/>
<rect width="32" height="1" transform="matrix(-1 0 0 1 52.6674 1118)" fill="#1A1A1A"/>
<rect width="32" height="1" transform="matrix(-1 0 0 1 52.6674 857)" fill="#1A1A1A"/>
<rect width="32" height="1" transform="matrix(-1 0 0 1 52.6674 1127)" fill="#1A1A1A"/>
<rect width="32" height="1" transform="matrix(-1 0 0 1 52.6674 866)" fill="#1A1A1A"/>
<rect width="32" height="1" transform="matrix(-1 0 0 1 52.6674 1136)" fill="#1A1A1A"/>
<rect width="32" height="1" transform="matrix(-1 0 0 1 52.6674 875)" fill="#1A1A1A"/>
<rect width="32" height="1" transform="matrix(-1 0 0 1 52.6674 1145)" fill="#1A1A1A"/>
<rect width="32" height="1" transform="matrix(-1 0 0 1 52.6674 884)" fill="#1A1A1A"/>
<rect width="32" height="1" transform="matrix(-1 0 0 1 52.6674 1154)" fill="#1A1A1A"/>
<rect width="32" height="1" transform="matrix(-1 0 0 1 52.6674 893)" fill="#1A1A1A"/>
<rect width="32" height="1" transform="matrix(-1 0 0 1 52.6674 1163)" fill="#1A1A1A"/>
<rect width="32" height="1" transform="matrix(-1 0 0 1 52.6674 902)" fill="#1A1A1A"/>
<rect width="32" height="1" transform="matrix(-1 0 0 1 52.6674 1172)" fill="#1A1A1A"/>
<rect width="32" height="1" transform="matrix(-1 0 0 1 52.6674 911)" fill="#1A1A1A"/>
<rect width="32" height="1" transform="matrix(-1 0 0 1 52.6674 1181)" fill="#1A1A1A"/>
</g>
<path d="M0 0H1V8172H0H-1V0H0Z" fill="#1A1A1A" mask="url(#path-1-inside-1_80_5387)"/>
<defs>
<clipPath id="clip0_80_5387">
<path d="M72 0H0V8172H72V0Z" fill="white"/>
</clipPath>
</defs>
</svg>
