<svg width="44" height="39" viewBox="0 0 44 39" fill="none" xmlns="http://www.w3.org/2000/svg">
<path d="M16.0051 34.3721C16.0051 36.8044 14.0332 38.7864 11.6009 38.7864H8.96935C6.53698 38.7864 4.56514 36.8044 4.56513 34.3721H16.0051ZM23.0412 29.9577C25.4736 29.9578 27.4454 31.9398 27.4455 34.3721H38.885C38.885 36.8044 36.9132 38.7864 34.4808 38.7864H31.8493C29.417 38.7864 27.4452 36.8045 27.4451 34.3723H16.0053C16.0053 31.9399 17.9772 29.9578 20.4095 29.9577H23.0412ZM4.56513 34.3721C2.13276 34.3721 0.150391 32.4002 0.150391 29.9678V9.55118C0.150391 7.11881 2.13256 5.14697 4.56493 5.14696L4.56513 34.3721ZM38.9656 5.14696C41.3979 5.14696 43.3801 7.1188 43.3801 9.55118L43.3801 29.9678C43.3801 32.4002 41.3979 34.3721 38.9656 34.3721L38.9656 5.14696ZM10.996 13.0571C12.212 13.0571 13.1979 14.043 13.1979 15.259V24.2598C13.1979 25.4758 12.212 26.4617 10.996 26.4617C9.77997 26.4617 8.79413 25.4758 8.79411 24.2598V15.259C8.79414 14.043 9.77997 13.0571 10.996 13.0571ZM32.3412 13.0571C33.5573 13.0571 34.5431 14.043 34.5431 15.259V24.2598C34.5431 25.4758 33.5573 26.4617 32.3412 26.4617C31.1252 26.4617 30.1393 25.4758 30.1393 24.2598L30.1393 15.259C30.1393 14.043 31.1252 13.0571 32.3412 13.0571ZM34.4808 0.732422C36.9132 0.732422 38.885 2.71458 38.885 5.14696H27.4455C27.4454 7.57923 25.4735 9.56127 23.0412 9.5613H20.4095C17.9772 9.56125 16.0053 7.57911 16.0053 5.14676H27.4451C27.4451 2.71445 29.417 0.732433 31.8493 0.732422H34.4808ZM11.6009 0.732422C14.0333 0.732422 16.0051 2.71458 16.0051 5.14696H4.56493C4.56493 2.71458 6.53698 0.732422 8.96935 0.732422H11.6009Z" fill="#FF3604"/>
</svg>
