<svg width="31" height="60" viewBox="0 0 31 60" fill="none" xmlns="http://www.w3.org/2000/svg">
<path d="M13.2561 39.9436V38.0175C10.8484 37.7767 8.92228 35.7061 8.92228 33.2503V20.7305C8.92228 18.082 11.0892 15.9151 13.7376 15.9151H17.5899C20.2383 15.9151 22.4052 18.082 22.4052 20.7305V33.2503C22.4052 35.7543 20.4791 37.7767 18.0714 38.0175V39.9436C21.5866 39.7028 24.3313 36.7655 24.3313 33.2503V20.7305C24.3313 17.0227 21.2977 13.989 17.5899 13.989H13.7376C10.0298 13.989 6.99615 17.0227 6.99615 20.7305V33.2503C6.99615 36.8136 9.74089 39.7028 13.2561 39.9436Z" fill="url(#paint0_linear_80_3760)"/>
<path d="M15.6615 25.2379C16.377 25.2379 16.9624 24.6525 16.9624 23.9371V20.0346C16.9624 19.3191 16.377 18.7338 15.6615 18.7338C14.9461 18.7338 14.3607 19.3191 14.3607 20.0346V23.9371C14.3607 24.6525 14.9461 25.2379 15.6615 25.2379Z" fill="white"/>
<rect x="24.3295" y="33.8275" width="4" height="4" transform="rotate(90 24.3295 33.8275)" fill="#FF3604"/>
<rect x="10.9962" y="33.8275" width="4" height="4" transform="rotate(90 10.9962 33.8275)" fill="#FF3604"/>
<rect x="17.6628" y="40.4941" width="4" height="4" transform="rotate(90 17.6628 40.4941)" fill="#FF3604"/>
<defs>
<linearGradient id="paint0_linear_80_3760" x1="15.6637" y1="13.989" x2="15.6637" y2="38.3988" gradientUnits="userSpaceOnUse">
<stop stop-color="white"/>
<stop offset="1" stop-opacity="0"/>
</linearGradient>
</defs>
</svg>
