<svg width="1285" height="852" viewBox="0 0 1285 852" fill="none" xmlns="http://www.w3.org/2000/svg">
<mask id="mask0_81_4351" style="mask-type:alpha" maskUnits="userSpaceOnUse" x="0" y="-1" width="1285" height="853">
<path d="M427.992 13.0674C427.992 17.4857 431.574 21.0674 435.992 21.0674H849.017C853.435 21.0674 857.017 17.4857 857.017 13.0674V7.63086C857.017 3.21258 860.598 -0.369141 865.017 -0.369141H1277C1281.41 -0.369141 1285 3.21258 1285 7.63086V843.287C1285 847.705 1281.41 851.287 1277 851.287H865.017C860.598 851.287 857.017 847.705 857.017 843.287V835.258C857.017 830.84 853.435 827.258 849.017 827.258H435.992C431.574 827.258 427.992 830.84 427.992 835.258V843.287C427.992 847.705 424.41 851.287 419.992 851.287H8.00001C3.58173 851.287 0 847.705 0 843.287V7.63085C0 3.21257 3.58172 -0.369141 8 -0.369141H419.992C424.41 -0.369141 427.992 3.21258 427.992 7.63086V13.0674Z" fill="#FA3301"/>
</mask>
<g mask="url(#mask0_81_4351)">
<g clip-path="url(#clip0_81_4351)">
<rect x="-71" y="-0.369141" width="1438" height="851.479" fill="url(#paint0_linear_81_4351)"/>
<g opacity="0.31">
<rect y="354.714" width="61.1903" height="61.1903" fill="#D72C02" fill-opacity="0.2"/>
<rect opacity="0.34" x="183.576" y="295.678" width="61.1903" height="61.1903" fill="#D72C02"/>
<rect opacity="0.56" x="122.381" y="354.714" width="61.1903" height="61.1903" fill="#D72C02"/>
<rect opacity="0.39" x="305.951" y="354.714" width="61.1903" height="61.1903" fill="#D72C02"/>
<rect x="367.143" y="354.714" width="61.1903" height="61.1903" fill="#D72C02" fill-opacity="0.2"/>
<rect opacity="0.34" x="428.332" y="354.714" width="61.1903" height="61.1903" fill="#D72C02"/>
<rect opacity="0.39" x="489.521" y="354.714" width="61.1903" height="61.1903" fill="#D72C02"/>
<rect opacity="0.56" x="550.713" y="354.714" width="61.1903" height="61.1903" fill="#D72C02"/>
<rect x="611.902" y="354.714" width="61.1903" height="61.1903" fill="#D72C02" fill-opacity="0.2"/>
<rect x="673.094" y="354.714" width="61.1903" height="61.1903" fill="#D72C02" fill-opacity="0.2"/>
<rect opacity="0.54" x="734.283" y="354.714" width="61.1903" height="61.1903" fill="#D72C02"/>
<rect opacity="0.39" x="795.475" y="354.714" width="61.1903" height="61.1903" fill="#D72C02" fill-opacity="0.2"/>
<rect opacity="0.23" x="856.664" y="296.678" width="61.1903" height="61.1903" fill="#D72C02"/>
<rect opacity="0.34" x="979.045" y="354.714" width="61.1903" height="61.1903" fill="#D72C02"/>
<rect opacity="0.56" x="1040.23" y="354.714" width="61.1903" height="61.1903" fill="#D72C02" fill-opacity="0.2"/>
<rect opacity="0.39" x="1162.62" y="354.714" width="61.1903" height="61.1903" fill="#D72C02"/>
<rect opacity="0.56" x="1223.81" y="354.714" width="61.1903" height="61.1903" fill="#D72C02"/>
<rect y="415.904" width="61.1903" height="61.1903" fill="#D72C02"/>
<rect x="122.379" y="415.904" width="61.1903" height="61.1903" fill="#D72C02" fill-opacity="0.2"/>
<rect y="294.178" width="61.1903" height="61.1903" fill="#D72C02" fill-opacity="0.2"/>
<rect opacity="0.56" x="183.57" y="415.904" width="61.1903" height="61.1903" fill="#D72C02"/>
<rect x="244.762" y="415.904" width="61.1903" height="61.1903" fill="#D72C02" fill-opacity="0.2"/>
<rect opacity="0.56" x="305.951" y="415.904" width="61.1903" height="61.1903" fill="#D72C02"/>
<rect x="428.332" y="415.904" width="61.1903" height="61.1903" fill="#D72C02" fill-opacity="0.2"/>
<rect x="489.521" y="415.904" width="61.1903" height="61.1903" fill="#D72C02"/>
<rect opacity="0.54" x="550.713" y="415.904" width="61.1903" height="61.1903" fill="#D72C02" fill-opacity="0.2"/>
<rect opacity="0.34" x="611.902" y="415.904" width="61.1903" height="61.1903" fill="#D72C02"/>
<rect opacity="0.54" x="673.094" y="415.904" width="61.1903" height="61.1903" fill="#D72C02"/>
<rect x="734.283" y="415.904" width="61.1903" height="61.1903" fill="#D72C02" fill-opacity="0.2"/>
<rect opacity="0.39" x="795.475" y="415.904" width="61.1903" height="61.1903" fill="#D72C02"/>
<rect x="917.854" y="415.904" width="61.1903" height="61.1903" fill="#D72C02" fill-opacity="0.2"/>
<rect opacity="0.39" x="979.045" y="415.904" width="61.1903" height="61.1903" fill="#D72C02"/>
<rect opacity="0.39" x="1040.23" y="415.904" width="61.1903" height="61.1903" fill="#D72C02"/>
<rect opacity="0.34" x="1101.43" y="415.904" width="61.1903" height="61.1903" fill="#D72C02"/>
<rect x="1162.62" y="415.904" width="61.1903" height="61.1903" fill="#D72C02" fill-opacity="0.2"/>
<rect x="1223.81" y="415.904" width="61.1903" height="61.1903" fill="#D72C02"/>
<rect y="477.095" width="61.1903" height="61.1903" fill="#D72C02" fill-opacity="0.2"/>
<rect opacity="0.39" x="61.1895" y="477.095" width="61.1903" height="61.1903" fill="#D72C02"/>
<rect opacity="0.34" x="122.381" y="477.095" width="61.1903" height="61.1903" fill="#D72C02"/>
<rect x="183.57" y="477.095" width="61.1903" height="61.1903" fill="#D72C02" fill-opacity="0.2"/>
<rect x="244.762" y="477.095" width="61.1903" height="61.1903" fill="#D72C02"/>
<rect opacity="0.34" x="305.951" y="477.095" width="61.1903" height="61.1903" fill="#D72C02"/>
<rect opacity="0.56" x="367.143" y="477.095" width="61.1903" height="61.1903" fill="#D72C02"/>
<rect x="428.332" y="477.095" width="61.1903" height="61.1903" fill="#D72C02" fill-opacity="0.2"/>
<rect opacity="0.39" x="550.713" y="477.095" width="61.1903" height="61.1903" fill="#D72C02"/>
<rect opacity="0.54" x="611.902" y="477.095" width="61.1903" height="61.1903" fill="#D72C02"/>
<rect x="734.283" y="477.095" width="61.1903" height="61.1903" fill="#D72C02"/>
<rect opacity="0.39" x="795.475" y="477.095" width="61.1903" height="61.1903" fill="#D72C02"/>
<rect x="856.664" y="477.095" width="61.1903" height="61.1903" fill="#D72C02" fill-opacity="0.2"/>
<rect opacity="0.39" x="917.855" y="477.095" width="61.1903" height="61.1903" fill="#D72C02"/>
<rect opacity="0.39" x="1101.42" y="293.523" width="61.1903" height="61.1903" fill="#D72C02"/>
<rect opacity="0.56" x="979.045" y="477.095" width="61.1903" height="61.1903" fill="#D72C02"/>
<rect x="1040.23" y="477.095" width="61.1903" height="61.1903" fill="#D72C02" fill-opacity="0.2"/>
<rect x="1101.43" y="477.095" width="61.1903" height="61.1903" fill="#D72C02"/>
<rect opacity="0.54" x="1162.62" y="477.095" width="61.1903" height="61.1903" fill="#D72C02"/>
<rect opacity="0.56" x="1223.81" y="477.095" width="61.1903" height="61.1903" fill="#D72C02"/>
<rect opacity="0.54" y="538.284" width="61.1903" height="61.1903" fill="#D72C02"/>
<rect x="61.1895" y="538.284" width="61.1903" height="61.1903" fill="#D72C02" fill-opacity="0.2"/>
<rect opacity="0.39" x="122.381" y="538.284" width="61.1903" height="61.1903" fill="#D72C02" fill-opacity="0.2"/>
<rect opacity="0.54" x="183.57" y="538.284" width="61.1903" height="61.1903" fill="#D72C02"/>
<rect opacity="0.56" x="244.762" y="538.284" width="61.1903" height="61.1903" fill="#D72C02"/>
<rect x="305.951" y="538.284" width="61.1903" height="61.1903" fill="#D72C02" fill-opacity="0.2"/>
<rect opacity="0.34" x="367.143" y="538.284" width="61.1903" height="61.1903" fill="#D72C02"/>
<rect opacity="0.54" x="428.332" y="538.284" width="61.1903" height="61.1903" fill="#D72C02"/>
<rect opacity="0.39" x="489.521" y="538.284" width="61.1903" height="61.1903" fill="#D72C02"/>
<rect x="550.713" y="538.284" width="61.1903" height="61.1903" fill="#D72C02" fill-opacity="0.2"/>
<rect x="611.902" y="538.284" width="61.1903" height="61.1903" fill="#D72C02" fill-opacity="0.2"/>
<rect opacity="0.56" x="673.094" y="538.284" width="61.1903" height="61.1903" fill="#D72C02"/>
<rect opacity="0.34" x="734.283" y="538.284" width="61.1903" height="61.1903" fill="#D72C02"/>
<rect opacity="0.54" x="795.475" y="538.284" width="61.1903" height="61.1903" fill="#D72C02"/>
<rect opacity="0.56" x="856.664" y="538.284" width="61.1903" height="61.1903" fill="#D72C02"/>
<rect x="917.854" y="538.284" width="61.1903" height="61.1903" fill="#D72C02" fill-opacity="0.2"/>
<rect opacity="0.39" x="979.045" y="538.284" width="61.1903" height="61.1903" fill="#D72C02"/>
<rect opacity="0.39" x="1040.23" y="538.284" width="61.1903" height="61.1903" fill="#D72C02"/>
<rect x="1101.43" y="538.284" width="61.1903" height="61.1903" fill="#D72C02" fill-opacity="0.2"/>
<rect opacity="0.39" x="1162.62" y="538.284" width="61.1903" height="61.1903" fill="#D72C02"/>
<rect x="1223.81" y="538.284" width="61.1903" height="61.1903" fill="#D72C02" fill-opacity="0.2"/>
<rect y="599.475" width="61.1903" height="61.1903" fill="#D72C02"/>
<rect opacity="0.56" x="61.1895" y="599.475" width="61.1903" height="61.1903" fill="#D72C02"/>
<rect opacity="0.39" x="122.381" y="599.475" width="61.1903" height="61.1903" fill="#D72C02"/>
<rect opacity="0.34" x="183.57" y="599.475" width="61.1903" height="61.1903" fill="#D72C02"/>
<rect opacity="0.39" x="244.762" y="599.475" width="61.1903" height="61.1903" fill="#D72C02" fill-opacity="0.2"/>
<rect opacity="0.56" x="305.951" y="599.475" width="61.1903" height="61.1903" fill="#D72C02"/>
<rect x="367.143" y="599.475" width="61.1903" height="61.1903" fill="#D72C02"/>
<rect x="428.332" y="599.475" width="61.1903" height="61.1903" fill="#D72C02" fill-opacity="0.2"/>
<rect x="489.521" y="599.475" width="61.1903" height="61.1903" fill="#D72C02"/>
<rect x="550.713" y="599.475" width="61.1903" height="61.1903" fill="#D72C02" fill-opacity="0.2"/>
<rect opacity="0.34" x="611.902" y="599.475" width="61.1903" height="61.1903" fill="#D72C02"/>
<rect opacity="0.54" x="673.094" y="599.475" width="61.1903" height="61.1903" fill="#D72C02"/>
<rect opacity="0.39" x="734.283" y="599.475" width="61.1903" height="61.1903" fill="#D72C02"/>
<rect x="795.475" y="599.475" width="61.1903" height="61.1903" fill="#D72C02" fill-opacity="0.2"/>
<rect x="856.664" y="599.475" width="61.1903" height="61.1903" fill="#D72C02"/>
<rect opacity="0.34" x="917.854" y="599.475" width="61.1903" height="61.1903" fill="#D72C02"/>
<rect x="979.045" y="599.475" width="61.1903" height="61.1903" fill="#D72C02"/>
<rect opacity="0.56" x="1040.23" y="599.475" width="61.1903" height="61.1903" fill="#D72C02"/>
<rect x="1101.43" y="599.475" width="61.1903" height="61.1903" fill="#D72C02"/>
<rect x="1162.62" y="599.475" width="61.1903" height="61.1903" fill="#D72C02" fill-opacity="0.2"/>
<rect x="1223.81" y="599.475" width="61.1903" height="61.1903" fill="#D72C02" fill-opacity="0.2"/>
<rect opacity="0.56" y="660.665" width="61.1903" height="61.1903" fill="#D72C02"/>
<rect x="61.1895" y="660.665" width="61.1903" height="61.1903" fill="#D72C02"/>
<rect x="122.381" y="660.665" width="61.1903" height="61.1903" fill="#D72C02" fill-opacity="0.2"/>
<rect x="183.57" y="660.665" width="61.1903" height="61.1903" fill="#D72C02" fill-opacity="0.2"/>
<rect x="244.762" y="660.665" width="61.1903" height="61.1903" fill="#D72C02"/>
<rect opacity="0.56" x="305.951" y="660.665" width="61.1903" height="61.1903" fill="#D72C02"/>
<rect opacity="0.39" x="367.143" y="660.665" width="61.1903" height="61.1903" fill="#D72C02"/>
<rect x="428.332" y="660.665" width="61.1903" height="61.1903" fill="#D72C02"/>
<rect opacity="0.39" x="489.521" y="660.665" width="61.1903" height="61.1903" fill="#D72C02"/>
<rect x="550.713" y="660.665" width="61.1903" height="61.1903" fill="#D72C02"/>
<rect opacity="0.56" x="611.902" y="660.665" width="61.1903" height="61.1903" fill="#D72C02"/>
<rect x="673.094" y="660.665" width="61.1903" height="61.1903" fill="#D72C02"/>
<rect opacity="0.56" x="734.283" y="660.665" width="61.1903" height="61.1903" fill="#D72C02"/>
<rect x="795.475" y="660.665" width="61.1903" height="61.1903" fill="#D72C02"/>
<rect x="856.664" y="660.665" width="61.1903" height="61.1903" fill="#D72C02" fill-opacity="0.2"/>
<rect x="917.854" y="660.665" width="61.1903" height="61.1903" fill="#D72C02"/>
<rect opacity="0.56" x="979.045" y="660.665" width="61.1903" height="61.1903" fill="#D72C02"/>
<rect x="1040.23" y="660.665" width="61.1903" height="61.1903" fill="#D72C02" fill-opacity="0.2"/>
<rect x="1101.43" y="660.665" width="61.1903" height="61.1903" fill="#D72C02" fill-opacity="0.2"/>
<rect opacity="0.34" x="1162.62" y="660.665" width="61.1903" height="61.1903" fill="#D72C02"/>
<rect x="1223.81" y="660.665" width="61.1903" height="61.1903" fill="#D72C02"/>
</g>
</g>
</g>
<defs>
<linearGradient id="paint0_linear_81_4351" x1="648" y1="-0.369141" x2="648" y2="851.109" gradientUnits="userSpaceOnUse">
<stop stop-opacity="0"/>
<stop offset="0.5" stop-color="#791800"/>
<stop offset="1" stop-color="#F13000"/>
</linearGradient>
<clipPath id="clip0_81_4351">
<rect y="0.109375" width="1285" height="851" rx="8" fill="white"/>
</clipPath>
</defs>
</svg>
