<svg width="1714" height="1079" viewBox="0 0 1714 1079" fill="none" xmlns="http://www.w3.org/2000/svg">
<mask id="mask0_38_2286" style="mask-type:alpha" maskUnits="userSpaceOnUse" x="0" y="0" width="1714" height="1079">
<path d="M571.156 16.6407C571.156 22.5317 575.932 27.3074 581.823 27.3074H1132.52C1138.41 27.3074 1143.19 22.5317 1143.19 16.6407V10.8412C1143.19 4.95019 1147.96 0.174561 1153.86 0.174561H1703.16C1709.05 0.174561 1713.83 4.95019 1713.83 10.8412V1067.48C1713.83 1073.37 1709.05 1078.15 1703.16 1078.15H1153.86C1147.96 1078.15 1143.19 1073.37 1143.19 1067.48V1058.4C1143.19 1052.51 1138.41 1047.73 1132.52 1047.73H581.823C575.932 1047.73 571.156 1052.51 571.156 1058.4V1067.48C571.156 1073.37 566.381 1078.15 560.49 1078.15H11.1667C5.27564 1078.15 0.5 1073.37 0.5 1067.48V10.8412C0.5 4.95015 5.27563 0.174561 11.1667 0.174561H560.49C566.381 0.174561 571.156 4.95019 571.156 10.8412V16.6407Z" fill="#FA3301"/>
</mask>
<g mask="url(#mask0_38_2286)">
<g clip-path="url(#clip0_38_2286)">
<rect x="-94.166" y="-79.8257" width="1917.33" height="1175.73" fill="url(#paint0_linear_38_2286)"/>
<g opacity="0.31">
<rect x="0.5" y="393.619" width="81.5871" height="81.5871" fill="#D72C02" fill-opacity="0.2"/>
<rect opacity="0.34" x="245.266" y="314.904" width="81.5871" height="81.5871" fill="#D72C02"/>
<rect opacity="0.56" x="163.672" y="393.619" width="81.5871" height="81.5871" fill="#D72C02"/>
<rect opacity="0.39" x="408.438" y="393.619" width="81.5871" height="81.5871" fill="#D72C02"/>
<rect x="490.021" y="393.619" width="81.5871" height="81.5871" fill="#D72C02" fill-opacity="0.2"/>
<rect opacity="0.34" x="571.609" y="393.619" width="81.5871" height="81.5871" fill="#D72C02"/>
<rect opacity="0.39" x="653.197" y="393.619" width="81.5871" height="81.5871" fill="#D72C02"/>
<rect opacity="0.56" x="734.781" y="393.619" width="81.5871" height="81.5871" fill="#D72C02"/>
<rect x="816.369" y="393.619" width="81.5871" height="81.5871" fill="#D72C02" fill-opacity="0.2"/>
<rect x="897.959" y="393.619" width="81.5871" height="81.5871" fill="#D72C02" fill-opacity="0.2"/>
<rect opacity="0.54" x="979.547" y="393.619" width="81.5871" height="81.5871" fill="#D72C02"/>
<rect opacity="0.39" x="1061.13" y="393.619" width="81.5871" height="81.5871" fill="#D72C02" fill-opacity="0.2"/>
<rect opacity="0.23" x="1142.72" y="316.237" width="81.5871" height="81.5871" fill="#D72C02"/>
<rect opacity="0.34" x="1305.89" y="393.619" width="81.5871" height="81.5871" fill="#D72C02"/>
<rect opacity="0.56" x="1387.48" y="393.619" width="81.5871" height="81.5871" fill="#D72C02" fill-opacity="0.2"/>
<rect opacity="0.39" x="1550.66" y="393.619" width="81.5871" height="81.5871" fill="#D72C02"/>
<rect opacity="0.56" x="1632.24" y="393.619" width="81.5871" height="81.5871" fill="#D72C02"/>
<rect x="0.5" y="475.206" width="81.5871" height="81.5871" fill="#D72C02"/>
<rect x="163.672" y="475.206" width="81.5871" height="81.5871" fill="#D72C02" fill-opacity="0.2"/>
<rect x="0.5" y="312.904" width="81.5871" height="81.5871" fill="#D72C02" fill-opacity="0.2"/>
<rect opacity="0.56" x="245.26" y="475.206" width="81.5871" height="81.5871" fill="#D72C02"/>
<rect x="326.85" y="475.206" width="81.5871" height="81.5871" fill="#D72C02" fill-opacity="0.2"/>
<rect opacity="0.56" x="408.438" y="475.206" width="81.5871" height="81.5871" fill="#D72C02"/>
<rect x="571.609" y="475.206" width="81.5871" height="81.5871" fill="#D72C02" fill-opacity="0.2"/>
<rect x="653.197" y="475.206" width="81.5871" height="81.5871" fill="#D72C02"/>
<rect opacity="0.54" x="734.781" y="475.206" width="81.5871" height="81.5871" fill="#D72C02" fill-opacity="0.2"/>
<rect opacity="0.34" x="816.369" y="475.206" width="81.5871" height="81.5871" fill="#D72C02"/>
<rect opacity="0.54" x="897.959" y="475.206" width="81.5871" height="81.5871" fill="#D72C02"/>
<rect x="979.547" y="475.206" width="81.5871" height="81.5871" fill="#D72C02" fill-opacity="0.2"/>
<rect opacity="0.39" x="1061.13" y="475.206" width="81.5871" height="81.5871" fill="#D72C02"/>
<rect x="1224.31" y="475.206" width="81.5871" height="81.5871" fill="#D72C02" fill-opacity="0.2"/>
<rect opacity="0.39" x="1305.89" y="475.206" width="81.5871" height="81.5871" fill="#D72C02"/>
<rect opacity="0.39" x="1387.48" y="475.206" width="81.5871" height="81.5871" fill="#D72C02"/>
<rect opacity="0.34" x="1469.07" y="475.206" width="81.5871" height="81.5871" fill="#D72C02"/>
<rect x="1550.66" y="475.206" width="81.5871" height="81.5871" fill="#D72C02" fill-opacity="0.2"/>
<rect x="1632.24" y="475.206" width="81.5871" height="81.5871" fill="#D72C02"/>
<rect x="0.5" y="556.793" width="81.5871" height="81.5871" fill="#D72C02" fill-opacity="0.2"/>
<rect opacity="0.39" x="82.0879" y="556.793" width="81.5871" height="81.5871" fill="#D72C02"/>
<rect opacity="0.34" x="163.672" y="556.793" width="81.5871" height="81.5871" fill="#D72C02"/>
<rect x="245.26" y="556.793" width="81.5871" height="81.5871" fill="#D72C02" fill-opacity="0.2"/>
<rect x="326.85" y="556.793" width="81.5871" height="81.5871" fill="#D72C02"/>
<rect opacity="0.34" x="408.438" y="556.793" width="81.5871" height="81.5871" fill="#D72C02"/>
<rect opacity="0.56" x="490.021" y="556.793" width="81.5871" height="81.5871" fill="#D72C02"/>
<rect x="571.609" y="556.793" width="81.5871" height="81.5871" fill="#D72C02" fill-opacity="0.2"/>
<rect opacity="0.39" x="734.781" y="556.793" width="81.5871" height="81.5871" fill="#D72C02"/>
<rect opacity="0.54" x="816.369" y="556.793" width="81.5871" height="81.5871" fill="#D72C02"/>
<rect x="979.547" y="556.793" width="81.5871" height="81.5871" fill="#D72C02"/>
<rect opacity="0.39" x="1061.13" y="556.793" width="81.5871" height="81.5871" fill="#D72C02"/>
<rect x="1142.72" y="556.793" width="81.5871" height="81.5871" fill="#D72C02" fill-opacity="0.2"/>
<rect opacity="0.39" x="1224.31" y="556.793" width="81.5871" height="81.5871" fill="#D72C02"/>
<rect opacity="0.39" x="1469.07" y="312.031" width="81.5871" height="81.5871" fill="#D72C02"/>
<rect opacity="0.56" x="1305.89" y="556.793" width="81.5871" height="81.5871" fill="#D72C02"/>
<rect x="1387.48" y="556.793" width="81.5871" height="81.5871" fill="#D72C02" fill-opacity="0.2"/>
<rect x="1469.07" y="556.793" width="81.5871" height="81.5871" fill="#D72C02"/>
<rect opacity="0.54" x="1550.66" y="556.793" width="81.5871" height="81.5871" fill="#D72C02"/>
<rect opacity="0.56" x="1632.24" y="556.793" width="81.5871" height="81.5871" fill="#D72C02"/>
<rect opacity="0.54" x="0.5" y="638.379" width="81.5871" height="81.5871" fill="#D72C02"/>
<rect x="82.0879" y="638.379" width="81.5871" height="81.5871" fill="#D72C02" fill-opacity="0.2"/>
<rect opacity="0.39" x="163.672" y="638.379" width="81.5871" height="81.5871" fill="#D72C02" fill-opacity="0.2"/>
<rect opacity="0.54" x="245.26" y="638.379" width="81.5871" height="81.5871" fill="#D72C02"/>
<rect opacity="0.56" x="326.85" y="638.379" width="81.5871" height="81.5871" fill="#D72C02"/>
<rect x="408.438" y="638.379" width="81.5871" height="81.5871" fill="#D72C02" fill-opacity="0.2"/>
<rect opacity="0.34" x="490.021" y="638.379" width="81.5871" height="81.5871" fill="#D72C02"/>
<rect opacity="0.54" x="571.609" y="638.379" width="81.5871" height="81.5871" fill="#D72C02"/>
<rect opacity="0.39" x="653.197" y="638.379" width="81.5871" height="81.5871" fill="#D72C02"/>
<rect x="734.781" y="638.379" width="81.5871" height="81.5871" fill="#D72C02" fill-opacity="0.2"/>
<rect x="816.369" y="638.379" width="81.5871" height="81.5871" fill="#D72C02" fill-opacity="0.2"/>
<rect opacity="0.56" x="897.959" y="638.379" width="81.5871" height="81.5871" fill="#D72C02"/>
<rect opacity="0.34" x="979.547" y="638.379" width="81.5871" height="81.5871" fill="#D72C02"/>
<rect opacity="0.54" x="1061.13" y="638.379" width="81.5871" height="81.5871" fill="#D72C02"/>
<rect opacity="0.56" x="1142.72" y="638.379" width="81.5871" height="81.5871" fill="#D72C02"/>
<rect x="1224.31" y="638.379" width="81.5871" height="81.5871" fill="#D72C02" fill-opacity="0.2"/>
<rect opacity="0.39" x="1305.89" y="638.379" width="81.5871" height="81.5871" fill="#D72C02"/>
<rect opacity="0.39" x="1387.48" y="638.379" width="81.5871" height="81.5871" fill="#D72C02"/>
<rect x="1469.07" y="638.379" width="81.5871" height="81.5871" fill="#D72C02" fill-opacity="0.2"/>
<rect opacity="0.39" x="1550.66" y="638.379" width="81.5871" height="81.5871" fill="#D72C02"/>
<rect x="1632.24" y="638.379" width="81.5871" height="81.5871" fill="#D72C02" fill-opacity="0.2"/>
<rect x="0.5" y="719.966" width="81.5871" height="81.5871" fill="#D72C02"/>
<rect opacity="0.56" x="82.0879" y="719.966" width="81.5871" height="81.5871" fill="#D72C02"/>
<rect opacity="0.39" x="163.672" y="719.966" width="81.5871" height="81.5871" fill="#D72C02"/>
<rect opacity="0.34" x="245.26" y="719.966" width="81.5871" height="81.5871" fill="#D72C02"/>
<rect opacity="0.39" x="326.85" y="719.966" width="81.5871" height="81.5871" fill="#D72C02" fill-opacity="0.2"/>
<rect opacity="0.56" x="408.438" y="719.966" width="81.5871" height="81.5871" fill="#D72C02"/>
<rect x="490.021" y="719.966" width="81.5871" height="81.5871" fill="#D72C02"/>
<rect x="571.609" y="719.966" width="81.5871" height="81.5871" fill="#D72C02" fill-opacity="0.2"/>
<rect x="653.197" y="719.966" width="81.5871" height="81.5871" fill="#D72C02"/>
<rect x="734.781" y="719.966" width="81.5871" height="81.5871" fill="#D72C02" fill-opacity="0.2"/>
<rect opacity="0.34" x="816.369" y="719.966" width="81.5871" height="81.5871" fill="#D72C02"/>
<rect opacity="0.54" x="897.959" y="719.966" width="81.5871" height="81.5871" fill="#D72C02"/>
<rect opacity="0.39" x="979.547" y="719.966" width="81.5871" height="81.5871" fill="#D72C02"/>
<rect x="1061.13" y="719.966" width="81.5871" height="81.5871" fill="#D72C02" fill-opacity="0.2"/>
<rect x="1142.72" y="719.966" width="81.5871" height="81.5871" fill="#D72C02"/>
<rect opacity="0.34" x="1224.31" y="719.966" width="81.5871" height="81.5871" fill="#D72C02"/>
<rect x="1305.89" y="719.966" width="81.5871" height="81.5871" fill="#D72C02"/>
<rect opacity="0.56" x="1387.48" y="719.966" width="81.5871" height="81.5871" fill="#D72C02"/>
<rect x="1469.07" y="719.966" width="81.5871" height="81.5871" fill="#D72C02"/>
<rect x="1550.66" y="719.966" width="81.5871" height="81.5871" fill="#D72C02" fill-opacity="0.2"/>
<rect x="1632.24" y="719.966" width="81.5871" height="81.5871" fill="#D72C02" fill-opacity="0.2"/>
<rect opacity="0.56" x="0.5" y="801.554" width="81.5871" height="81.5871" fill="#D72C02"/>
<rect x="82.0879" y="801.554" width="81.5871" height="81.5871" fill="#D72C02"/>
<rect x="163.672" y="801.554" width="81.5871" height="81.5871" fill="#D72C02" fill-opacity="0.2"/>
<rect x="245.26" y="801.554" width="81.5871" height="81.5871" fill="#D72C02" fill-opacity="0.2"/>
<rect x="326.85" y="801.554" width="81.5871" height="81.5871" fill="#D72C02"/>
<rect opacity="0.56" x="408.438" y="801.554" width="81.5871" height="81.5871" fill="#D72C02"/>
<rect opacity="0.39" x="490.021" y="801.554" width="81.5871" height="81.5871" fill="#D72C02"/>
<rect x="571.609" y="801.554" width="81.5871" height="81.5871" fill="#D72C02"/>
<rect opacity="0.39" x="653.197" y="801.554" width="81.5871" height="81.5871" fill="#D72C02"/>
<rect x="734.781" y="801.554" width="81.5871" height="81.5871" fill="#D72C02"/>
<rect opacity="0.56" x="816.369" y="801.554" width="81.5871" height="81.5871" fill="#D72C02"/>
<rect x="897.959" y="801.554" width="81.5871" height="81.5871" fill="#D72C02"/>
<rect opacity="0.56" x="979.547" y="801.554" width="81.5871" height="81.5871" fill="#D72C02"/>
<rect x="1061.13" y="801.554" width="81.5871" height="81.5871" fill="#D72C02"/>
<rect x="1142.72" y="801.554" width="81.5871" height="81.5871" fill="#D72C02" fill-opacity="0.2"/>
<rect x="1224.31" y="801.554" width="81.5871" height="81.5871" fill="#D72C02"/>
<rect opacity="0.56" x="1305.89" y="801.554" width="81.5871" height="81.5871" fill="#D72C02"/>
<rect x="1387.48" y="801.554" width="81.5871" height="81.5871" fill="#D72C02" fill-opacity="0.2"/>
<rect x="1469.07" y="801.554" width="81.5871" height="81.5871" fill="#D72C02" fill-opacity="0.2"/>
<rect opacity="0.34" x="1550.66" y="801.554" width="81.5871" height="81.5871" fill="#D72C02"/>
<rect x="1632.24" y="801.554" width="81.5871" height="81.5871" fill="#D72C02"/>
</g>
<rect x="817.166" y="905.635" width="21.3333" height="5.33333" rx="1.33333" fill="#FF6D4A" fill-opacity="0.3"/>
<rect x="846.5" y="905.635" width="21.3333" height="5.33333" rx="1.33333" fill="#FF7D5D"/>
<rect x="875.834" y="905.635" width="21.3333" height="5.33333" rx="1.33333" fill="#FF6D4A" fill-opacity="0.3"/>
</g>
</g>
<defs>
<linearGradient id="paint0_linear_38_2286" x1="864.501" y1="-79.8257" x2="864.501" y2="1095.9" gradientUnits="userSpaceOnUse">
<stop stop-opacity="0"/>
<stop offset="0.533654" stop-color="#791800"/>
<stop offset="1" stop-color="#F13000"/>
</linearGradient>
<clipPath id="clip0_38_2286">
<rect x="0.5" y="-79.1875" width="1713.33" height="1175.09" rx="10.6667" fill="white"/>
</clipPath>
</defs>
</svg>
