<svg width="37" height="33" viewBox="0 0 37 33" fill="none" xmlns="http://www.w3.org/2000/svg">
<path fill-rule="evenodd" clip-rule="evenodd" d="M9.60331 25.6054L18.475 10.2301L22.3367 16.9344L27.3472 25.6053C25.3659 24.8303 23.2843 24.3135 21.1744 24.0694V28.6345C22.897 28.8641 24.5623 29.3235 26.1415 29.9841C27.8354 30.7019 29.4289 31.6493 30.879 32.8123H34.2238H34.2526H36.9515L27.7058 16.8051L18.4751 0.8125L9.2299 16.8053L-0.000976562 32.8125H1.46347H2.7123H6.07149C7.52157 31.6494 9.11508 30.7021 10.8092 29.9843C12.3739 29.3238 14.0535 28.8643 15.7765 28.6348V24.0696C13.6517 24.3136 11.57 24.8305 9.60331 25.6054Z" fill="white"/>
</svg>
