<svg width="82" height="26" viewBox="0 0 82 26" fill="none" xmlns="http://www.w3.org/2000/svg">
<g clip-path="url(#clip0_449_9115)">
<path d="M80.0158 3.54023C79.9756 3.71889 79.8954 3.85744 79.7715 3.95953C79.6475 4.06163 79.5053 4.11267 79.3375 4.11267C79.2136 4.11267 79.1006 4.09443 79.0022 4.05068C78.9 4.00693 78.8162 3.94859 78.7469 3.87567C78.674 3.80275 78.6193 3.71159 78.5828 3.60951C78.5464 3.50742 78.5281 3.39803 78.5281 3.27771C78.5281 3.15738 78.5464 3.04436 78.5828 2.94226C78.6193 2.84018 78.6703 2.75267 78.7396 2.67975C78.8052 2.61048 78.8891 2.55213 78.9912 2.50838C79.0897 2.46827 79.2027 2.45005 79.3267 2.4464C79.5016 2.4464 79.6511 2.4938 79.7788 2.58859C79.9027 2.68339 79.9829 2.81831 80.0121 3.00061H79.7824C79.7605 2.89851 79.7132 2.81465 79.633 2.74903C79.5527 2.68339 79.4543 2.65058 79.3303 2.64693C79.2392 2.64693 79.1589 2.66517 79.0897 2.69434C79.0204 2.72714 78.962 2.7709 78.9183 2.82924C78.8709 2.88758 78.8344 2.95321 78.8125 3.02613C78.7871 3.1027 78.7761 3.18291 78.7761 3.27042C78.7761 3.35792 78.7871 3.43814 78.8125 3.51471C78.8381 3.59493 78.8745 3.66055 78.9256 3.71889C78.9729 3.77723 79.0313 3.82463 79.1006 3.86109C79.1699 3.89755 79.2501 3.91213 79.3375 3.91213C79.4616 3.91213 79.56 3.87931 79.6403 3.81005C79.7168 3.74077 79.7642 3.64961 79.7824 3.54023H80.0158ZM78.1672 3.27042C78.1672 3.43814 78.1927 3.59493 78.2511 3.73712C78.3094 3.87931 78.386 4.00328 78.4881 4.10538C78.5901 4.21111 78.7068 4.29497 78.8454 4.35332C78.9839 4.41165 79.1334 4.44082 79.2938 4.44082C79.4506 4.44082 79.5964 4.41165 79.735 4.35332C79.87 4.29497 79.9866 4.21111 80.0887 4.10538C80.1907 4.00328 80.2673 3.87931 80.3257 3.73712C80.384 3.59493 80.4131 3.43814 80.4131 3.27042C80.4131 3.10999 80.384 2.95686 80.3257 2.81465C80.2673 2.6761 80.1907 2.55213 80.0887 2.45005C79.9866 2.34795 79.87 2.26409 79.735 2.20575C79.5964 2.14742 79.4506 2.11825 79.2938 2.1146C79.1334 2.1146 78.9839 2.14742 78.8454 2.20575C78.7068 2.26409 78.5901 2.34795 78.4881 2.45005C78.386 2.55213 78.3094 2.6761 78.2511 2.81465C78.1927 2.95686 78.1672 3.10999 78.1672 3.27042ZM77.9192 3.27042C77.9192 3.08082 77.9557 2.90216 78.0287 2.73445C78.1016 2.57037 78.2 2.42816 78.324 2.30419C78.4479 2.18388 78.5938 2.08907 78.7615 2.01981C78.9292 1.95053 79.1043 1.91406 79.2938 1.91406C79.4798 1.91406 79.6548 1.95053 79.8225 2.01981C79.9866 2.08907 80.1288 2.18388 80.2563 2.30419C80.3804 2.42816 80.4789 2.57037 80.5518 2.73445C80.6247 2.90216 80.6611 3.08082 80.6611 3.27042C80.6611 3.46731 80.6247 3.64961 80.5518 3.81734C80.4789 3.98506 80.3804 4.12725 80.2563 4.25122C80.1324 4.37519 79.9866 4.46999 79.8225 4.53562C79.6548 4.60489 79.4798 4.63771 79.2938 4.63771C79.1043 4.63771 78.9292 4.60489 78.7615 4.53562C78.5938 4.46999 78.4479 4.37519 78.324 4.25122C78.2 4.12725 78.1016 3.98506 78.0287 3.81734C77.9557 3.64961 77.9192 3.46731 77.9192 3.27042Z" fill="white"/>
<path d="M71.1619 11.5587V16.033L63.053 7.924L66.3474 6.74414L71.1619 11.5587Z" fill="white"/>
<path d="M79.7125 11.5587V16.033L71.6035 7.924L74.898 6.74414L79.7125 11.5587Z" fill="white"/>
<path d="M71.1619 19.84V15.3657L63.053 23.4747L66.3474 24.6545L71.1619 19.84Z" fill="white"/>
<path d="M79.7125 19.84V15.3657L71.6035 23.4747L74.898 24.6545L79.7125 19.84Z" fill="white"/>
<path d="M69.3691 9.9221L66.3493 6.7583H62.6262V9.9221H69.3691Z" fill="white"/>
<path d="M77.9179 9.9221L74.8981 6.7583H71.175V9.9221H77.9179Z" fill="white"/>
<path d="M69.3691 21.4756L66.3493 24.6394H62.6262V21.4756H69.3691Z" fill="white"/>
<path d="M77.9179 21.4756L74.8981 24.6394H71.175V21.4756H77.9179Z" fill="white"/>
<path d="M40.5381 23.021H43.0737V9.14335H40.5381V7.53286L45.815 6.50488V9.5888H45.9521C46.0891 9.24614 46.2947 8.89206 46.5688 8.52656C46.8658 8.16107 47.2199 7.82982 47.6311 7.53286C48.0651 7.23589 48.5677 6.99602 49.1388 6.81328C49.7099 6.60768 50.3381 6.50488 51.0234 6.50488C53.1479 6.50488 54.667 7.06455 55.5807 8.18391C56.5174 9.28041 56.9857 10.9366 56.9857 13.1524V23.021H59.5213V24.5972H51.6402V23.021H54.1758V13.3923C54.1758 10.1028 52.7938 8.45804 50.0297 8.45804C49.5271 8.45804 49.0246 8.52656 48.522 8.66362C48.0423 8.80069 47.5968 9.01771 47.1857 9.31467C46.7974 9.61164 46.4774 9.97715 46.2262 10.4112C45.9978 10.8452 45.8836 11.3592 45.8836 11.9531V23.021H48.4192V24.5972H40.5381V23.021Z" fill="white"/>
<path d="M30.3109 25.0084C28.1865 25.0084 26.656 24.4601 25.7194 23.3636C24.8056 22.2443 24.3487 20.5653 24.3487 18.3266V9.14335H20.592L20.4727 7.53286L27.1586 6.50488V18.0867C27.1586 21.3991 28.5406 23.0552 31.3047 23.0552C31.8073 23.0552 32.2984 22.9867 32.7781 22.8497C33.2807 22.7126 33.7262 22.4956 34.1144 22.1986C34.5256 21.9016 34.8455 21.5361 35.0739 21.1021C35.3252 20.668 35.4509 20.1541 35.4509 19.5601V9.14335H33.0346L32.9152 7.53286L38.2607 6.50488V23.0161H40.7963V24.5974H35.5194V21.9245H35.3823C35.2453 22.2671 35.0282 22.6212 34.7313 22.9867C34.4572 23.3522 34.1031 23.6835 33.6691 23.9804C33.2579 24.2774 32.7667 24.5172 32.1957 24.7C31.6245 24.9056 30.9963 25.0084 30.3109 25.0084Z" fill="white"/>
<path d="M11.2211 23.1924C12.3861 23.1924 13.414 22.9867 14.305 22.5755C15.2188 22.1415 15.9841 21.5476 16.6008 20.7937C17.2175 20.017 17.6859 19.1032 18.0057 18.0525C18.3256 17.0017 18.4854 15.848 18.4854 14.5916V10.6853C18.4854 9.42893 18.3256 8.27531 18.0057 7.2245C17.6859 6.17369 17.2175 5.27135 16.6008 4.51751C15.9841 3.74082 15.2188 3.14687 14.305 2.73569C13.414 2.30166 12.3861 2.08464 11.2211 2.08464C10.0561 2.08464 9.01666 2.30166 8.1029 2.73569C7.212 3.14687 6.45815 3.74082 5.84137 4.51751C5.22458 5.27135 4.75628 6.17369 4.43647 7.2245C4.11665 8.27531 3.95674 9.42893 3.95674 10.6853V14.5916C3.95674 15.848 4.11665 17.0017 4.43647 18.0525C4.75628 19.1032 5.22458 20.017 5.84137 20.7937C6.45815 21.5476 7.212 22.1415 8.1029 22.5755C9.01666 22.9867 10.0561 23.1924 11.2211 23.1924ZM11.2211 25.0084C9.64487 25.0084 8.2057 24.7229 6.9036 24.1518C5.6015 23.5807 4.48216 22.7583 3.54556 21.6847C2.6318 20.6109 1.92365 19.3203 1.42108 17.8126C0.918519 16.2821 0.667236 14.5573 0.667236 12.6384C0.667236 10.7196 0.918519 9.00632 1.42108 7.49863C1.92365 5.96809 2.6318 4.66599 3.54556 3.59233C4.48216 2.51867 5.6015 1.69629 6.9036 1.1252C8.2057 0.554103 9.64487 0.268555 11.2211 0.268555C12.7973 0.268555 14.2364 0.554103 15.5386 1.1252C16.8406 1.69629 17.9486 2.51867 18.8623 3.59233C19.799 4.66599 20.5186 5.96809 21.021 7.49863C21.5236 9.00632 21.7749 10.7196 21.7749 12.6384C21.7749 14.5573 21.5236 16.2821 21.021 17.8126C20.5186 19.3203 19.799 20.6109 18.8623 21.6847C17.9486 22.7583 16.8406 23.5807 15.5386 24.1518C14.2364 24.7229 12.7973 25.0084 11.2211 25.0084Z" fill="white"/>
</g>
<defs>
<clipPath id="clip0_449_9115">
<rect width="81.2821" height="25.4618" fill="white" transform="translate(0.667236 0.268555)"/>
</clipPath>
</defs>
</svg>
