<svg width="146" height="33" viewBox="0 0 146 33" fill="none" xmlns="http://www.w3.org/2000/svg">
<g clip-path="url(#clip0_449_8856)">
<path d="M35.3564 11.6221L35.675 9.8501H45.6017L45.9203 11.6221H45.8069C45.4699 11.1005 44.8694 10.6339 44.2353 10.6339H41.5024V22.5467C41.5024 22.8089 41.6342 23.0499 41.8394 23.1993H39.462C39.6488 23.0499 39.7806 22.8089 39.7806 22.5467V10.6339H37.0416C36.4042 10.6339 35.8068 11.1005 35.4698 11.6221H35.3564Z" fill="white"/>
<path d="M60.657 23.1993C60.8622 23.0499 60.994 22.8089 60.994 22.5467V16.2823H53.3714V22.5467C53.3714 22.8089 53.503 23.0499 53.6899 23.1993H51.3125C51.5177 23.0499 51.6495 22.8089 51.6495 22.5467V10.5028C51.6495 10.2222 51.5177 9.99954 51.3125 9.8501H53.6899C53.503 9.99954 53.3714 10.2222 53.3714 10.5028V15.4801H60.994V10.5028C60.994 10.2222 60.8622 9.99954 60.657 9.8501H63.0529C62.8476 9.99954 62.7158 10.2222 62.7158 10.5028V22.5467C62.7158 22.8089 62.8476 23.0499 63.0529 23.1993H60.657Z" fill="white"/>
<path d="M68.6667 23.1974C68.872 23.048 69.0038 22.807 69.0038 22.5447V10.5008C69.0038 10.2202 68.872 9.99758 68.6667 9.84814H71.0442C70.8572 9.99758 70.7256 10.2202 70.7256 10.5008V22.5447C70.7256 22.807 70.8572 23.048 71.0442 23.1974H68.6667Z" fill="white"/>
<path d="M87.8601 10.5028V23.1993H87.5967L77.9334 11.3811V22.5467C77.9334 22.8089 78.0652 23.0499 78.2522 23.1993H76.7538C76.9592 23.0499 77.0909 22.8089 77.0909 22.5467V10.3533L76.6589 9.8501H78.8863L87.0696 19.7317V10.5028C87.0696 10.2222 86.9378 9.99955 86.7326 9.8501H88.2492C88.044 9.99955 87.857 10.2222 87.857 10.5028H87.8601Z" fill="white"/>
<path d="M100.745 23.1974C101.008 23.1425 101.118 22.9565 101.118 22.7125C101.118 22.5264 101.023 22.3586 100.8 22.1148L95.7046 16.2803V22.5447C95.7046 22.807 95.8364 23.048 96.0232 23.1974H93.6458C93.851 23.048 93.9828 22.807 93.9828 22.5447V10.5008C93.9828 10.2202 93.851 9.99758 93.6458 9.84814H96.0232C95.8364 9.99758 95.7046 10.2202 95.7046 10.5008V16.1309L101.097 11.004C101.36 10.7631 101.434 10.5374 101.434 10.3697C101.434 10.1287 101.302 9.95794 101.152 9.84814H104.112C103.438 10.0342 103.082 10.3697 102.577 10.8546L97.4265 15.832L103.082 22.2458C103.324 22.5264 103.738 22.9168 104.243 23.1974H100.742H100.745Z" fill="white"/>
<path d="M115.969 12.536C115.5 11.249 114.376 10.5231 112.936 10.5231C111.683 10.5231 110.727 11.3618 110.727 12.5939C110.727 13.6766 111.478 14.308 112.299 14.7746L114.734 16.1714C115.84 16.8058 116.833 17.6993 116.833 19.4715C116.833 22.0059 114.829 23.4423 112.731 23.4423C111.306 23.4423 109.94 22.7897 109.023 22.082V19.7886H109.1C109.624 21.2251 110.899 22.5487 112.697 22.5487C114.122 22.5487 115.243 21.5971 115.243 20.2735C115.243 19.0993 114.382 18.2789 113.481 17.7573L111.254 16.4886C109.943 15.7414 109.155 14.5489 109.155 13.207C109.155 11.249 110.84 9.73926 113.089 9.73926C114.137 9.73926 115.316 10.0747 116.049 10.6725V12.536H115.975H115.969Z" fill="white"/>
<path d="M129.936 11.5672C129.617 11.0273 129.057 10.6339 128.382 10.6339H124.507V15.4435H128.082C128.382 15.4435 128.661 15.2575 128.793 14.9952V16.7489C128.661 16.4866 128.379 16.3006 128.082 16.3006H124.507V22.3424H128.928C129.657 22.3424 130.276 21.9702 130.613 21.3908H130.708L130.408 23.1993H122.448C122.653 23.0499 122.785 22.8089 122.785 22.5467V10.5028C122.785 10.2222 122.653 9.99954 122.448 9.8501H129.752L130.015 11.5641H129.942L129.936 11.5672Z" fill="white"/>
<path d="M140.946 23.2726C139.858 23.2726 138.998 23.1993 138.287 23.1993H136.133C136.338 23.0499 136.47 22.8089 136.47 22.5467V10.5028C136.47 10.2222 136.338 9.99955 136.133 9.8501H140.404C142.594 9.8501 144.298 11.0609 144.298 12.9061C144.298 14.2846 143.287 15.5351 141.602 15.8523C143.887 16.0749 145.664 17.6242 145.664 19.4328C145.664 21.6135 143.884 23.2726 140.946 23.2726ZM139.711 10.5394H139.616C139.224 10.5394 138.829 10.5394 138.192 10.6705V15.6845H139.708C141.525 15.6845 142.723 14.5469 142.723 13.1287C142.723 11.7105 141.375 10.5363 139.708 10.5363L139.711 10.5394ZM140.217 16.4104H138.195V22.2447C138.755 22.4492 139.429 22.562 140.217 22.562C142.576 22.562 143.869 21.0157 143.869 19.4846C143.869 17.6212 142.821 16.4073 140.217 16.4073V16.4104Z" fill="white"/>
<mask id="mask0_449_8856" style="mask-type:luminance" maskUnits="userSpaceOnUse" x="0" y="0" width="27" height="33">
<path d="M26.8959 0.8125H0.333252V32.8125H26.8959V0.8125Z" fill="white"/>
</mask>
<g mask="url(#mask0_449_8856)">
<path d="M26.8965 9.78955V13.864L24.9598 11.9083H21.9246V9.78955H26.8965Z" fill="white"/>
<path d="M16.5858 32.8127H10.6172L12.5541 30.857V27.4561H14.6499V30.857L16.5858 32.8127Z" fill="white"/>
<path d="M24.9592 2.93156L26.8959 4.88719V0.8125H0.333252V4.88719L2.26937 2.93156H12.5562V9.78704H11.1713V9.78998H9.29015V11.9088H18.8725V17.0268H14.652V12.8278H12.5562V17.0268H8.34136V7.3677L10.2775 5.41206H4.30887L6.24578 7.3677V9.78998H3.05285C2.66244 9.78998 2.28185 9.87505 1.93424 10.0334C1.58555 10.1917 1.27168 10.4235 1.01309 10.7187C0.575366 11.2205 0.333252 11.8658 0.333252 12.5356V16.1506C0.333252 16.7206 0.509721 17.276 0.836085 17.7413L1.01229 17.9909C1.52256 18.7155 2.34856 19.1456 3.22906 19.1456H6.24578V24.376H2.27309L0.333252 22.4174V26.4949H6.24578V28.9023L4.30887 30.8568H10.2775L8.34136 28.9023V19.1456H18.8725V24.3712H14.652V20.0679H12.5562V24.3712H9.29015V26.4949H16.0359V26.4959H18.8725V28.9023L16.9355 30.8568H22.9088L20.973 28.9023V19.1456H22.5564C23.3059 19.1456 24.8003 19.1456 24.8003 20.5146V23.0021C24.8003 24.3712 23.3059 24.3712 22.5564 24.3712H21.9231V26.4959H23.8096C24.3092 26.4959 24.7944 26.3738 25.2264 26.1477C25.6583 25.9229 26.038 25.5943 26.3274 25.1818C26.6975 24.6545 26.8959 24.025 26.8959 23.3786V19.7764C26.8959 19.4417 26.8362 19.1133 26.7208 18.8053C26.6064 18.4984 26.4361 18.2117 26.2182 17.9606C25.7011 17.367 24.9563 17.0268 24.1737 17.0268H20.973V7.3677L22.91 5.41206H16.9355L18.8725 7.3677V9.78998H16.0359V9.78704H14.652V2.93156H24.9592ZM6.24578 17.0268H4.6682C3.91952 17.0268 2.4291 17.0268 2.4291 15.6577V13.2778C2.4291 11.9088 3.91952 11.9088 4.6682 11.9088H6.24578V17.0268Z" fill="white"/>
</g>
</g>
<defs>
<clipPath id="clip0_449_8856">
<rect width="145.333" height="32" fill="white" transform="translate(0.333252 0.8125)"/>
</clipPath>
</defs>
</svg>
