<svg width="1778" height="1135" viewBox="0 0 1778 1135" fill="none" xmlns="http://www.w3.org/2000/svg">
<mask id="mask0_80_9553" style="mask-type:alpha" maskUnits="userSpaceOnUse" x="0" y="0" width="1806" height="1136">
<path d="M1204.7 1117.72C1204.7 1111.83 1199.93 1107.05 1194.04 1107.05L612.62 1107.05C606.729 1107.05 601.953 1111.83 601.953 1117.72L601.953 1124.97C601.953 1130.86 597.177 1135.63 591.286 1135.63L11.3337 1135.63C5.44263 1135.63 0.666992 1130.86 0.666991 1124.97L0.666894 10.7591C0.666893 4.86796 5.44253 0.0924426 11.3335 0.0924421L591.281 0.0923914C597.173 0.0923908 601.948 4.86803 601.948 10.759L601.948 21.4619C601.948 27.3529 606.724 32.1285 612.615 32.1285L1194.03 32.1285C1199.92 32.1285 1204.7 27.3528 1204.7 21.4618L1204.7 10.759C1204.7 4.86797 1209.47 0.0923373 1215.36 0.0923368L1795.33 0.0922861C1801.22 0.0922856 1806 4.86792 1806 10.7589L1806 1124.97C1806 1130.86 1801.22 1135.63 1795.33 1135.63L1215.37 1135.63C1209.48 1135.63 1204.7 1130.86 1204.7 1124.97L1204.7 1117.72Z" fill="#FA3301"/>
</mask>
<g mask="url(#mask0_80_9553)">
<g clip-path="url(#clip0_80_9553)">
<rect x="1818" y="1007.75" width="1917.33" height="1007.42" transform="rotate(180 1818 1007.75)" fill="url(#paint0_linear_80_9553)"/>
<g opacity="0.31">
<rect x="1723.33" y="595.033" width="81.5871" height="81.5871" transform="rotate(180 1723.33 595.033)" fill="#D72C02" fill-opacity="0.2"/>
<rect opacity="0.34" x="1478.57" y="673.751" width="81.5871" height="81.5871" transform="rotate(180 1478.57 673.751)" fill="#D72C02"/>
<rect opacity="0.56" x="1560.16" y="595.033" width="81.5871" height="81.5871" transform="rotate(180 1560.16 595.033)" fill="#D72C02"/>
<rect opacity="0.39" x="1315.4" y="595.038" width="81.5871" height="81.5871" transform="rotate(180 1315.4 595.038)" fill="#D72C02"/>
<rect x="1233.81" y="595.038" width="81.5871" height="81.5871" transform="rotate(180 1233.81 595.038)" fill="#D72C02" fill-opacity="0.2"/>
<rect opacity="0.34" x="1152.22" y="595.033" width="81.5871" height="81.5871" transform="rotate(180 1152.22 595.033)" fill="#D72C02"/>
<rect opacity="0.39" x="1070.63" y="595.038" width="81.5871" height="81.5871" transform="rotate(180 1070.63 595.038)" fill="#D72C02"/>
<rect opacity="0.56" x="989.051" y="595.033" width="81.5871" height="81.5871" transform="rotate(180 989.051 595.033)" fill="#D72C02"/>
<rect x="907.463" y="595.038" width="81.5871" height="81.5871" transform="rotate(180 907.463 595.038)" fill="#D72C02" fill-opacity="0.2"/>
<rect x="825.875" y="595.038" width="81.5871" height="81.5871" transform="rotate(180 825.875 595.038)" fill="#D72C02" fill-opacity="0.2"/>
<rect opacity="0.54" x="744.286" y="595.033" width="81.5871" height="81.5871" transform="rotate(180 744.286 595.033)" fill="#D72C02"/>
<rect opacity="0.39" x="662.703" y="595.038" width="81.5871" height="81.5871" transform="rotate(180 662.703 595.038)" fill="#D72C02" fill-opacity="0.2"/>
<rect opacity="0.23" x="581.114" y="672.418" width="81.5871" height="81.5871" transform="rotate(180 581.114 672.418)" fill="#D72C02"/>
<rect opacity="0.34" x="417.942" y="595.038" width="81.5871" height="81.5871" transform="rotate(180 417.942 595.038)" fill="#D72C02"/>
<rect opacity="0.56" x="336.354" y="595.033" width="81.5871" height="81.5871" transform="rotate(180 336.354 595.033)" fill="#D72C02" fill-opacity="0.2"/>
<rect opacity="0.39" x="173.177" y="595.033" width="81.5871" height="81.5871" transform="rotate(180 173.177 595.033)" fill="#D72C02"/>
<rect opacity="0.56" x="91.5933" y="595.038" width="81.5871" height="81.5871" transform="rotate(180 91.5933 595.038)" fill="#D72C02"/>
<rect x="1723.33" y="513.45" width="81.5871" height="81.5871" transform="rotate(180 1723.33 513.45)" fill="#D72C02"/>
<rect x="1560.16" y="513.45" width="81.5871" height="81.5871" transform="rotate(180 1560.16 513.45)" fill="#D72C02" fill-opacity="0.2"/>
<rect x="1723.33" y="675.751" width="81.5871" height="81.5871" transform="rotate(180 1723.33 675.751)" fill="#D72C02" fill-opacity="0.2"/>
<rect opacity="0.56" x="1478.57" y="513.45" width="81.5871" height="81.5871" transform="rotate(180 1478.57 513.45)" fill="#D72C02"/>
<rect x="1396.98" y="513.444" width="81.5871" height="81.5871" transform="rotate(180 1396.98 513.444)" fill="#D72C02" fill-opacity="0.2"/>
<rect opacity="0.56" x="1315.4" y="513.444" width="81.5871" height="81.5871" transform="rotate(180 1315.4 513.444)" fill="#D72C02"/>
<rect x="1152.22" y="513.45" width="81.5871" height="81.5871" transform="rotate(180 1152.22 513.45)" fill="#D72C02" fill-opacity="0.2"/>
<rect x="1070.63" y="513.444" width="81.5871" height="81.5871" transform="rotate(180 1070.63 513.444)" fill="#D72C02"/>
<rect opacity="0.54" x="989.052" y="513.45" width="81.5871" height="81.5871" transform="rotate(180 989.052 513.45)" fill="#D72C02" fill-opacity="0.2"/>
<rect opacity="0.34" x="907.463" y="513.45" width="81.5871" height="81.5871" transform="rotate(180 907.463 513.45)" fill="#D72C02"/>
<rect opacity="0.54" x="825.875" y="513.444" width="81.5871" height="81.5871" transform="rotate(180 825.875 513.444)" fill="#D72C02"/>
<rect x="744.286" y="513.45" width="81.5871" height="81.5871" transform="rotate(180 744.286 513.45)" fill="#D72C02" fill-opacity="0.2"/>
<rect opacity="0.39" x="662.703" y="513.45" width="81.5871" height="81.5871" transform="rotate(180 662.703 513.45)" fill="#D72C02"/>
<rect x="499.525" y="513.444" width="81.5871" height="81.5871" transform="rotate(180 499.525 513.444)" fill="#D72C02" fill-opacity="0.2"/>
<rect opacity="0.39" x="417.942" y="513.45" width="81.5871" height="81.5871" transform="rotate(180 417.942 513.45)" fill="#D72C02"/>
<rect opacity="0.39" x="336.354" y="513.444" width="81.5871" height="81.5871" transform="rotate(180 336.354 513.444)" fill="#D72C02"/>
<rect opacity="0.34" x="254.765" y="513.444" width="81.5871" height="81.5871" transform="rotate(180 254.765 513.444)" fill="#D72C02"/>
<rect x="173.177" y="513.45" width="81.5871" height="81.5871" transform="rotate(180 173.177 513.45)" fill="#D72C02" fill-opacity="0.2"/>
<rect x="91.5933" y="513.45" width="81.5871" height="81.5871" transform="rotate(180 91.5933 513.45)" fill="#D72C02"/>
<rect x="1723.33" y="431.861" width="81.5871" height="81.5871" transform="rotate(180 1723.33 431.861)" fill="#D72C02" fill-opacity="0.2"/>
<rect opacity="0.39" x="1641.74" y="431.861" width="81.5871" height="81.5871" transform="rotate(180 1641.74 431.861)" fill="#D72C02"/>
<rect opacity="0.34" x="1560.16" y="431.861" width="81.5871" height="81.5871" transform="rotate(180 1560.16 431.861)" fill="#D72C02"/>
<rect x="1478.57" y="431.861" width="81.5871" height="81.5871" transform="rotate(180 1478.57 431.861)" fill="#D72C02" fill-opacity="0.2"/>
<rect x="1396.98" y="431.861" width="81.5871" height="81.5871" transform="rotate(180 1396.98 431.861)" fill="#D72C02"/>
<rect opacity="0.34" x="1315.4" y="431.861" width="81.5871" height="81.5871" transform="rotate(180 1315.4 431.861)" fill="#D72C02"/>
<rect opacity="0.56" x="1233.81" y="431.861" width="81.5871" height="81.5871" transform="rotate(180 1233.81 431.861)" fill="#D72C02"/>
<rect x="1152.22" y="431.861" width="81.5871" height="81.5871" transform="rotate(180 1152.22 431.861)" fill="#D72C02" fill-opacity="0.2"/>
<rect opacity="0.39" x="989.052" y="431.861" width="81.5871" height="81.5871" transform="rotate(180 989.052 431.861)" fill="#D72C02"/>
<rect opacity="0.54" x="907.463" y="431.861" width="81.5871" height="81.5871" transform="rotate(180 907.463 431.861)" fill="#D72C02"/>
<rect x="744.286" y="431.861" width="81.5871" height="81.5871" transform="rotate(180 744.286 431.861)" fill="#D72C02"/>
<rect opacity="0.39" x="662.703" y="431.861" width="81.5871" height="81.5871" transform="rotate(180 662.703 431.861)" fill="#D72C02"/>
<rect x="581.114" y="431.861" width="81.5871" height="81.5871" transform="rotate(180 581.114 431.861)" fill="#D72C02" fill-opacity="0.2"/>
<rect opacity="0.39" x="499.525" y="431.861" width="81.5871" height="81.5871" transform="rotate(180 499.525 431.861)" fill="#D72C02"/>
<rect opacity="0.39" x="254.765" y="676.622" width="81.5871" height="81.5871" transform="rotate(180 254.765 676.622)" fill="#D72C02"/>
<rect opacity="0.56" x="417.942" y="431.861" width="81.5871" height="81.5871" transform="rotate(180 417.942 431.861)" fill="#D72C02"/>
<rect x="336.354" y="431.861" width="81.5871" height="81.5871" transform="rotate(180 336.354 431.861)" fill="#D72C02" fill-opacity="0.2"/>
<rect x="254.765" y="431.861" width="81.5871" height="81.5871" transform="rotate(180 254.765 431.861)" fill="#D72C02"/>
<rect opacity="0.54" x="173.177" y="431.861" width="81.5871" height="81.5871" transform="rotate(180 173.177 431.861)" fill="#D72C02"/>
<rect opacity="0.56" x="91.5933" y="431.861" width="81.5871" height="81.5871" transform="rotate(180 91.5933 431.861)" fill="#D72C02"/>
<rect opacity="0.54" x="1723.33" y="350.272" width="81.5871" height="81.5871" transform="rotate(180 1723.33 350.272)" fill="#D72C02"/>
<rect x="1641.74" y="350.278" width="81.5871" height="81.5871" transform="rotate(180 1641.74 350.278)" fill="#D72C02" fill-opacity="0.2"/>
<rect opacity="0.39" x="1560.16" y="350.272" width="81.5871" height="81.5871" transform="rotate(180 1560.16 350.272)" fill="#D72C02" fill-opacity="0.2"/>
<rect opacity="0.54" x="1478.57" y="350.278" width="81.5871" height="81.5871" transform="rotate(180 1478.57 350.278)" fill="#D72C02"/>
<rect opacity="0.56" x="1396.98" y="350.278" width="81.5871" height="81.5871" transform="rotate(180 1396.98 350.278)" fill="#D72C02"/>
<rect x="1315.4" y="350.272" width="81.5871" height="81.5871" transform="rotate(180 1315.4 350.272)" fill="#D72C02" fill-opacity="0.2"/>
<rect opacity="0.34" x="1233.81" y="350.278" width="81.5871" height="81.5871" transform="rotate(180 1233.81 350.278)" fill="#D72C02"/>
<rect opacity="0.54" x="1152.22" y="350.278" width="81.5871" height="81.5871" transform="rotate(180 1152.22 350.278)" fill="#D72C02"/>
<rect opacity="0.39" x="1070.63" y="350.272" width="81.5871" height="81.5871" transform="rotate(180 1070.63 350.272)" fill="#D72C02"/>
<rect x="989.052" y="350.278" width="81.5871" height="81.5871" transform="rotate(180 989.052 350.278)" fill="#D72C02" fill-opacity="0.2"/>
<rect x="907.463" y="350.272" width="81.5871" height="81.5871" transform="rotate(180 907.463 350.272)" fill="#D72C02" fill-opacity="0.2"/>
<rect opacity="0.56" x="825.875" y="350.272" width="81.5871" height="81.5871" transform="rotate(180 825.875 350.272)" fill="#D72C02"/>
<rect opacity="0.34" x="744.286" y="350.278" width="81.5871" height="81.5871" transform="rotate(180 744.286 350.278)" fill="#D72C02"/>
<rect opacity="0.54" x="662.703" y="350.272" width="81.5871" height="81.5871" transform="rotate(180 662.703 350.272)" fill="#D72C02"/>
<rect opacity="0.56" x="581.114" y="350.272" width="81.5871" height="81.5871" transform="rotate(180 581.114 350.272)" fill="#D72C02"/>
<rect x="499.525" y="350.278" width="81.5871" height="81.5871" transform="rotate(180 499.525 350.278)" fill="#D72C02" fill-opacity="0.2"/>
<rect opacity="0.39" x="417.942" y="350.272" width="81.5871" height="81.5871" transform="rotate(180 417.942 350.272)" fill="#D72C02"/>
<rect opacity="0.39" x="336.354" y="350.272" width="81.5871" height="81.5871" transform="rotate(180 336.354 350.272)" fill="#D72C02"/>
<rect x="254.765" y="350.278" width="81.5871" height="81.5871" transform="rotate(180 254.765 350.278)" fill="#D72C02" fill-opacity="0.2"/>
<rect opacity="0.39" x="173.177" y="350.272" width="81.5871" height="81.5871" transform="rotate(180 173.177 350.272)" fill="#D72C02"/>
<rect x="91.5933" y="350.278" width="81.5871" height="81.5871" transform="rotate(180 91.5933 350.278)" fill="#D72C02" fill-opacity="0.2"/>
<rect x="1723.33" y="268.689" width="81.5871" height="81.5871" transform="rotate(180 1723.33 268.689)" fill="#D72C02"/>
<rect opacity="0.56" x="1641.74" y="268.689" width="81.5871" height="81.5871" transform="rotate(180 1641.74 268.689)" fill="#D72C02"/>
<rect opacity="0.39" x="1560.16" y="268.689" width="81.5871" height="81.5871" transform="rotate(180 1560.16 268.689)" fill="#D72C02"/>
<rect opacity="0.34" x="1478.57" y="268.684" width="81.5871" height="81.5871" transform="rotate(180 1478.57 268.684)" fill="#D72C02"/>
<rect opacity="0.39" x="1396.98" y="268.684" width="81.5871" height="81.5871" transform="rotate(180 1396.98 268.684)" fill="#D72C02" fill-opacity="0.2"/>
<rect opacity="0.56" x="1315.4" y="268.684" width="81.5871" height="81.5871" transform="rotate(180 1315.4 268.684)" fill="#D72C02"/>
<rect x="1233.81" y="268.689" width="81.5871" height="81.5871" transform="rotate(180 1233.81 268.689)" fill="#D72C02"/>
<rect x="1152.22" y="268.689" width="81.5871" height="81.5871" transform="rotate(180 1152.22 268.689)" fill="#D72C02" fill-opacity="0.2"/>
<rect x="1070.63" y="268.689" width="81.5871" height="81.5871" transform="rotate(180 1070.63 268.689)" fill="#D72C02"/>
<rect x="989.052" y="268.684" width="81.5871" height="81.5871" transform="rotate(180 989.052 268.684)" fill="#D72C02" fill-opacity="0.2"/>
<rect opacity="0.34" x="907.463" y="268.684" width="81.5871" height="81.5871" transform="rotate(180 907.463 268.684)" fill="#D72C02"/>
<rect opacity="0.54" x="825.875" y="268.684" width="81.5871" height="81.5871" transform="rotate(180 825.875 268.684)" fill="#D72C02"/>
<rect opacity="0.39" x="744.286" y="268.689" width="81.5871" height="81.5871" transform="rotate(180 744.286 268.689)" fill="#D72C02"/>
<rect x="662.703" y="268.689" width="81.5871" height="81.5871" transform="rotate(180 662.703 268.689)" fill="#D72C02" fill-opacity="0.2"/>
<rect x="581.114" y="268.689" width="81.5871" height="81.5871" transform="rotate(180 581.114 268.689)" fill="#D72C02"/>
<rect opacity="0.34" x="499.525" y="268.684" width="81.5871" height="81.5871" transform="rotate(180 499.525 268.684)" fill="#D72C02"/>
<rect x="417.942" y="268.684" width="81.5871" height="81.5871" transform="rotate(180 417.942 268.684)" fill="#D72C02"/>
<rect opacity="0.56" x="336.354" y="268.684" width="81.5871" height="81.5871" transform="rotate(180 336.354 268.684)" fill="#D72C02"/>
<rect x="254.765" y="268.689" width="81.5871" height="81.5871" transform="rotate(180 254.765 268.689)" fill="#D72C02"/>
<rect x="173.177" y="268.689" width="81.5871" height="81.5871" transform="rotate(180 173.177 268.689)" fill="#D72C02" fill-opacity="0.2"/>
<rect x="91.5933" y="268.684" width="81.5871" height="81.5871" transform="rotate(180 91.5933 268.684)" fill="#D72C02" fill-opacity="0.2"/>
<rect opacity="0.56" x="1723.33" y="187.101" width="81.5871" height="81.5871" transform="rotate(180 1723.33 187.101)" fill="#D72C02"/>
<rect x="1641.74" y="187.101" width="81.5871" height="81.5871" transform="rotate(180 1641.74 187.101)" fill="#D72C02"/>
<rect x="1560.16" y="187.101" width="81.5871" height="81.5871" transform="rotate(180 1560.16 187.101)" fill="#D72C02" fill-opacity="0.2"/>
<rect x="1478.57" y="187.101" width="81.5871" height="81.5871" transform="rotate(180 1478.57 187.101)" fill="#D72C02" fill-opacity="0.2"/>
<rect x="1396.98" y="187.101" width="81.5871" height="81.5871" transform="rotate(180 1396.98 187.101)" fill="#D72C02"/>
<rect opacity="0.56" x="1315.4" y="187.101" width="81.5871" height="81.5871" transform="rotate(180 1315.4 187.101)" fill="#D72C02"/>
<rect opacity="0.39" x="1233.81" y="187.101" width="81.5871" height="81.5871" transform="rotate(180 1233.81 187.101)" fill="#D72C02"/>
<rect x="1152.22" y="187.101" width="81.5871" height="81.5871" transform="rotate(180 1152.22 187.101)" fill="#D72C02"/>
<rect opacity="0.39" x="1070.63" y="187.101" width="81.5871" height="81.5871" transform="rotate(180 1070.63 187.101)" fill="#D72C02"/>
<rect x="989.052" y="187.101" width="81.5871" height="81.5871" transform="rotate(180 989.052 187.101)" fill="#D72C02"/>
<rect opacity="0.56" x="907.463" y="187.101" width="81.5871" height="81.5871" transform="rotate(180 907.463 187.101)" fill="#D72C02"/>
<rect x="825.875" y="187.101" width="81.5871" height="81.5871" transform="rotate(180 825.875 187.101)" fill="#D72C02"/>
<rect opacity="0.56" x="744.286" y="187.101" width="81.5871" height="81.5871" transform="rotate(180 744.286 187.101)" fill="#D72C02"/>
<rect x="662.703" y="187.101" width="81.5871" height="81.5871" transform="rotate(180 662.703 187.101)" fill="#D72C02"/>
<rect x="581.114" y="187.101" width="81.5871" height="81.5871" transform="rotate(180 581.114 187.101)" fill="#D72C02" fill-opacity="0.2"/>
<rect x="499.525" y="187.101" width="81.5871" height="81.5871" transform="rotate(180 499.525 187.101)" fill="#D72C02"/>
<rect opacity="0.56" x="417.942" y="187.101" width="81.5871" height="81.5871" transform="rotate(180 417.942 187.101)" fill="#D72C02"/>
<rect x="336.354" y="187.101" width="81.5871" height="81.5871" transform="rotate(180 336.354 187.101)" fill="#D72C02" fill-opacity="0.2"/>
<rect x="254.765" y="187.101" width="81.5871" height="81.5871" transform="rotate(180 254.765 187.101)" fill="#D72C02" fill-opacity="0.2"/>
<rect opacity="0.34" x="173.177" y="187.101" width="81.5871" height="81.5871" transform="rotate(180 173.177 187.101)" fill="#D72C02"/>
<rect x="91.5933" y="187.101" width="81.5871" height="81.5871" transform="rotate(180 91.5933 187.101)" fill="#D72C02"/>
</g>
</g>
</g>
<defs>
<linearGradient id="paint0_linear_80_9553" x1="2776.67" y1="1180.83" x2="2776.67" y2="2015.17" gradientUnits="userSpaceOnUse">
<stop stop-opacity="0"/>
<stop offset="0.5" stop-color="#791800"/>
<stop offset="1" stop-color="#F13000"/>
</linearGradient>
<clipPath id="clip0_80_9553">
<rect x="1778" y="1134.68" width="1777.33" height="1134.67" rx="10.6667" transform="rotate(180 1778 1134.68)" fill="white"/>
</clipPath>
</defs>
</svg>
